<svg width="285" height="106" viewBox="0 0 285 106" fill="none" xmlns="http://www.w3.org/2000/svg">
<path d="M179.378 3.71269V25.8692H176.213V15.9937H163.489V25.8692H160.324V3.71269H163.489V13.24H176.213V3.71269H179.378Z" fill="white"/>
<path d="M196.012 26.1224C193.775 26.1224 191.76 25.6371 189.967 24.6664C188.173 23.6747 186.759 22.3136 185.725 20.5833C184.712 18.853 184.206 16.9222 184.206 14.791C184.206 12.6597 184.712 10.7289 185.725 8.9986C186.759 7.26829 188.173 5.91779 189.967 4.94713C191.76 3.95536 193.775 3.45947 196.012 3.45947C198.228 3.45947 200.232 3.95536 202.026 4.94713C203.82 5.91779 205.223 7.26829 206.236 8.9986C207.249 10.7078 207.755 12.6386 207.755 14.791C207.755 16.9433 207.249 18.8846 206.236 20.615C205.223 22.3242 203.82 23.6747 202.026 24.6664C200.232 25.6371 198.228 26.1224 196.012 26.1224ZM196.012 23.3054C197.637 23.3054 199.093 22.9361 200.38 22.1976C201.688 21.459 202.712 20.4461 203.45 19.159C204.21 17.8507 204.59 16.3947 204.59 14.791C204.59 13.1872 204.21 11.7418 203.45 10.4546C202.712 9.14631 201.688 8.12289 200.38 7.38434C199.093 6.64579 197.637 6.27652 196.012 6.27652C194.387 6.27652 192.91 6.64579 191.581 7.38434C190.273 8.12289 189.239 9.14631 188.479 10.4546C187.74 11.7418 187.371 13.1872 187.371 14.791C187.371 16.3947 187.74 17.8507 188.479 19.159C189.239 20.4461 190.273 21.459 191.581 22.1976C192.91 22.9361 194.387 23.3054 196.012 23.3054Z" fill="white"/>
<path d="M233.135 25.8692L233.104 9.7266L225.096 23.1788H223.64L215.632 9.82156V25.8692H212.593V3.71269H215.188L224.431 19.2856L233.547 3.71269H236.142L236.174 25.8692H233.135Z" fill="white"/>
<path d="M258.903 23.1155V25.8692H242.823V3.71269H258.459V6.46643H245.988V13.2716H257.098V15.9621H245.988V23.1155H258.903Z" fill="white"/>
<path d="M179.378 42.1475V64.304H176.213V54.4285H163.489V64.304H160.324V42.1475H163.489V51.6748H176.213V42.1475H179.378Z" fill="white"/>
<path d="M202.089 61.5503V64.304H186.01V42.1475H201.646V44.9012H189.175V51.7064H200.285V54.3969H189.175V61.5503H202.089Z" fill="white"/>
<path d="M221.331 58.7649H209.557L207.12 64.304H203.859L213.893 42.1475H217.027L227.092 64.304H223.769L221.331 58.7649ZM220.224 56.2327L215.444 45.376L210.665 56.2327H220.224Z" fill="white"/>
<path d="M230.397 42.1475H233.562V61.5503H245.559V64.304H230.397V42.1475Z" fill="white"/>
<path d="M251.519 44.9012H243.923V42.1475H262.25V44.9012H254.653V64.304H251.519V44.9012Z" fill="white"/>
<path d="M284.751 42.1475V64.304H281.586V54.4285H268.862V64.304H265.697V42.1475H268.862V51.6748H281.586V42.1475H284.751Z" fill="white"/>
<path d="M164.723 83.336H157.127V80.5823H175.453V83.336H167.857V102.739H164.723V83.336Z" fill="white"/>
<path d="M194.98 99.985V102.739H178.901V80.5823H194.537V83.336H182.066V90.1412H193.176V92.8316H182.066V99.985H194.98Z" fill="white"/>
<path d="M206.562 102.992C204.895 102.992 203.281 102.739 201.719 102.232C200.179 101.705 198.966 101.03 198.079 100.207L199.251 97.7377C200.095 98.4974 201.171 99.1199 202.479 99.6052C203.808 100.069 205.17 100.302 206.562 100.302C208.398 100.302 209.77 99.9956 210.677 99.3836C211.584 98.7506 212.038 97.9171 212.038 96.8831C212.038 96.1235 211.785 95.5115 211.278 95.0473C210.793 94.562 210.181 94.1927 209.443 93.9395C208.725 93.6862 207.702 93.4014 206.372 93.0849C204.705 92.6839 203.355 92.283 202.321 91.8821C201.308 91.4812 200.432 90.8692 199.694 90.0463C198.976 89.2022 198.618 88.0733 198.618 86.6595C198.618 85.4778 198.923 84.4122 199.535 83.4626C200.168 82.513 201.118 81.7534 202.384 81.1836C203.65 80.6139 205.222 80.329 207.1 80.329C208.409 80.329 209.696 80.4978 210.962 80.8355C212.228 81.1731 213.315 81.6584 214.222 82.2915L213.178 84.8236C212.249 84.2328 211.257 83.7897 210.202 83.4943C209.147 83.1777 208.113 83.0195 207.1 83.0195C205.307 83.0195 203.956 83.3465 203.049 84.0007C202.163 84.6548 201.719 85.4989 201.719 86.5329C201.719 87.2925 201.973 87.915 202.479 88.4003C202.986 88.8646 203.608 89.2338 204.347 89.5082C205.106 89.7614 206.13 90.0357 207.417 90.3311C209.084 90.7321 210.424 91.133 211.437 91.5339C212.45 91.9348 213.315 92.5468 214.032 93.3697C214.771 94.1927 215.14 95.3005 215.14 96.6932C215.14 97.8538 214.823 98.9194 214.19 99.8901C213.557 100.84 212.597 101.599 211.31 102.169C210.023 102.718 208.44 102.992 206.562 102.992Z" fill="white"/>
<path d="M223.855 83.336H216.258V80.5823H234.585V83.336H226.988V102.739H223.855V83.336Z" fill="white"/>
<path d="M244.211 102.992C242.544 102.992 240.93 102.739 239.368 102.232C237.828 101.705 236.614 101.03 235.728 100.207L236.899 97.7377C237.743 98.4974 238.82 99.1199 240.128 99.6052C241.457 100.069 242.818 100.302 244.211 100.302C246.047 100.302 247.418 99.9956 248.326 99.3836C249.233 98.7506 249.687 97.9171 249.687 96.8831C249.687 96.1235 249.434 95.5115 248.927 95.0473C248.442 94.562 247.83 94.1927 247.091 93.9395C246.374 93.6862 245.35 93.4014 244.021 93.0849C242.354 92.6839 241.004 92.283 239.97 91.8821C238.957 91.4812 238.081 90.8692 237.342 90.0463C236.625 89.2022 236.266 88.0733 236.266 86.6595C236.266 85.4778 236.572 84.4122 237.184 83.4626C237.817 82.513 238.767 81.7534 240.033 81.1836C241.299 80.6139 242.871 80.329 244.749 80.329C246.057 80.329 247.345 80.4978 248.611 80.8355C249.877 81.1731 250.963 81.6584 251.871 82.2915L250.826 84.8236C249.898 84.2328 248.906 83.7897 247.851 83.4943C246.796 83.1777 245.762 83.0195 244.749 83.0195C242.955 83.0195 241.605 83.3465 240.698 84.0007C239.811 84.6548 239.368 85.4989 239.368 86.5329C239.368 87.2925 239.621 87.915 240.128 88.4003C240.634 88.8646 241.257 89.2338 241.995 89.5082C242.755 89.7614 243.778 90.0357 245.066 90.3311C246.733 90.7321 248.073 91.133 249.085 91.5339C250.098 91.9348 250.963 92.5468 251.681 93.3697C252.419 94.1927 252.789 95.3005 252.789 96.6932C252.789 97.8538 252.472 98.9194 251.839 99.8901C251.206 100.84 250.246 101.599 248.959 102.169C247.672 102.718 246.089 102.992 244.211 102.992Z" fill="white"/>
<path d="M50.8843 81.3368L50.8838 81.3366C50.1155 81.0104 49.5147 80.5775 49.0868 80.0352L49.0502 79.9888L49.0732 79.9343L49.5365 78.8364L49.6006 78.6847L49.7056 78.8114C50.0993 79.2859 50.6241 79.6754 51.2835 79.9783C51.942 80.268 52.6204 80.4125 53.3196 80.4125C54.3082 80.4125 55.0311 80.1968 55.5062 79.7827C55.9842 79.3534 56.2234 78.8033 56.2234 78.1241C56.2234 77.602 56.0897 77.1972 55.8323 76.8988L55.831 76.8974C55.5752 76.589 55.2581 76.3545 54.8784 76.1936L54.8758 76.1926C54.488 76.0156 53.9447 75.8246 53.2436 75.6197L53.2424 75.6193C52.3988 75.3619 51.723 75.1163 51.2165 74.8825L51.2146 74.8816C50.6983 74.63 50.2547 74.253 49.8839 73.7534L49.8831 73.7523C49.5154 73.2418 49.3369 72.5575 49.3369 71.7098C49.3369 71.0142 49.4895 70.3814 49.7961 69.8136C50.1045 69.2295 50.5776 68.7666 51.2109 68.4243C51.8471 68.0805 52.6315 67.9115 53.5592 67.9115C54.2096 67.9115 54.8438 68.0225 55.4613 68.2444M50.8843 81.3368L56.9625 76.1015M50.8843 81.3368C51.6634 81.6629 52.4755 81.8261 53.3196 81.8261C54.2469 81.8261 55.0357 81.6636 55.6819 81.3336L55.6833 81.3328C56.3266 80.991 56.8054 80.5349 57.1143 79.9632M50.8843 81.3368L57.0264 79.9154M55.4613 68.2444C56.0891 68.4533 56.6326 68.7478 57.0904 69.1289L57.1438 69.1733L57.1208 69.2389L56.7213 70.3754L56.6748 70.5079L56.5648 70.4205C56.1046 70.0548 55.614 69.7845 55.0931 69.6087L55.091 69.608C54.5682 69.4189 54.0578 69.325 53.5592 69.325C52.5935 69.325 51.8816 69.5529 51.4062 69.9919L51.4059 69.9921C50.9384 70.421 50.7033 70.9776 50.7033 71.6713C50.7033 72.1932 50.8317 72.6055 51.0798 72.9173C51.3461 73.2255 51.6738 73.4665 52.0643 73.6402C52.4755 73.8053 53.0255 73.9903 53.7155 74.195L53.7156 74.1951C54.5378 74.4397 55.2035 74.6853 55.7108 74.9323M55.4613 68.2444C55.4609 68.2443 55.4606 68.2442 55.4602 68.2441L55.4286 68.339L55.4625 68.2449C55.4621 68.2447 55.4617 68.2446 55.4613 68.2444ZM55.7108 74.9323C56.2384 75.1711 56.6827 75.5421 57.0433 76.0425M55.7108 74.9323C55.7113 74.9326 55.7117 74.9328 55.7121 74.933L55.6683 75.0229L55.7095 74.9318C55.7099 74.9319 55.7104 74.9321 55.7108 74.9323ZM57.0433 76.0425C57.0434 76.0427 57.0435 76.0429 57.0437 76.0431L56.9625 76.1015M57.0433 76.0425C57.0431 76.0424 57.043 76.0422 57.0429 76.0421L56.9625 76.1015M57.0433 76.0425C57.4114 76.5404 57.5898 77.2122 57.5898 78.047C57.5898 78.7433 57.4316 79.3827 57.1143 79.9632M56.9625 76.1015C57.314 76.5767 57.4898 77.2252 57.4898 78.047C57.4898 78.7276 57.3353 79.3504 57.0264 79.9154M57.1143 79.9632C57.1143 79.9631 57.1144 79.963 57.1144 79.963L57.0264 79.9154M57.1143 79.9632C57.1142 79.9633 57.1142 79.9633 57.1142 79.9634L57.0264 79.9154M48.3783 22.5807V22.6807H48.4783H52.3088V34.8313V34.9313H52.4088H53.5912H53.6912V34.8313V22.6807H57.5217H57.6217V22.5807V21.3479V21.2479H57.5217H48.4783H48.3783V21.3479V22.5807ZM48.3783 92.7494V92.8494H48.4783H52.3088V105V105.1H52.4088H53.5912H53.6912V105V92.8494H57.5217H57.6217V92.7494V91.5167V91.4167H57.5217H48.4783H48.3783V91.5167V92.7494Z" fill="white" stroke="white" stroke-width="0.2"/>
<path d="M39.0436 46.2173V46.1173H38.9436H37.5943H37.4943V46.2173V51.1558H29.5983V46.2173V46.1173H29.4983H28.1305H28.0305V46.2173V57.5216V57.6216H28.1305H29.4983H29.5983V57.5216V52.4055H37.4943V57.5216V57.6216H37.5943H38.9436H39.0436V57.5216V46.2173ZM57.9615 56.4881V56.3881H57.8615H50.1797V52.3893H56.7709H56.8709V52.2893V51.2719V51.1719H56.7709H50.1797V47.3508H57.5842H57.6842V47.2508V46.2173V46.1173H57.5842H48.7119H48.6119V46.2173V57.5216V57.6216H48.7119H57.8615H57.9615V57.5216V56.4881ZM65.9749 57.6216H66.0359L66.0639 57.5674L67.5886 54.6018H74.6753L76.2 57.5674L76.2279 57.6216H76.289H77.7307H77.8959L77.8193 57.4753L71.9045 46.1709L71.8764 46.1173H71.8158H70.4665H70.406L70.3779 46.1709L64.4631 57.4753L64.3865 57.6216H64.5517H65.9749ZM85.4163 46.1173H85.3163V46.2173V57.5216V57.6216H85.4163H94.0298H94.1298V57.5216V56.4881V56.3881H94.0298H86.8841V46.2173V46.1173H86.7841H85.4163ZM98.5034 47.2508V47.3508H98.6034H103.05V57.5216V57.6216H103.15H104.518H104.618V57.5216V47.3508H109.065H109.165V47.2508V46.2173V46.1173H109.065H98.6034H98.5034V46.2173V47.2508ZM127.709 46.2173V46.1173H127.609H126.259H126.159V46.2173V51.1558H118.263V46.2173V46.1173H118.163H116.796H116.696V46.2173V57.5216V57.6216H116.796H118.163H118.263V57.5216V52.4055H126.159V57.5216V57.6216H126.259H127.609H127.709V57.5216V46.2173ZM68.1901 53.4328L71.1319 47.6804L74.0738 53.4328H68.1901Z" fill="white" stroke="white" stroke-width="0.2"/>
<path fill-rule="evenodd" clip-rule="evenodd" d="M41.1602 40.1688V1H39.8215V40.1688H1V41.5195H39.8215H41.1602V40.1688ZM39.8215 64.4805H1V63.1299H41.1602V64.4805V105H39.8215V64.4805ZM63.9176 1V40.1688H102.739V41.5195H63.9176H62.5789V40.1688V1H63.9176ZM63.9176 64.4805V105H62.5789V64.4805V63.1299H102.739V64.4805H63.9176Z" fill="white" stroke="white"/>
</svg>
