<svg width="242" height="229" viewBox="0 0 242 229" fill="none" xmlns="http://www.w3.org/2000/svg">
<path d="M5.24586 27.7093L56.7076 14.2379C56.9051 14.185 57.1153 14.2098 57.295 14.3075C57.4746 14.4051 57.6099 14.568 57.6728 14.7625L67.8603 48.9235C67.8903 49.0272 67.8991 49.1358 67.8861 49.243C67.8731 49.3502 67.8387 49.4536 67.7848 49.5471C67.7309 49.6407 67.6588 49.7224 67.5726 49.7874C67.4864 49.8524 67.388 49.8993 67.2832 49.9254L13.8176 63.0033C13.7156 63.0291 13.6095 63.0342 13.5055 63.0186C13.4015 63.0029 13.3016 62.9666 13.2118 62.9119C13.1219 62.8572 13.0438 62.7852 12.9821 62.7C12.9204 62.6148 12.8763 62.5182 12.8523 62.4158L4.68455 28.6588C4.63773 28.4587 4.66996 28.2482 4.77454 28.0713C4.87912 27.8944 5.04797 27.7647 5.24586 27.7093Z" fill="#EBEBEB"/>
<path d="M4.50098 27.9087L24.4352 1.20208C24.8469 0.648239 25.438 0.254469 26.1078 0.0879985C26.7775 -0.0784725 27.4842 -0.0073238 28.1073 0.2893L57.484 14.0387" fill="#EBEBEB"/>
<path d="M7.67469 29.1991L4.65833 17.6687L51.5457 5.75537L54.6617 17.6005L36.1544 41.8206L7.67469 29.1991Z" fill="#FAFAFA"/>
<path d="M7.67466 29.1834L8.19924 29.409L9.71529 30.0752L15.4857 32.6195L36.1963 41.7735H36.1439L54.646 17.5481V17.5901C54.2053 15.9114 53.7332 14.1226 53.2611 12.3443C52.6735 10.12 52.0965 7.91677 51.5299 5.77122L51.5876 5.80794L4.66354 17.695V17.6636C5.60779 21.3042 6.35795 24.1894 6.87204 26.1618C7.12909 27.148 7.32319 27.9034 7.45433 28.4175C7.52253 28.6746 7.56974 28.8687 7.60646 28.9998L7.65367 29.1992C7.65367 29.1992 7.65368 29.1362 7.60122 29.0051L7.44384 28.428C7.30745 27.9034 7.10811 27.1585 6.84581 26.1776C6.32123 24.2051 5.57107 21.3199 4.61108 17.674L51.4985 5.73975H51.5404V5.78696C52.1017 7.93251 52.684 10.1305 53.2663 12.3548C53.7437 14.1593 54.2106 15.9482 54.6512 17.6006L36.1963 41.8469H36.1649L15.4542 32.6719L9.68382 30.1067L8.17301 29.4352L7.67466 29.1834Z" fill="#E0E0E0"/>
<path d="M41.5733 16.2262C41.5733 16.2262 36.3275 17.6531 29.8383 19.3737C23.3492 21.0944 18.0876 22.4425 18.0824 22.4163C18.0772 22.3901 23.3282 20.9894 29.8121 19.2688C36.296 17.5482 41.5628 16.2 41.5733 16.2262Z" fill="#E0E0E0"/>
<path d="M47.0448 20.5804C47.0448 20.6066 39.9576 22.4741 31.2076 24.777C22.4575 27.08 15.3599 28.8845 15.3494 28.8583C15.3389 28.8321 22.4313 26.9646 31.1866 24.6616C39.9419 22.3587 47.0343 20.5541 47.0448 20.5804Z" fill="#E0E0E0"/>
<path d="M48.4139 25.9783C48.4139 25.9783 41.6573 27.7881 33.3112 29.9599C24.965 32.1317 18.1874 33.9048 18.1769 33.8523C18.1664 33.7999 24.9335 32.0425 33.2849 29.8707C41.6363 27.699 48.4087 25.9521 48.4139 25.9783Z" fill="#E0E0E0"/>
<path d="M43.6769 32.2207H43.6297L43.4933 32.2574L42.9687 32.4096L41.0173 32.9341L34.5492 34.6915C32.0311 35.3735 29.744 35.9715 28.0863 36.3964L26.1243 36.921L25.5997 37.0521L25.4581 37.0836H25.4109C25.4109 37.0836 25.4109 37.0836 25.4581 37.0836L25.5945 37.0469L26.1191 36.9L28.0758 36.3754L34.5334 34.639C37.0514 33.9571 39.3386 33.3591 40.9911 32.9341L42.9582 32.4358L43.4828 32.3046L43.6192 32.2732L43.6769 32.2207Z" fill="#E0E0E0"/>
<path d="M38.8508 38.2955C38.8508 38.2955 37.3452 38.7257 35.4777 39.2031C33.6102 39.6804 32.0889 40.0424 32.0836 40.0162C32.0784 39.9899 33.5839 39.586 35.4567 39.1086C37.3295 38.6313 38.8455 38.2693 38.8508 38.2955Z" fill="#E0E0E0"/>
<path d="M67.7449 49.6423C67.6908 49.6479 67.6363 49.6479 67.5822 49.6423L67.1154 49.5321L65.3108 49.081L58.6958 47.3761L48.8965 44.8109L43.1261 43.2843L40.0625 42.4765L39.2861 42.2719C39.0238 42.2037 38.7616 42.1303 38.5045 42.0726C37.9865 41.9695 37.4557 41.9465 36.9308 42.0044C35.8716 42.1257 34.8781 42.5793 34.0927 43.3001L31.7793 45.4456L27.4515 49.5741L20.1073 56.5563L15.1395 61.2461L13.7808 62.5104L13.4189 62.8356L13.293 62.9405C13.293 62.9405 13.3244 62.8933 13.3979 62.8146L13.7389 62.4684L15.0608 61.1832L19.9657 56.4304L27.2784 49.401L31.5957 45.2568L33.8882 43.0693C34.7168 42.3078 35.7655 41.8285 36.8835 41.7001C37.4417 41.6348 38.0067 41.6596 38.557 41.7735C38.835 41.8365 39.0815 41.9047 39.3543 41.9729L40.1307 42.1827C41.1799 42.4555 42.1189 43.0011 43.1208 43.2634C45.1248 43.7879 47.1287 44.045 48.97 44.5329L58.7587 47.1558L65.3475 48.9446L67.1363 49.4692L67.6032 49.6056C67.6976 49.6423 67.7501 49.6423 67.7449 49.6423Z" fill="#E0E0E0"/>
<path d="M21.2037 111.438C22.9333 110.99 24.4935 110.044 25.6915 108.718C26.8895 107.392 27.6728 105.745 27.9446 103.979C28.7787 99.0004 25.6784 94.3316 21.0096 93.5395C16.3408 92.7473 11.8871 96.1624 11.0425 101.125C10.7164 102.897 10.9226 104.726 11.6349 106.382C12.3473 108.037 13.5339 109.444 15.0451 110.426C1.72064 110.253 0 124.49 0 124.49L30.7407 129.683C30.7407 129.683 33.778 115.504 21.2037 111.438Z" fill="#EBEBEB"/>
<path d="M217.514 1.20827L166.35 20.8894L179.614 55.3727L230.779 35.6915L217.514 1.20827Z" fill="#EBEBEB"/>
<path d="M217.834 1.55884C217.758 1.7842 217.658 2.00057 217.535 2.20408L216.59 4.0034L213.034 10.566L201.11 32.1946L201.01 32.3729L200.816 32.31L200.344 32.1579L176.502 24.5356L169.294 22.175L167.342 21.5035C167.111 21.436 166.887 21.3483 166.671 21.2413C166.91 21.276 167.145 21.3322 167.374 21.4091L169.357 21.9862L176.612 24.1999L200.496 31.6857L200.968 31.8326L200.674 31.9533L212.74 10.3928L216.412 3.90373C216.837 3.17456 217.178 2.59227 217.461 2.15162C217.57 1.94508 217.695 1.74694 217.834 1.55884Z" fill="#E0E0E0"/>
<path d="M179.933 55.7273C179.807 55.6801 181.832 49.4742 184.465 41.8625C187.098 34.2508 189.338 28.1184 189.47 28.1604C189.601 28.2023 187.571 34.4134 184.937 42.0251C182.304 49.6369 180.069 55.7693 179.933 55.7273Z" fill="#E0E0E0"/>
<path d="M206.314 21.1888C206.382 21.0734 211.99 24.2996 218.836 28.4018C225.682 32.5041 231.174 35.9244 231.101 36.045C231.027 36.1657 225.425 32.9342 218.579 28.832C211.733 24.7297 206.241 21.3147 206.314 21.1888Z" fill="#E0E0E0"/>
<path d="M203.172 80.0112L200.355 103.956L235.882 108.136L238.699 84.1908L203.172 80.0112Z" fill="#EBEBEB"/>
<path d="M238.791 84.5061C238.676 84.6109 238.552 84.7041 238.419 84.7842L237.327 85.5343L233.283 88.2464L219.801 97.1119L219.691 97.1853L219.596 97.0909L219.371 96.8601L207.919 85.2143C206.482 83.735 205.296 82.5232 204.478 81.6576L203.549 80.6819C203.438 80.5721 203.336 80.4527 203.245 80.3252C203.372 80.4166 203.49 80.5203 203.597 80.6347L204.567 81.5685L208.082 85.0517L219.623 96.6345L219.848 96.8601H219.644L233.157 88.0786L237.259 85.4556L238.387 84.7579C238.513 84.6602 238.648 84.5758 238.791 84.5061Z" fill="#E0E0E0"/>
<path d="M200.449 104.267C200.386 104.204 203.444 101.235 207.269 97.6418C211.093 94.0484 214.261 91.1842 214.324 91.2471C214.387 91.3101 211.329 94.2792 207.505 97.8779C203.68 101.477 200.507 104.336 200.449 104.267Z" fill="#E0E0E0"/>
<path d="M226.169 92.3381C226.248 92.2909 228.504 95.8633 231.211 100.312C233.917 104.76 236.063 108.396 235.969 108.448C235.874 108.501 233.639 104.928 230.933 100.48C228.226 96.0312 226.096 92.3853 226.169 92.3381Z" fill="#E0E0E0"/>
<path d="M228.032 177.992C230.697 176.618 233.828 176.419 236.782 176.943C238.356 177.206 240.024 177.683 241.104 178.874C242.185 180.065 242.39 182.163 241.152 183.191C240.412 183.8 239.384 183.894 238.424 183.878C236.11 183.852 233.545 183.448 231.699 184.838C230.649 185.63 229.941 186.937 228.682 187.341C228.052 187.487 227.39 187.423 226.799 187.16C226.207 186.897 225.717 186.448 225.404 185.882C224.802 184.724 224.669 183.38 225.031 182.126C225.178 181.252 225.526 180.424 226.046 179.707C226.567 178.99 227.246 178.403 228.032 177.992Z" fill="#EBEBEB"/>
<path d="M221.936 166.221C223.562 168.545 226.725 167.794 228.194 166.357C229.663 164.92 230.293 162.884 230.843 160.922C232.134 156.442 233.43 151.742 232.475 147.183C232.243 145.799 231.635 144.505 230.717 143.443C230.253 142.922 229.659 142.532 228.996 142.312C228.334 142.092 227.625 142.05 226.94 142.189C225.367 142.609 224.354 144.172 223.636 145.657C221.525 150.044 220.42 154.847 220.399 159.716C220.399 161.977 220.661 164.353 221.936 166.221Z" fill="#EBEBEB"/>
<path d="M217.466 169.557C219.234 167.459 219.565 164.4 218.783 161.777C218.002 159.154 216.223 156.915 214.172 155.089C211.765 152.944 208.962 151.29 205.92 150.221C204.743 149.744 203.476 149.527 202.206 149.586C201.573 149.623 200.958 149.814 200.416 150.143C199.874 150.472 199.42 150.93 199.096 151.475C198.225 153.127 199.059 155.147 199.956 156.778C201.545 159.673 203.359 162.439 205.38 165.051C207.006 167.149 208.863 169.211 211.339 170.155C213.815 171.099 216.391 170.979 217.703 169.247" fill="#EBEBEB"/>
<path d="M221.826 201.284C221.911 200.94 221.96 200.589 221.973 200.235C222.046 199.469 222.141 198.504 222.256 197.355C222.398 195.935 222.613 194.524 222.901 193.127C223.278 191.425 223.792 189.757 224.438 188.138C225.07 186.519 225.928 184.998 226.988 183.621C227.849 182.5 228.949 181.586 230.209 180.946C231.062 180.521 231.977 180.235 232.921 180.101C233.275 180.086 233.626 180.035 233.97 179.949C233.621 179.91 233.269 179.91 232.921 179.949C231.942 180.02 230.983 180.269 230.093 180.683C228.766 181.308 227.602 182.233 226.694 183.385C225.597 184.782 224.713 186.335 224.071 187.991C223.416 189.632 222.905 191.328 222.544 193.058C222.271 194.473 222.083 195.902 221.983 197.339C221.894 198.567 221.857 199.558 221.842 200.24C221.799 200.586 221.794 200.936 221.826 201.284Z" fill="#E0E0E0"/>
<path d="M222.025 199.065C222.056 198.903 222.065 198.737 222.052 198.572V197.171C222.052 195.954 222.052 194.197 222.109 192.025C222.219 187.676 222.592 182.997 223.316 176.403C224.003 170.202 224.921 162.984 225.891 158.294C226.096 157.245 226.306 156.269 226.505 155.425C226.705 154.58 226.851 153.851 227.03 153.269C227.208 152.687 227.271 152.267 227.355 151.905C227.403 151.748 227.431 151.586 227.439 151.422C227.37 151.571 227.313 151.725 227.271 151.884C227.166 152.235 227.03 152.681 226.862 153.227C226.694 153.772 226.5 154.528 226.285 155.367C226.07 156.206 225.818 157.182 225.571 158.231C224.372 163.775 223.47 169.378 222.87 175.018C222.141 181.628 221.821 187.645 221.789 192.004C221.763 194.181 221.789 195.944 221.863 197.161C221.899 197.733 221.926 198.21 221.952 198.561C221.954 198.732 221.978 198.901 222.025 199.065Z" fill="#E0E0E0"/>
<path d="M222.051 187.456C222.092 186.969 222.092 186.479 222.051 185.992C221.97 184.664 221.821 183.34 221.606 182.026C221.284 180.08 220.853 178.154 220.315 176.256C219.687 173.924 218.88 171.644 217.902 169.436C216.223 165.354 213.818 161.609 210.804 158.383C210.281 157.833 209.724 157.316 209.136 156.836C208.879 156.616 208.654 156.401 208.423 156.227L207.772 155.782C207.383 155.487 206.971 155.224 206.539 154.995C206.471 155.089 208.286 156.159 210.579 158.599C213.497 161.849 215.837 165.575 217.498 169.615C218.459 171.815 219.273 174.078 219.932 176.387C220.562 178.512 220.981 180.463 221.301 182.11C221.621 183.758 221.779 185.101 221.884 186.034C221.907 186.511 221.963 186.986 222.051 187.456Z" fill="#E0E0E0"/>
<path d="M210.836 207.93L212 223.862H232.464L233.629 207.93H210.836Z" fill="#E0E0E0"/>
<path d="M236.068 201.651H208.858V207.93H236.068V201.651Z" fill="#E0E0E0"/>
<path d="M208.858 223.254V224.995H210.138H235.622V223.254H208.858Z" fill="#EBEBEB"/>
<path d="M211.392 228.059L210.138 224.995H234.647L233.183 228.059H211.392Z" fill="#E0E0E0"/>
<path d="M233.251 213.14C233.223 213.191 233.189 213.24 233.152 213.286L232.847 213.69L231.657 215.217L231.604 215.285L231.552 215.212C230.802 214.162 229.8 212.793 228.625 211.162H228.792L225.907 215.243L225.818 215.374L225.713 215.254C224.664 213.984 223.494 212.631 222.293 211.183H222.492L222.303 211.424L219.245 215.254L219.145 215.385L219.051 215.248L216.166 211.167H216.334L212.777 215.217L212.714 215.285L212.667 215.206L211.555 213.334L211.271 212.841C211.236 212.784 211.206 212.724 211.182 212.662C211.182 212.662 211.229 212.709 211.303 212.82L211.618 213.297L212.787 215.133H212.672L216.171 211.036L216.26 210.931L216.339 211.046L219.25 215.107H219.056L222.104 211.267L222.293 211.031L222.392 210.91L222.492 211.031L225.902 215.107H225.708L228.625 211.046L228.709 210.926L228.792 211.046L231.657 215.143H231.552L232.795 213.659L233.125 213.271C233.204 213.176 233.246 213.134 233.251 213.14Z" fill="#F5F5F5"/>
<path d="M233.912 207.826C233.912 207.894 228.787 207.952 222.46 207.952C216.134 207.952 211.009 207.894 211.009 207.826C211.009 207.757 216.134 207.7 222.46 207.7C228.787 207.7 233.912 207.757 233.912 207.826Z" fill="#F5F5F5"/>
<path d="M234.951 225.163C234.951 225.236 229.375 225.294 222.503 225.294C215.631 225.294 210.054 225.236 210.054 225.163C210.054 225.09 215.625 225.037 222.503 225.037C229.38 225.037 234.951 225.095 234.951 225.163Z" fill="#F5F5F5"/>
<path d="M141.785 227.356L59.9496 227.398C56.7854 227.399 53.7501 226.144 51.5111 223.908C49.2722 221.672 48.0129 218.638 48.0101 215.474L47.9157 31.1297C47.9143 29.3436 48.2648 27.5748 48.9472 25.9242C49.6295 24.2737 50.6304 22.7737 51.8926 21.51C53.1548 20.2464 54.6536 19.2438 56.3034 18.5595C57.9532 17.8752 59.7216 17.5226 61.5076 17.5219L141.832 17.48C145.032 17.48 148.101 18.7512 150.364 21.0139C152.626 23.2766 153.897 26.3455 153.897 29.5454L153.997 215.154C153.994 218.391 152.707 221.495 150.417 223.783C148.127 226.071 145.022 227.356 141.785 227.356Z" fill="#455A64"/>
<path d="M49.6729 211.214L49.5785 33.7001C49.5854 29.8572 51.1165 26.1741 53.8358 23.4587C56.5551 20.7434 60.2404 19.2177 64.0833 19.2163L137.703 19.1743C139.609 19.1729 141.497 19.5471 143.258 20.2753C145.02 21.0036 146.62 22.0717 147.969 23.4186C149.317 24.7656 150.387 26.365 151.117 28.1255C151.847 29.886 152.223 31.7732 152.224 33.6791L152.318 211.193C152.32 213.099 151.946 214.987 151.217 216.748C150.489 218.509 149.421 220.11 148.074 221.458C146.727 222.807 145.128 223.877 143.367 224.607C141.607 225.337 139.72 225.713 137.814 225.714L64.1934 225.756C62.2846 225.756 60.3944 225.381 58.631 224.65C56.8676 223.919 55.2657 222.848 53.9169 221.497C52.5681 220.146 51.499 218.543 50.7708 216.778C50.0425 215.014 49.6695 213.123 49.6729 211.214Z" fill="#263238"/>
<path d="M93.2869 25.7895C92.9738 25.7895 92.6736 25.6652 92.4523 25.4438C92.2309 25.2225 92.1066 24.9222 92.1066 24.6092C92.1066 24.2962 92.2309 23.996 92.4523 23.7746C92.6736 23.5532 92.9738 23.4289 93.2869 23.4289H108.442C108.603 23.4181 108.765 23.4406 108.917 23.4949C109.07 23.5492 109.209 23.6342 109.327 23.7446C109.445 23.855 109.539 23.9885 109.604 24.1368C109.668 24.2851 109.701 24.445 109.701 24.6066C109.701 24.7682 109.668 24.9281 109.604 25.0764C109.539 25.2247 109.445 25.3581 109.327 25.4685C109.209 25.579 109.07 25.664 108.917 25.7183C108.765 25.7726 108.603 25.795 108.442 25.7843L93.2869 25.7895Z" fill="#455A64"/>
<path d="M85.1611 25.7947C84.9275 25.7957 84.6988 25.7274 84.504 25.5983C84.3092 25.4693 84.1571 25.2853 84.0669 25.0697C83.9768 24.8541 83.9527 24.6167 83.9976 24.3874C84.0426 24.158 84.1546 23.9472 84.3194 23.7816C84.4843 23.6161 84.6946 23.5031 84.9237 23.4571C85.1528 23.4112 85.3904 23.4342 85.6064 23.5234C85.8223 23.6126 86.007 23.7639 86.1369 23.9581C86.2669 24.1523 86.3362 24.3807 86.3362 24.6144C86.3362 24.9265 86.2126 25.2259 85.9924 25.4471C85.7721 25.6683 85.4733 25.7933 85.1611 25.7947Z" fill="#455A64"/>
<path d="M89.4994 25.7893C89.2657 25.7904 89.037 25.722 88.8422 25.593C88.6474 25.4639 88.4953 25.2799 88.4052 25.0643C88.3151 24.8488 88.2909 24.6113 88.3359 24.382C88.3808 24.1527 88.4928 23.9419 88.6577 23.7763C88.8226 23.6107 89.0329 23.4977 89.262 23.4518C89.4911 23.4058 89.7286 23.4289 89.9446 23.5181C90.1606 23.6072 90.3453 23.7585 90.4752 23.9527C90.6051 24.1469 90.6745 24.3753 90.6745 24.609C90.6745 24.9211 90.5508 25.2206 90.3306 25.4418C90.1104 25.663 89.8115 25.7879 89.4994 25.7893Z" fill="#455A64"/>
<path d="M116.636 25.7737C116.402 25.7737 116.174 25.7044 115.98 25.5744C115.786 25.4445 115.634 25.2598 115.545 25.0439C115.456 24.8279 115.433 24.5903 115.479 24.3612C115.525 24.1321 115.638 23.9218 115.803 23.7569C115.969 23.5921 116.18 23.4801 116.409 23.4351C116.638 23.3902 116.876 23.4143 117.091 23.5044C117.307 23.5946 117.491 23.7467 117.62 23.9415C117.749 24.1363 117.817 24.365 117.816 24.5986C117.816 24.7534 117.786 24.9066 117.726 25.0495C117.667 25.1925 117.58 25.3222 117.47 25.4314C117.361 25.5406 117.231 25.627 117.087 25.6858C116.944 25.7445 116.791 25.7744 116.636 25.7737Z" fill="#455A64"/>
<path d="M112.298 25.7788C112.065 25.7788 111.836 25.7096 111.642 25.5799C111.448 25.4502 111.297 25.2659 111.208 25.0502C111.118 24.8345 111.095 24.5972 111.14 24.3683C111.186 24.1393 111.298 23.929 111.463 23.7639C111.628 23.5988 111.839 23.4864 112.068 23.4409C112.297 23.3953 112.534 23.4187 112.75 23.5081C112.965 23.5974 113.15 23.7487 113.279 23.9428C113.409 24.1369 113.478 24.3651 113.478 24.5985C113.479 24.7537 113.449 24.9075 113.39 25.051C113.331 25.1946 113.244 25.3249 113.134 25.4347C113.024 25.5444 112.894 25.6313 112.75 25.6904C112.607 25.7495 112.453 25.7795 112.298 25.7788Z" fill="#455A64"/>
<path d="M138.49 21.5823H124.222C123.549 21.582 122.894 21.7995 122.355 22.2023C121.816 22.6052 121.422 23.1716 121.232 23.817L120.067 27.8144C119.857 28.5373 119.417 29.1723 118.814 29.6237C118.211 30.075 117.478 30.3182 116.725 30.3166H85.114C84.3614 30.3171 83.6289 30.0742 83.0257 29.6242C82.4225 29.1742 81.981 28.5411 81.7671 27.8196L80.5973 23.8223C80.4075 23.177 80.0134 22.6107 79.4742 22.2086C78.935 21.8066 78.2798 21.5905 77.6072 21.5928H63.328C60.3223 21.5872 57.4375 22.7755 55.3077 24.8964C53.178 27.0173 51.9777 29.8972 51.9707 32.9028L52.0651 211.587C52.0699 213.075 52.3678 214.547 52.9417 215.92C53.5156 217.293 54.3543 218.54 55.4099 219.588C56.4655 220.637 57.7173 221.468 59.0939 222.033C60.4705 222.598 61.9449 222.886 63.4329 222.881L138.58 222.844C141.585 222.85 144.47 221.662 146.6 219.541C148.73 217.42 149.93 214.54 149.937 211.534L149.842 32.8556C149.827 29.8568 148.624 26.9864 146.496 24.8732C144.368 22.7601 141.489 21.5767 138.49 21.5823Z" fill="#FAFAFA"/>
<path d="M153.908 63.0874C154.093 63.0888 154.269 63.1627 154.4 63.2933C154.53 63.4238 154.604 63.6005 154.606 63.7851V86.5153C154.606 86.6995 154.533 86.8762 154.403 87.0068C154.273 87.1375 154.097 87.2117 153.913 87.213L153.908 63.0874Z" fill="#455A64"/>
<path d="M47.9313 78.0117C47.7407 78.0117 47.5579 78.0874 47.4231 78.2222C47.2884 78.357 47.2126 78.5398 47.2126 78.7304V92.5637C47.214 92.7548 47.2909 92.9376 47.4265 93.0722C47.5621 93.2068 47.7455 93.2824 47.9366 93.2824L47.9313 78.0117Z" fill="#455A64"/>
<path d="M47.9208 58.0356C47.826 58.0356 47.7321 58.0544 47.6446 58.0909C47.5571 58.1273 47.4776 58.1807 47.4108 58.248C47.344 58.3153 47.2912 58.3951 47.2554 58.4829C47.2196 58.5707 47.2015 58.6648 47.2022 58.7596V72.5876C47.2035 72.7792 47.2803 72.9625 47.4157 73.098C47.5512 73.2335 47.7345 73.3102 47.9261 73.3115L47.9208 58.0356Z" fill="#455A64"/>
<path d="M47.9156 43.0798C47.7501 43.0798 47.5913 43.1456 47.4742 43.2627C47.3572 43.3797 47.2914 43.5385 47.2914 43.7041V49.5637C47.2914 49.6454 47.3076 49.7264 47.339 49.8018C47.3704 49.8773 47.4165 49.9457 47.4745 50.0033C47.5326 50.0608 47.6014 50.1063 47.6771 50.1371C47.7528 50.1679 47.8339 50.1834 47.9156 50.1827V43.0798Z" fill="#455A64"/>
<path d="M126.803 27.3999H126.073V28.4228H126.803V27.3999Z" fill="white"/>
<path d="M127.988 26.9436H127.259V28.4177H127.988V26.9436Z" fill="white"/>
<path d="M129.174 26.6025H128.445V28.4176H129.174V26.6025Z" fill="white"/>
<path d="M130.359 25.9417H129.63V28.4177H130.359V25.9417Z" fill="white"/>
<path d="M141.113 28.4649H137.441C137.407 28.4656 137.373 28.4595 137.341 28.4469C137.309 28.4342 137.281 28.4154 137.256 28.3915C137.232 28.3675 137.212 28.339 137.199 28.3074C137.186 28.2759 137.179 28.242 137.179 28.2078V26.3875C137.179 26.3189 137.206 26.2529 137.254 26.2039C137.302 26.1549 137.367 26.1266 137.436 26.1252H141.108C141.126 26.1265 141.142 26.134 141.155 26.1466C141.167 26.1591 141.175 26.1758 141.176 26.1934V26.7915H141.57C141.578 26.7914 141.587 26.7932 141.595 26.7967C141.603 26.8002 141.61 26.8053 141.616 26.8117C141.622 26.8181 141.627 26.8257 141.629 26.834C141.632 26.8422 141.633 26.851 141.633 26.8597V27.7305C141.633 27.7486 141.625 27.7659 141.613 27.7787C141.6 27.7915 141.583 27.7987 141.564 27.7987H141.171V28.3967C141.172 28.405 141.171 28.4133 141.168 28.4212C141.166 28.4291 141.162 28.4365 141.156 28.4428C141.151 28.4491 141.144 28.4544 141.137 28.4581C141.13 28.4619 141.122 28.4642 141.113 28.4649ZM141.045 26.2564H137.441C137.408 26.2564 137.376 26.2697 137.352 26.2933C137.329 26.3169 137.315 26.3489 137.315 26.3823V28.2026C137.315 28.236 137.329 28.268 137.352 28.2916C137.376 28.3152 137.408 28.3285 137.441 28.3285H141.029V27.7305C141.029 27.7138 141.036 27.6978 141.048 27.686C141.06 27.6742 141.076 27.6675 141.092 27.6675H141.486V26.9226H141.113C141.097 26.9226 141.081 26.916 141.069 26.9042C141.057 26.8924 141.05 26.8764 141.05 26.8597L141.045 26.2564Z" fill="white"/>
<path d="M137.62 28.0347V26.5607L140.741 26.5554V27.2216V27.3685V28.0347H137.62Z" fill="white"/>
<path d="M133.843 28.3286C133.843 28.2757 133.827 28.2239 133.798 28.1799C133.768 28.1359 133.726 28.1016 133.678 28.0814C133.629 28.0612 133.575 28.0559 133.523 28.0662C133.471 28.0765 133.423 28.102 133.386 28.1394C133.349 28.1768 133.323 28.2245 133.313 28.2764C133.302 28.3283 133.308 28.3821 133.328 28.431C133.348 28.4798 133.383 28.5216 133.427 28.551C133.471 28.5804 133.522 28.5961 133.575 28.5961C133.646 28.5961 133.714 28.5679 133.764 28.5178C133.815 28.4676 133.843 28.3995 133.843 28.3286Z" fill="white"/>
<path d="M132.662 27.6884L133.003 28.0241C133.156 27.8735 133.361 27.7891 133.575 27.7891C133.789 27.7891 133.995 27.8735 134.147 28.0241L134.488 27.6831C134.245 27.4421 133.917 27.3064 133.575 27.3054C133.405 27.3057 133.237 27.3398 133.08 27.4055C132.924 27.4712 132.782 27.5674 132.662 27.6884Z" fill="white"/>
<path d="M133.575 26.5606C133.032 26.5611 132.512 26.776 132.127 27.1586L132.468 27.4996C132.763 27.208 133.161 27.0445 133.575 27.0445C133.99 27.0445 134.387 27.208 134.682 27.4996L135.023 27.1586C134.833 26.9682 134.607 26.8174 134.359 26.7147C134.11 26.6121 133.844 26.5597 133.575 26.5606Z" fill="white"/>
<path d="M131.571 26.5973L131.912 26.9382C132.129 26.718 132.388 26.5433 132.674 26.4243C132.959 26.3054 133.266 26.2447 133.575 26.2458C134.198 26.2463 134.796 26.4934 135.238 26.933L135.579 26.592C135.316 26.3287 135.003 26.1198 134.66 25.9773C134.316 25.8348 133.947 25.7615 133.575 25.7615C133.203 25.7615 132.834 25.8348 132.49 25.9773C132.147 26.1198 131.834 26.3287 131.571 26.592V26.5973Z" fill="white"/>
<path d="M110.378 71.6212C110.378 71.6946 98.9419 71.6631 84.8358 71.5477C70.7298 71.4323 59.2781 71.3012 59.2781 71.2015C59.2781 71.1018 70.7088 71.1595 84.8201 71.2749C98.9314 71.3904 110.378 71.5425 110.378 71.6212Z" fill="#E0E0E0"/>
<path d="M149.454 53.7551C149.454 53.8286 127.605 53.7132 100.668 53.4928C73.7304 53.2725 51.8815 53.0312 51.8815 52.9683C51.8815 52.9053 73.7252 53.0102 100.668 53.2306C127.611 53.4509 149.459 53.6817 149.454 53.7551Z" fill="#E0E0E0"/>
<path d="M149.171 88.7029C149.171 88.7816 127.317 88.6609 100.385 88.4406C73.4523 88.2203 51.5981 87.979 51.5981 87.916C51.5981 87.8531 73.4471 87.958 100.385 88.1783C127.322 88.3986 149.171 88.6295 149.171 88.7029Z" fill="#E0E0E0"/>
<path d="M69.5631 146.022C72.2038 143.381 72.2038 139.1 69.5631 136.459C66.9225 133.818 62.6411 133.818 60.0004 136.459C57.3597 139.1 57.3597 143.381 60.0004 146.022C62.6411 148.662 66.9225 148.662 69.5631 146.022Z" fill="#E0E0E0"/>
<path d="M105.342 136.089C105.342 136.162 99.0731 136.172 91.3355 136.089C83.5979 136.005 77.3239 135.915 77.3239 135.837C77.3239 135.758 83.6189 135.753 91.3355 135.837C99.0522 135.921 105.347 136.015 105.342 136.089Z" fill="#263238"/>
<path d="M128.209 142.494C128.209 142.567 116.773 142.536 102.667 142.42C88.5605 142.305 77.1245 142.148 77.1245 142.074C77.1245 142.001 88.5605 142.032 102.672 142.148C116.783 142.263 128.209 142.426 128.209 142.494Z" fill="#E0E0E0"/>
<path d="M128.167 147.546C128.167 147.619 116.731 147.588 102.625 147.472C88.5185 147.357 77.0825 147.199 77.0878 147.126C77.093 147.052 88.5185 147.084 102.63 147.199C116.741 147.315 128.167 147.467 128.167 147.546Z" fill="#E0E0E0"/>
<path d="M143.243 135.118C143.243 135.197 140.772 135.233 137.719 135.213C134.666 135.192 132.201 135.102 132.201 135.029C132.201 134.955 134.671 134.914 137.725 134.94C140.778 134.966 143.243 135.045 143.243 135.118Z" fill="#263238"/>
<path d="M112.801 136.037C112.938 135.35 112.491 134.681 111.804 134.545C111.116 134.408 110.448 134.855 110.311 135.542C110.175 136.23 110.621 136.898 111.309 137.035C111.997 137.172 112.665 136.725 112.801 136.037Z" fill="#5DC0CC"/>
<path d="M148.882 123.535C148.882 123.609 127.033 123.493 100.096 123.273C73.1586 123.053 51.3097 122.811 51.3097 122.748C51.3097 122.685 73.1534 122.79 100.096 123.011C127.039 123.231 148.888 123.462 148.882 123.535Z" fill="#E0E0E0"/>
<path d="M148.599 158.483C148.599 158.562 127.091 158.42 100.552 158.168C74.0137 157.917 52.5057 157.644 52.5057 157.581C52.5057 157.518 74.0137 157.644 100.558 157.896C127.102 158.147 148.599 158.41 148.599 158.483Z" fill="#E0E0E0"/>
<path d="M71.0026 207.658C70.9911 208.995 70.5835 210.298 69.8312 211.404C69.079 212.509 68.0159 213.367 66.7763 213.868C65.5367 214.37 64.1763 214.492 62.8671 214.221C61.5578 213.949 60.3585 213.295 59.4207 212.342C58.483 211.389 57.8489 210.179 57.5985 208.866C57.3482 207.552 57.493 206.194 58.0144 204.963C58.5359 203.731 59.4107 202.682 60.5283 201.948C61.6459 201.214 62.956 200.828 64.2931 200.838C66.087 200.853 67.8014 201.58 69.0595 202.859C70.3176 204.138 71.0165 205.864 71.0026 207.658Z" fill="#E0E0E0"/>
<path d="M104.802 202.454C104.802 202.527 98.5065 202.538 90.7899 202.454C83.0732 202.37 76.7834 202.281 76.7834 202.202C76.7834 202.123 83.0785 202.118 90.7951 202.202C98.5117 202.286 104.802 202.38 104.802 202.454Z" fill="#263238"/>
<path d="M127.663 208.87C127.663 208.943 116.227 208.912 102.126 208.796C88.0253 208.681 76.5841 208.523 76.5841 208.45C76.5841 208.376 88.02 208.408 102.126 208.523C116.232 208.639 127.663 208.791 127.663 208.87Z" fill="#E0E0E0"/>
<path d="M127.621 213.906C127.621 213.984 116.185 213.953 102.084 213.837C87.9834 213.722 76.5422 213.565 76.5422 213.491C76.5422 213.418 87.9782 213.444 102.084 213.559C116.19 213.675 127.626 213.837 127.621 213.906Z" fill="#E0E0E0"/>
<path d="M142.687 201.483C142.687 201.557 140.216 201.599 137.168 201.572C134.121 201.546 131.645 201.468 131.645 201.394C131.645 201.321 134.121 201.279 137.168 201.3C140.216 201.321 142.687 201.41 142.687 201.483Z" fill="#263238"/>
<path d="M112.261 202.15C112.259 202.401 112.183 202.645 112.041 202.853C111.9 203.061 111.701 203.222 111.468 203.316C111.235 203.41 110.98 203.433 110.734 203.382C110.488 203.331 110.263 203.208 110.087 203.029C109.911 202.85 109.792 202.623 109.745 202.376C109.698 202.13 109.725 201.875 109.823 201.644C109.921 201.412 110.085 201.215 110.295 201.078C110.505 200.94 110.751 200.867 111.002 200.87C111.169 200.871 111.334 200.905 111.487 200.97C111.641 201.035 111.78 201.13 111.897 201.249C112.014 201.368 112.106 201.508 112.169 201.663C112.231 201.817 112.263 201.983 112.261 202.15Z" fill="#5DC0CC"/>
<path d="M149.712 88.7109L52.4314 87.9128L52.1447 122.859L149.426 123.658L149.712 88.7109Z" fill="#F5F5F5"/>
<path d="M70.0503 110.452C72.691 107.811 72.691 103.529 70.0503 100.889C67.4096 98.2481 63.1282 98.2481 60.4876 100.889C57.8469 103.529 57.8469 107.811 60.4876 110.452C63.1282 113.092 67.4096 113.092 70.0503 110.452Z" fill="#455A64"/>
<path d="M105.83 100.527C105.83 100.606 99.5347 100.616 91.8233 100.553C84.1119 100.49 77.8116 100.375 77.8116 100.301C77.8116 100.228 84.1067 100.212 91.8233 100.301C99.5399 100.391 105.83 100.443 105.83 100.527Z" fill="#263238"/>
<path d="M128.696 106.932C128.696 107.011 117.26 106.974 103.154 106.859C89.0483 106.743 77.6123 106.591 77.6123 106.513C77.6123 106.434 89.0483 106.471 103.154 106.586C117.26 106.701 128.696 106.859 128.696 106.932Z" fill="#E0E0E0"/>
<path d="M128.654 111.973C128.654 112.047 117.219 112.015 103.112 111.9C89.0064 111.785 77.5704 111.632 77.5704 111.554C77.5704 111.475 89.0064 111.512 103.118 111.627C117.229 111.743 128.654 111.9 128.654 111.973Z" fill="#E0E0E0"/>
<path d="M143.736 99.5513C143.736 99.6247 141.26 99.6667 138.212 99.6404C136.371 99.672 134.529 99.6107 132.694 99.4568C132.694 99.3834 135.165 99.3414 138.218 99.3677C140.059 99.3361 141.901 99.3974 143.736 99.5513Z" fill="#263238"/>
<path d="M113.31 100.218C113.308 100.469 113.232 100.713 113.091 100.921C112.949 101.129 112.75 101.29 112.517 101.384C112.284 101.478 112.029 101.501 111.783 101.45C111.537 101.399 111.312 101.276 111.136 101.097C110.96 100.918 110.841 100.691 110.794 100.444C110.747 100.198 110.774 99.9427 110.872 99.7115C110.97 99.4804 111.135 99.2834 111.344 99.1457C111.554 99.0079 111.8 98.9355 112.051 98.9375C112.388 98.9417 112.709 99.0785 112.944 99.3183C113.18 99.558 113.312 99.8813 113.31 100.218Z" fill="#5DC0CC"/>
<path d="M149.786 158.379L52.5051 157.581L52.2185 192.528L149.499 193.326L149.786 158.379Z" fill="#F5F5F5"/>
<path d="M70.1237 180.117C72.7644 177.477 72.7644 173.195 70.1237 170.555C67.483 167.914 63.2016 167.914 60.5609 170.555C57.9202 173.195 57.9202 177.477 60.5609 180.117C63.2016 182.758 67.483 182.758 70.1237 180.117Z" fill="#455A64"/>
<path d="M105.903 170.187C105.903 170.26 99.6082 170.271 91.8968 170.187C84.1854 170.103 77.8851 170.013 77.8851 169.935C77.8851 169.856 84.1801 169.851 91.8968 169.935C99.6134 170.019 105.903 170.113 105.903 170.187Z" fill="#263238"/>
<path d="M128.77 176.592C128.77 176.665 117.334 176.634 103.228 176.518C89.1217 176.403 77.6858 176.246 77.6858 176.172C77.6858 176.099 89.1217 176.13 103.228 176.246C117.334 176.361 128.77 176.524 128.77 176.592Z" fill="#E0E0E0"/>
<path d="M128.728 181.644C128.728 181.717 117.292 181.686 103.186 181.57C89.0797 181.455 77.6385 181.313 77.6385 181.224C77.6385 181.135 89.0745 181.182 103.186 181.297C117.297 181.413 128.728 181.565 128.728 181.644Z" fill="#E0E0E0"/>
<path d="M143.804 169.216C143.804 169.295 141.328 169.332 138.281 169.311C135.233 169.29 132.762 169.2 132.762 169.127C132.762 169.053 135.233 169.012 138.286 169.038C141.339 169.064 143.804 169.143 143.804 169.216Z" fill="#263238"/>
<path d="M139.54 176.251C139.54 176.251 139.498 176.193 139.403 176.114C139.337 176.058 139.258 176.019 139.173 176C139.087 175.982 138.999 175.985 138.915 176.009C138.799 176.044 138.7 176.12 138.637 176.225C138.569 176.345 138.501 176.503 138.428 176.655C138.354 176.807 138.27 176.98 138.186 177.153C138.145 177.265 138.075 177.363 137.982 177.438C137.89 177.512 137.779 177.561 137.662 177.578L136.985 177.678L136.628 177.735C136.551 177.747 136.478 177.779 136.417 177.829C136.357 177.879 136.311 177.945 136.285 178.019C136.259 178.093 136.254 178.172 136.27 178.249C136.286 178.326 136.323 178.397 136.376 178.454L136.974 179.036L137.132 179.188C137.196 179.249 137.248 179.322 137.284 179.404C137.361 179.568 137.374 179.755 137.321 179.928C137.268 180.229 137.216 180.533 137.163 180.841C137.15 180.9 137.15 180.961 137.163 181.02C137.177 181.079 137.203 181.134 137.24 181.182C137.277 181.229 137.324 181.268 137.378 181.295C137.432 181.323 137.491 181.338 137.551 181.339C137.691 181.331 137.826 181.284 137.94 181.203L138.386 180.972C138.539 180.882 138.7 180.809 138.868 180.752C139.062 180.717 139.262 180.761 139.424 180.872L140.264 181.324C140.316 181.349 140.374 181.364 140.432 181.367C140.491 181.369 140.549 181.359 140.604 181.338C140.659 181.317 140.709 181.285 140.75 181.243C140.792 181.202 140.824 181.153 140.846 181.098C140.882 180.976 140.882 180.847 140.846 180.725C140.846 180.579 140.804 180.432 140.778 180.29L140.715 179.87C140.682 179.704 140.714 179.532 140.804 179.388C140.893 179.273 140.993 179.168 141.103 179.073L141.391 178.806L141.664 178.543C141.74 178.478 141.792 178.389 141.811 178.291C141.828 178.2 141.815 178.105 141.776 178.02C141.737 177.936 141.672 177.866 141.591 177.819C141.404 177.756 141.21 177.714 141.014 177.693L140.489 177.599C140.399 177.59 140.312 177.563 140.234 177.518C140.155 177.474 140.087 177.414 140.033 177.342C139.963 177.222 139.902 177.098 139.849 176.969C139.732 176.744 139.639 176.506 139.571 176.261C139.715 176.471 139.841 176.692 139.949 176.922C140.005 177.04 140.068 177.154 140.138 177.263C140.185 177.318 140.242 177.363 140.307 177.394C140.372 177.426 140.443 177.444 140.515 177.447L141.04 177.52C141.243 177.538 141.444 177.579 141.638 177.641C141.758 177.705 141.856 177.805 141.916 177.928C141.976 178.05 141.996 178.188 141.974 178.323C141.951 178.467 141.88 178.6 141.774 178.701L141.502 178.963L141.224 179.236C141.13 179.318 141.043 179.41 140.967 179.508C140.912 179.604 140.893 179.715 140.914 179.823C140.94 179.965 140.961 180.101 140.987 180.243C141.014 180.385 141.035 180.531 141.061 180.678C141.111 180.85 141.111 181.032 141.061 181.203C141.026 181.292 140.973 181.373 140.905 181.44C140.837 181.507 140.756 181.56 140.667 181.594C140.577 181.629 140.482 181.645 140.386 181.64C140.291 181.636 140.197 181.612 140.111 181.57C139.833 181.423 139.55 181.276 139.267 181.119C139.157 181.042 139.022 181.01 138.889 181.03C138.746 181.086 138.608 181.153 138.475 181.229L138.034 181.455L137.809 181.57C137.714 181.609 137.612 181.627 137.509 181.623C137.411 181.617 137.315 181.591 137.227 181.546C137.139 181.501 137.062 181.437 137.001 181.36C136.94 181.282 136.896 181.193 136.873 181.097C136.849 181.001 136.846 180.901 136.864 180.804C136.922 180.495 136.98 180.19 137.032 179.891C137.075 179.775 137.075 179.646 137.032 179.529C136.963 179.418 136.876 179.319 136.775 179.236L136.177 178.632C136.072 178.51 136.014 178.353 136.014 178.192C136.014 178.03 136.072 177.874 136.177 177.751C136.281 177.638 136.419 177.562 136.57 177.536L136.932 177.489L137.614 177.405C137.703 177.397 137.789 177.364 137.86 177.311C137.931 177.257 137.986 177.184 138.018 177.101L138.275 176.608C138.359 176.45 138.428 176.314 138.511 176.177C138.595 176.05 138.725 175.959 138.873 175.926C138.968 175.908 139.065 175.914 139.157 175.943C139.249 175.972 139.331 176.024 139.398 176.093C139.54 176.177 139.54 176.251 139.54 176.251Z" fill="#263238"/>
<path d="M113.384 169.882C113.382 170.133 113.305 170.378 113.164 170.586C113.023 170.793 112.823 170.954 112.59 171.049C112.358 171.143 112.102 171.166 111.856 171.115C111.61 171.064 111.385 170.941 111.209 170.762C111.033 170.583 110.914 170.356 110.867 170.109C110.82 169.863 110.847 169.607 110.945 169.376C111.043 169.145 111.208 168.948 111.418 168.81C111.628 168.673 111.874 168.6 112.125 168.602C112.291 168.604 112.456 168.638 112.61 168.703C112.763 168.768 112.902 168.863 113.019 168.982C113.136 169.1 113.229 169.241 113.291 169.396C113.354 169.55 113.385 169.716 113.384 169.882Z" fill="#5DC0CC"/>
<path d="M105.625 41.1231C105.537 41.2842 105.428 41.4325 105.3 41.5638C105.08 41.8366 104.775 42.2247 104.34 42.7021L102.892 44.3651L102.026 45.3408C101.876 45.5236 101.717 45.6987 101.549 45.8654C101.336 46.041 101.063 46.1258 100.788 46.1014C100.516 46.073 100.266 45.9394 100.091 45.729L99.6239 45.2044L98.7478 44.2391L97.279 42.5972C96.8593 42.1251 96.5288 41.7421 96.3033 41.4693C96.1746 41.3392 96.0635 41.1929 95.9728 41.0339C95.9728 41.0339 96.1302 41.1493 96.382 41.4011C96.6338 41.6529 96.9852 42.0097 97.4311 42.4503L98.9419 44.0555L99.8337 45.0103L100.301 45.5349C100.364 45.6141 100.443 45.6798 100.532 45.7283C100.621 45.7768 100.719 45.8071 100.82 45.8173C100.922 45.8276 101.024 45.8176 101.121 45.788C101.218 45.7585 101.308 45.7098 101.386 45.645C101.528 45.5191 101.691 45.3145 101.838 45.1572L102.714 44.1919L104.209 42.5657C104.634 42.1093 104.985 41.7369 105.258 41.5166C105.363 41.3706 105.487 41.2384 105.625 41.1231Z" fill="white"/>
<path d="M99.3091 44.9683C98.8009 45.648 98.2377 46.2849 97.6252 46.8725C97.0738 47.5248 96.4388 48.1016 95.7367 48.5879C96.2462 47.9076 96.8112 47.2707 97.4259 46.6837C97.9762 46.0323 98.6093 45.4556 99.3091 44.9683Z" fill="white"/>
<path d="M106.134 48.7872C105.421 48.2181 104.768 47.5764 104.188 46.8725C103.537 46.2312 102.951 45.5285 102.436 44.7742C103.15 45.344 103.804 45.9856 104.387 46.6889C105.037 47.3294 105.622 48.0322 106.134 48.7872Z" fill="white"/>
<path d="M142.257 45.5139C142.231 45.5139 142.257 45.3145 142.142 44.9893C142.012 44.5249 141.732 44.1169 141.344 43.83C141.034 43.5946 140.665 43.4502 140.277 43.4128C139.89 43.3754 139.499 43.4466 139.15 43.6184C138.801 43.7901 138.506 44.0557 138.299 44.3854C138.092 44.715 137.98 45.0958 137.977 45.4851C137.974 45.8744 138.08 46.2569 138.282 46.5897C138.484 46.9226 138.774 47.1927 139.121 47.3699C139.467 47.5471 139.856 47.6243 140.244 47.593C140.633 47.5617 141.004 47.423 141.318 47.1926C141.708 46.908 141.995 46.505 142.136 46.0437C142.231 45.7132 142.231 45.5191 142.257 45.5191C142.264 45.5661 142.264 45.6138 142.257 45.6608C142.26 45.7984 142.246 45.9358 142.215 46.0699C142.101 46.5725 141.815 47.0196 141.407 47.3342C141.063 47.5919 140.653 47.7482 140.225 47.7856C139.796 47.823 139.366 47.7398 138.982 47.5456C138.598 47.3514 138.276 47.0538 138.053 46.6865C137.829 46.3191 137.712 45.8965 137.716 45.4664C137.72 45.0363 137.844 44.6157 138.074 44.2522C138.304 43.8887 138.63 43.5967 139.018 43.4091C139.405 43.2215 139.836 43.1458 140.264 43.1905C140.692 43.2352 141.099 43.3985 141.439 43.6621C141.842 43.9836 142.118 44.4368 142.22 44.9421C142.25 45.0763 142.263 45.2138 142.257 45.3513C142.269 45.4047 142.269 45.4604 142.257 45.5139Z" fill="#263238"/>
<path d="M143.437 49.3224C143.034 49.053 142.68 48.7179 142.388 48.331C142.03 47.9969 141.73 47.605 141.501 47.1716C141.904 47.4411 142.259 47.7762 142.551 48.1631C142.91 48.4959 143.21 48.8881 143.437 49.3224Z" fill="#263238"/>
<path d="M41.8199 202.548L38.0377 227.398H16.0628L10.9639 202.905L41.8199 202.548Z" fill="#5DC0CC"/>
<path d="M14.038 218.475C14.038 218.548 19.6668 218.606 26.628 218.606C33.5892 218.606 39.218 218.548 39.218 218.475C39.218 218.401 33.5892 218.349 26.628 218.349C19.6668 218.349 14.038 218.406 14.038 218.475Z" fill="#FAFAFA"/>
<path d="M13.954 217.252C13.954 217.326 19.6195 217.383 26.6122 217.383C33.6049 217.383 39.2704 217.326 39.2704 217.252C39.2704 217.179 33.6049 217.126 26.6122 217.126C19.6195 217.126 13.954 217.184 13.954 217.252Z" fill="#FAFAFA"/>
<path d="M13.996 215.873C13.996 215.946 19.6615 216.004 26.6542 216.004C33.6469 216.004 39.3124 215.946 39.3124 215.873C39.3124 215.799 33.6469 215.741 26.6542 215.741C19.6615 215.741 13.996 215.799 13.996 215.873Z" fill="#FAFAFA"/>
<path d="M35.5144 225.981C35.819 224.951 36.0435 223.899 36.1859 222.834C36.4106 221.789 36.551 220.727 36.6055 219.66C36.2964 220.689 36.0718 221.742 35.9341 222.808C35.7062 223.852 35.5659 224.914 35.5144 225.981Z" fill="#FAFAFA"/>
<path d="M34.0194 225.719C34.1687 224.707 34.2598 223.688 34.2922 222.666C34.403 221.649 34.4503 220.626 34.4338 219.602C34.1942 220.6 34.0606 221.62 34.0351 222.645C33.9181 223.666 33.9128 224.697 34.0194 225.719Z" fill="#FAFAFA"/>
<path d="M31.2915 225.719C31.805 223.661 32.0536 221.545 32.0312 219.424C31.8313 220.465 31.6894 221.515 31.6063 222.572C31.4449 223.614 31.3398 224.665 31.2915 225.719Z" fill="#FAFAFA"/>
<path d="M29.3768 225.85C29.714 223.741 29.7827 221.598 29.5814 219.471C29.4677 220.531 29.4151 221.595 29.424 222.661C29.345 223.722 29.3292 224.787 29.3768 225.85Z" fill="#FAFAFA"/>
<path d="M25.9932 225.719C26.1595 224.721 26.2385 223.71 26.2293 222.697C26.305 221.689 26.2945 220.677 26.1978 219.671C26.0382 220.67 25.961 221.68 25.967 222.692C25.8945 223.7 25.9032 224.712 25.9932 225.719Z" fill="#FAFAFA"/>
<path d="M23.5224 225.85C23.6471 224.806 23.6822 223.753 23.6274 222.703C23.6617 221.66 23.6091 220.616 23.47 219.581C23.3523 220.626 23.3189 221.679 23.3703 222.729C23.3359 223.772 23.3868 224.816 23.5224 225.85Z" fill="#FAFAFA"/>
<path d="M21.2038 225.515C21.2299 224.424 21.1667 223.332 21.0149 222.252C20.9516 221.163 20.8043 220.081 20.5743 219.015C20.548 220.106 20.6112 221.197 20.7631 222.278C20.8264 223.366 20.9737 224.449 21.2038 225.515Z" fill="#FAFAFA"/>
<path d="M18.2136 225.189C18.2097 224.252 18.0863 223.32 17.8464 222.414C17.6885 221.491 17.4135 220.592 17.0281 219.739C17.1673 220.659 17.3564 221.572 17.5946 222.472C17.7479 223.389 17.9546 224.296 18.2136 225.189Z" fill="#FAFAFA"/>
<path d="M20.3329 153.51C20.3265 153.552 20.3265 153.594 20.3329 153.636C20.3329 153.73 20.3906 153.846 20.4326 153.987C20.5375 154.313 20.6739 154.759 20.8523 155.325C21.0306 155.892 21.2667 156.621 21.4975 157.455C21.7283 158.289 22.0221 159.228 22.2896 160.288C22.5572 161.347 22.8719 162.496 23.1447 163.75C23.4175 165.004 23.706 166.336 23.9945 167.752C24.5191 170.585 25.0017 173.717 25.3375 177.022C25.6732 180.327 25.8096 183.501 25.8621 186.386C25.8621 187.823 25.8621 189.192 25.8253 190.477C25.7886 191.763 25.7309 192.948 25.668 194.039C25.605 195.131 25.5211 196.106 25.4529 196.972C25.3847 197.837 25.3112 198.577 25.2378 199.186C25.1644 199.794 25.1276 200.235 25.0962 200.581C25.0962 200.728 25.0857 200.849 25.0647 200.943C25.0647 201.027 25.0647 201.069 25.0647 201.069C25.0823 201.031 25.0929 200.99 25.0962 200.948C25.0962 200.854 25.1276 200.733 25.1539 200.586C25.1958 200.25 25.264 199.784 25.3427 199.196C25.4214 198.609 25.5211 197.848 25.5998 196.988C25.6785 196.127 25.7939 195.141 25.8568 194.05C25.9198 192.959 26.0089 191.768 26.0404 190.483C26.0719 189.198 26.0981 187.828 26.1086 186.38C26.0771 183.495 25.9355 180.316 25.584 177.001C25.2326 173.686 24.7552 170.543 24.2149 167.705C23.9211 166.289 23.6588 164.946 23.344 163.697C23.0293 162.449 22.746 161.29 22.4575 160.24C22.169 159.191 21.8752 158.242 21.6234 157.413C21.3716 156.584 21.1408 155.871 20.9362 155.315C20.7316 154.759 20.5847 154.313 20.4746 153.987C20.4221 153.851 20.3801 153.736 20.3487 153.646C20.3464 153.601 20.3412 153.555 20.3329 153.51Z" fill="#263238"/>
<path d="M24.2989 168.896C23.6938 167.104 22.4847 165.578 20.8786 164.579C20.354 164.243 19.651 163.97 19.074 164.248C18.3081 164.621 18.2451 165.696 18.476 166.52C18.8745 167.915 19.7653 169.119 20.9835 169.909C22.054 170.702 23.3948 171.039 24.7133 170.848" fill="#263238"/>
<path d="M25.6313 179.288C25.0647 177.142 23.3546 174.095 21.5763 172.762C21.3038 172.54 20.99 172.374 20.653 172.274C20.4842 172.224 20.3054 172.216 20.133 172.253C19.9607 172.29 19.8003 172.369 19.6668 172.484C19.5152 172.685 19.4157 172.921 19.3773 173.17C19.3388 173.419 19.3626 173.673 19.4464 173.911C19.811 175.475 20.6037 176.907 21.7358 178.047C22.868 179.187 24.2949 179.989 25.8569 180.363" fill="#263238"/>
<path d="M25.9984 188.432C25.1162 186.384 23.7037 184.61 21.9066 183.291C21.7167 183.111 21.4923 182.972 21.247 182.882C21.0017 182.792 20.7407 182.752 20.4798 182.766C19.7034 182.902 19.3519 183.852 19.4306 184.639C19.5722 186.255 20.8103 187.556 22.085 188.557C23.2551 189.369 24.5267 190.023 25.8673 190.504" fill="#263238"/>
<path d="M25.7938 195.01C24.9411 193.446 23.7513 192.091 22.3106 191.044C22.0017 190.809 21.6425 190.65 21.2614 190.577C21.0677 190.536 20.8664 190.551 20.6808 190.62C20.4951 190.688 20.3327 190.808 20.2122 190.965C19.8608 191.49 20.2122 192.172 20.5689 192.67C21.7972 194.38 23.5368 195.654 25.5368 196.311" fill="#263238"/>
<path d="M25.9669 192.329C27.4674 190.491 29.1358 188.796 30.9505 187.267C31.0715 187.127 31.2256 187.02 31.3988 186.954C31.572 186.889 31.7587 186.869 31.942 186.895C32.0744 186.949 32.1881 187.042 32.2691 187.16C32.3501 187.278 32.395 187.417 32.3983 187.561C32.3984 187.849 32.3338 188.134 32.2095 188.395C31.6141 189.717 30.7287 190.887 29.6189 191.82C28.5092 192.753 27.2036 193.423 25.7991 193.782" fill="#263238"/>
<path d="M25.8043 183.784L29.7177 179.015C30.0619 178.537 30.4925 178.128 30.9872 177.809C31.239 177.657 31.5274 177.577 31.8213 177.577C32.1153 177.577 32.4036 177.657 32.6554 177.809C32.8807 177.996 33.0492 178.243 33.1419 178.521C33.2346 178.799 33.2478 179.097 33.18 179.382C33.0401 179.956 32.7789 180.492 32.4141 180.956C31.6542 182.111 30.6929 183.121 29.5761 183.936C28.4272 184.728 27.3833 185.242 26.0037 185.037" fill="#263238"/>
<path d="M25.264 174.147C26.0279 171.864 27.3858 169.825 29.1984 168.24C29.4875 167.95 29.8501 167.743 30.2476 167.642C30.6464 167.611 31.0436 167.719 31.371 167.949C31.6984 168.179 31.9356 168.516 32.0417 168.901C32.1673 169.333 32.2005 169.787 32.139 170.232C32.0776 170.678 31.9229 171.106 31.685 171.487C31.2088 172.252 30.5845 172.914 29.8489 173.434C28.5309 174.439 27.0635 175.232 25.5001 175.784" fill="#263238"/>
<path d="M23.7008 165.575C24.0785 162.811 25.5159 160.508 27.184 158.273C27.5355 157.801 28.0286 157.303 28.6057 157.392C28.7896 157.43 28.9609 157.515 29.1038 157.636C29.2468 157.758 29.3569 157.914 29.424 158.09C29.5536 158.443 29.6055 158.821 29.5762 159.196C29.5046 160.872 28.941 162.488 27.9558 163.845C26.9705 165.202 25.6073 166.238 24.0365 166.824" fill="#263238"/>
<path d="M22.6045 161.169C22.7853 159.753 22.8327 158.323 22.7461 156.899C22.6573 155.465 22.1664 154.085 21.3297 152.917C20.9801 152.416 20.4965 152.023 19.9343 151.784C19.6486 151.67 19.3383 151.631 19.0333 151.672C18.7283 151.712 18.4388 151.83 18.1927 152.015C17.9845 152.21 17.8227 152.449 17.7192 152.715C17.6157 152.981 17.5731 153.267 17.5947 153.552C17.6471 154.119 17.7962 154.672 18.0353 155.189C19.0845 157.696 20.8156 160.471 22.6307 161.169" fill="#263238"/>
<path d="M39.6428 164.463C39.6304 164.58 39.6304 164.698 39.6428 164.815C39.6428 165.072 39.6428 165.402 39.6428 165.817C39.6428 166.231 39.6428 166.787 39.6166 167.39C39.5904 167.994 39.6166 168.712 39.5432 169.489C39.475 171.063 39.3229 172.888 39.0868 174.934C38.8507 176.98 38.452 179.215 37.9747 181.549C37.4973 183.883 36.9255 186.06 36.3117 188.033C35.698 190.005 35.0999 191.747 34.5386 193.2C34.2763 193.929 34.0141 194.58 33.7675 195.151C33.5209 195.723 33.3269 196.201 33.1485 196.615L32.7603 197.538C32.7091 197.645 32.667 197.755 32.6344 197.869C32.7018 197.771 32.7598 197.668 32.8075 197.559C32.9177 197.328 33.0593 197.035 33.2429 196.657C33.4265 196.279 33.6573 195.781 33.8987 195.209C34.14 194.637 34.4232 193.997 34.7118 193.268C35.294 191.82 35.9183 190.068 36.5373 188.101C37.1563 186.134 37.7281 183.931 38.2265 181.601C38.7248 179.272 39.0501 177.027 39.2756 174.976C39.5012 172.925 39.6324 171.073 39.6743 169.51C39.7163 168.733 39.7058 168.025 39.711 167.411C39.7163 166.798 39.711 166.257 39.711 165.838C39.711 165.418 39.711 165.093 39.6743 164.836C39.679 164.711 39.6684 164.586 39.6428 164.463Z" fill="#263238"/>
<path d="M39.0292 175.794C39.0025 174.446 38.5094 173.148 37.6338 172.122C37.505 171.933 37.3321 171.779 37.1301 171.672C36.928 171.565 36.703 171.509 36.4744 171.508C35.8712 171.598 35.5984 172.316 35.5774 172.925C35.5453 173.958 35.8881 174.968 36.5426 175.768C37.1009 176.537 37.9395 177.055 38.877 177.211" fill="#263238"/>
<path d="M37.7019 183.159C37.7754 181.586 37.2665 179.131 36.3433 177.845C36.2051 177.637 36.0268 177.459 35.8187 177.321C35.7133 177.252 35.5926 177.21 35.4672 177.199C35.3419 177.188 35.2157 177.209 35.1 177.258C34.9517 177.359 34.8319 177.497 34.752 177.657C34.6721 177.818 34.6348 177.997 34.6436 178.176C34.5553 179.319 34.7867 180.464 35.312 181.483C35.8373 182.502 36.6357 183.355 37.618 183.946" fill="#263238"/>
<path d="M35.9813 189.465C35.8233 187.88 35.2457 186.367 34.3078 185.079C34.214 184.919 34.0891 184.779 33.9405 184.667C33.7919 184.556 33.6225 184.475 33.4423 184.429C32.8862 184.356 32.4403 184.927 32.3197 185.478C32.0679 186.606 32.6292 187.755 33.2797 188.715C33.903 189.518 34.6277 190.238 35.4357 190.855" fill="#263238"/>
<path d="M34.4285 193.903C34.1825 192.657 33.6649 191.48 32.9125 190.456C32.7489 190.238 32.5394 190.059 32.2987 189.932C32.1764 189.868 32.039 189.839 31.9013 189.847C31.7637 189.855 31.6308 189.901 31.5171 189.979C31.1708 190.252 31.2495 190.792 31.3964 191.212C31.8693 192.645 32.7884 193.89 34.0193 194.763" fill="#263238"/>
<path d="M35.1472 192.114C36.5636 191.185 38.0634 190.389 39.6272 189.738C39.7392 189.667 39.8673 189.627 39.9994 189.619C40.1316 189.612 40.2634 189.638 40.3826 189.696C40.4564 189.759 40.5112 189.842 40.5409 189.934C40.5705 190.027 40.5738 190.126 40.5504 190.22C40.489 190.417 40.3831 190.596 40.2409 190.745C39.5519 191.518 38.6974 192.126 37.741 192.523C36.7846 192.92 35.7509 193.096 34.717 193.037" fill="#263238"/>
<path d="M36.8521 186.255C38.0831 185.457 39.3071 184.656 40.5242 183.852C40.8635 183.607 41.2463 183.429 41.652 183.327C41.8537 183.258 42.0722 183.253 42.2764 183.315C42.4807 183.377 42.6602 183.501 42.7893 183.671C42.9184 183.841 42.9906 184.047 42.9955 184.261C43.0004 184.474 42.9378 184.684 42.8166 184.859C42.5963 185.217 42.3032 185.524 41.9563 185.761C41.1878 186.398 40.3096 186.888 39.3648 187.209C38.9435 187.388 38.4903 187.481 38.0324 187.481C37.5745 187.481 37.1213 187.388 36.7 187.209" fill="#263238"/>
<path d="M38.557 179.582C39.5711 178.193 40.9337 177.096 42.5071 176.403C42.7636 176.273 43.0486 176.21 43.336 176.219C43.6141 176.284 43.8611 176.443 44.0344 176.67C44.2077 176.897 44.2965 177.177 44.2855 177.462C44.2765 177.784 44.2005 178.099 44.0623 178.389C43.9241 178.679 43.7267 178.937 43.4829 179.146C42.9947 179.565 42.4274 179.88 41.8147 180.075C40.7011 180.477 39.5307 180.7 38.3472 180.736" fill="#263238"/>
<path d="M39.3438 173.397C40.1937 171.598 41.6678 170.339 43.2835 169.174C43.4342 169.028 43.6206 168.924 43.824 168.873C44.0274 168.821 44.2407 168.824 44.4428 168.88C44.56 168.946 44.6588 169.04 44.7303 169.153C44.8018 169.267 44.8436 169.397 44.852 169.531C44.8645 169.8 44.8179 170.068 44.7156 170.318C44.3061 171.443 43.5742 172.422 42.6115 173.134C41.6487 173.846 40.4976 174.258 39.3019 174.32" fill="#263238"/>
<path d="M39.5432 170.176C39.9707 169.25 40.3097 168.286 40.5557 167.296C40.805 166.301 40.7687 165.255 40.4508 164.28C40.3107 163.87 40.0602 163.507 39.7268 163.231C39.5566 163.091 39.3534 162.997 39.1366 162.959C38.9198 162.92 38.6968 162.938 38.4888 163.01C38.3055 163.098 38.1443 163.227 38.0172 163.386C37.89 163.545 37.8002 163.73 37.7544 163.928C37.6634 164.324 37.6456 164.733 37.7019 165.135C37.8698 167.065 38.4573 169.331 39.5432 170.202" fill="#263238"/>
<path d="M11.861 164.222C11.8531 164.339 11.8531 164.456 11.861 164.574C11.861 164.831 11.8347 165.161 11.8242 165.575C11.8137 165.99 11.7928 166.546 11.8242 167.149C11.8557 167.752 11.8242 168.476 11.861 169.248C11.9082 170.821 12.0393 172.663 12.2596 174.714C12.48 176.765 12.8472 179.01 13.3088 181.339C13.7704 183.668 14.3895 185.866 14.9927 187.839C15.596 189.811 16.236 191.558 16.8235 193.006C17.1016 193.735 17.3901 194.375 17.6366 194.947C17.8832 195.519 18.0983 195.996 18.2924 196.395L18.7278 197.297C18.7727 197.406 18.829 197.51 18.8956 197.607C18.8637 197.494 18.8234 197.383 18.775 197.276L18.3606 196.374C18.1822 195.975 17.9724 195.487 17.7468 194.91C17.5212 194.333 17.2222 193.688 16.9704 192.959C16.4091 191.506 15.8058 189.754 15.1973 187.792C14.5888 185.83 14.0275 183.632 13.5344 181.313C13.0413 178.994 12.7055 176.754 12.4485 174.714C12.1914 172.673 12.0655 170.821 11.9974 169.248C11.9449 168.471 11.9396 167.768 11.9187 167.149C11.8977 166.53 11.9187 165.995 11.9187 165.575C11.9187 165.156 11.9187 164.831 11.9187 164.574C11.9144 164.454 11.895 164.336 11.861 164.222Z" fill="#455A64"/>
<path d="M12.4746 175.543C12.5009 174.193 12.9962 172.895 13.8753 171.87C14.0026 171.681 14.1744 171.527 14.3757 171.419C14.5769 171.312 14.8014 171.257 15.0293 171.257C15.6326 171.346 15.9054 172.065 15.9264 172.673C15.9669 173.715 15.6255 174.735 14.9664 175.543C14.4065 176.312 13.566 176.831 12.6267 176.985" fill="#455A64"/>
<path d="M13.8019 182.918C13.7285 181.344 14.2373 178.889 15.1606 177.604C15.299 177.396 15.4773 177.218 15.6852 177.08C15.7896 177.011 15.9094 176.969 16.034 176.958C16.1585 176.947 16.2838 176.967 16.3986 177.017C16.5469 177.118 16.6667 177.255 16.7466 177.416C16.8265 177.577 16.8638 177.755 16.855 177.935C16.9445 179.078 16.7136 180.223 16.1882 181.243C15.6628 182.262 14.8637 183.115 13.8806 183.705" fill="#455A64"/>
<path d="M15.5225 189.224C15.6847 187.639 16.2639 186.126 17.2011 184.838C17.2942 184.678 17.4182 184.538 17.5659 184.426C17.7136 184.315 17.8821 184.234 18.0615 184.188C18.6228 184.114 19.0634 184.686 19.1893 185.237C19.4411 186.365 18.8798 187.519 18.2241 188.474C17.6022 189.278 16.8773 189.998 16.068 190.614" fill="#455A64"/>
<path d="M17.0806 193.656C17.3248 192.416 17.8428 191.246 18.5966 190.231C18.7582 190.013 18.9661 189.834 19.2051 189.706C19.3275 189.643 19.4648 189.613 19.6025 189.622C19.7402 189.63 19.873 189.676 19.9868 189.754C20.333 190.026 20.2595 190.572 20.1127 190.986C19.6375 192.419 18.7189 193.662 17.4897 194.538" fill="#455A64"/>
<path d="M16.3881 191.873C14.9699 190.944 13.4683 190.148 11.9029 189.497C11.7908 189.426 11.6627 189.385 11.5306 189.378C11.3985 189.371 11.2667 189.397 11.1475 189.455C11.0698 189.521 11.013 189.608 10.9841 189.706C10.9552 189.804 10.9555 189.908 10.9849 190.005C11.0445 190.201 11.1486 190.381 11.2891 190.53C11.9784 191.303 12.8329 191.91 13.7893 192.307C14.7456 192.704 15.7792 192.88 16.813 192.822" fill="#455A64"/>
<path d="M14.6517 186.034L10.9796 183.631C10.6415 183.388 10.2607 183.21 9.85699 183.107C9.65378 183.054 9.43989 183.058 9.23898 183.119C9.03808 183.181 8.85799 183.296 8.71864 183.453C8.60287 183.628 8.53897 183.832 8.53433 184.042C8.52969 184.252 8.58449 184.459 8.69242 184.639C8.90972 184.983 9.19538 185.28 9.53175 185.509C10.301 186.145 11.179 186.635 12.1232 186.957C12.5454 187.137 12.9995 187.229 13.4583 187.229C13.917 187.229 14.3711 187.137 14.7933 186.957" fill="#455A64"/>
<path d="M12.9468 179.341C11.9351 177.95 10.5719 176.852 8.99671 176.162C8.74213 176.032 8.45876 175.969 8.17312 175.978C7.89447 176.042 7.64686 176.202 7.47269 176.428C7.29851 176.655 7.20861 176.935 7.21837 177.221C7.2273 177.542 7.30332 177.858 7.44155 178.148C7.57977 178.438 7.77715 178.696 8.02099 178.905C8.5091 179.323 9.07643 179.639 9.68917 179.834C10.8027 180.236 11.9731 180.459 13.1567 180.495" fill="#455A64"/>
<path d="M12.1652 173.156C11.3101 171.356 9.83601 170.097 8.22029 168.933C8.06982 168.786 7.88348 168.682 7.67998 168.631C7.47647 168.579 7.26298 168.582 7.06096 168.639C6.94508 168.705 6.84753 168.8 6.77703 168.913C6.70654 169.027 6.6653 169.156 6.65702 169.289C6.64271 169.558 6.68748 169.827 6.78817 170.076C7.1983 171.201 7.93027 172.18 8.89292 172.892C9.85556 173.604 11.0063 174.016 12.2019 174.079" fill="#455A64"/>
<path d="M11.9657 169.935C11.5366 169.009 11.1958 168.045 10.948 167.055C10.7004 166.059 10.7386 165.013 11.0582 164.038C11.1881 163.613 11.4398 163.236 11.7821 162.953C11.9513 162.813 12.1536 162.719 12.3696 162.681C12.5856 162.642 12.8078 162.66 13.0149 162.732C13.199 162.82 13.361 162.948 13.4891 163.107C13.6171 163.266 13.7078 163.452 13.7546 163.65C13.8403 164.047 13.858 164.455 13.807 164.857C13.6339 166.792 13.0516 169.053 11.9657 169.924" fill="#455A64"/>
<path d="M44.3379 197.628V202.296C44.3379 202.537 44.2905 202.775 44.1985 202.997C44.1065 203.219 43.9717 203.421 43.8017 203.591C43.6317 203.761 43.4298 203.896 43.2077 203.988C42.9856 204.08 42.7475 204.127 42.5071 204.127H10.691C10.4506 204.127 10.2125 204.08 9.99041 203.988C9.76829 203.896 9.56646 203.761 9.39646 203.591C9.22645 203.421 9.0916 203.219 8.99959 202.997C8.90758 202.775 8.86023 202.537 8.86023 202.296V197.628H44.3379Z" fill="#5DC0CC"/>
<g opacity="0.4">
<path opacity="0.4" d="M41.5787 204.106L41.3164 205.586L11.9606 207.679L11.2157 204.106H41.5787Z" fill="black"/>
</g>
<path d="M233.482 227.298C233.482 227.372 181.548 227.435 117.512 227.435C53.4761 227.435 1.53174 227.372 1.53174 227.298C1.53174 227.225 53.4656 227.162 117.512 227.162C181.559 227.162 233.482 227.219 233.482 227.298Z" fill="#263238"/>
<path d="M138.359 169.8L138.286 197.991L125.827 195.431L115.335 193.238C115.335 193.238 129.698 221.566 145.32 221.566C160.943 221.566 162.962 197.996 162.962 197.996L163.891 169.8H138.359Z" fill="#F0D0B8"/>
<path d="M145.674 125.621C143.753 106.924 141.678 94.5662 147.925 76.396L160.734 79.2046C166.299 96.6063 165.966 115.252 165.581 133.508C165.546 135.155 165.487 136.89 164.613 138.291C162.863 141.088 158.899 141.22 155.592 141.021C152.639 140.858 146.812 143.194 144.757 141.076C142.843 139.114 145.949 128.351 145.674 125.621Z" fill="#263238"/>
<path d="M181.826 73.551L167.111 67.478L163.258 67.9188C154.594 67.9188 148.569 77.6698 148.482 84.8544C148.379 92.8386 148.566 102.594 149.777 108.487C152.214 120.333 161.224 121.394 161.224 121.394C161.224 121.394 161.121 124.631 161.026 128.606C160.987 130.299 161.283 131.983 161.897 133.555C162.511 135.128 163.429 136.557 164.596 137.757C165.764 138.956 167.157 139.901 168.69 140.535C170.224 141.168 171.867 141.477 173.521 141.442C176.715 141.377 179.758 140.035 182 137.703C184.241 135.37 185.503 132.233 185.516 128.96L185.703 77.6347C185.674 76.5803 185.26 75.5754 184.542 74.8191C183.824 74.0628 182.855 73.6102 181.826 73.551Z" fill="#F0D0B8"/>
<path d="M119.815 193.474L124.148 190.815C124.884 190.367 125.727 190.13 126.588 190.127H134.981L143.647 198.022L146.233 199.313L145.268 212.952L139.634 212.26C139.634 212.26 127.605 212.784 126.441 212.003C125.276 211.221 123.592 208.766 123.592 208.766C123.592 208.766 116.998 206.631 116.353 206.054C113.903 203.856 114.889 203.331 114.889 203.331L113.762 202.807C113.552 203.205 111.91 200.53 112.083 199.187C112.183 198.405 111.952 198.411 111.952 198.411C111.405 198.097 110.934 197.667 110.571 197.151C110.209 196.635 109.964 196.046 109.853 195.426C109.733 194.628 113.001 195.2 113.001 195.2L121.148 195.31L119.815 193.474Z" fill="#F0D0B8"/>
<path d="M127.06 195.126L119.395 184.693C119.118 184.313 118.755 184.004 118.336 183.792C117.916 183.579 117.452 183.469 116.982 183.47H101.832C101.54 183.47 101.26 183.586 101.053 183.793C100.847 183.999 100.731 184.28 100.731 184.572C100.733 184.835 100.828 185.09 100.998 185.291L109.68 195.363L127.06 195.126Z" fill="#455A64"/>
<path d="M123.345 199.402C122.788 199.552 122.213 199.628 121.635 199.627C118.86 199.789 116.075 199.549 113.368 198.914C112.798 198.811 112.245 198.635 111.721 198.389C112.293 198.428 112.862 198.514 113.42 198.646C114.47 198.83 115.902 199.056 117.507 199.171C119.112 199.286 120.57 199.339 121.625 199.334C122.199 199.306 122.775 199.328 123.345 199.402Z" fill="#7F6358"/>
<path d="M125.523 203.971C124.965 204.12 124.39 204.196 123.812 204.197C122.426 204.28 121.036 204.26 119.652 204.139C118.267 204.021 116.893 203.801 115.54 203.483C114.972 203.381 114.42 203.205 113.898 202.959C114.47 202.998 115.039 203.084 115.597 203.216C116.647 203.399 118.079 203.625 119.684 203.74C121.289 203.856 122.747 203.908 123.802 203.903C124.376 203.875 124.952 203.898 125.523 203.971Z" fill="#7F6358"/>
<path d="M109.874 195.426C109.937 195.749 110.022 196.068 110.126 196.38C110.47 197.243 111.136 197.939 111.983 198.321L112.041 198.347V198.41C112.022 199.333 112.226 200.247 112.633 201.075C113.137 202.093 113.971 202.911 114.999 203.394L115.141 203.457L115.073 203.588C114.994 203.752 114.953 203.931 114.953 204.113C114.953 204.294 114.994 204.474 115.073 204.637C115.251 204.991 115.506 205.301 115.818 205.545C116.511 206.078 117.273 206.516 118.084 206.846C119.88 207.591 121.739 208.174 123.639 208.587H123.713L123.749 208.65C124.236 209.356 124.808 209.997 125.454 210.56C126.075 211.176 126.84 211.628 127.679 211.877C128.325 212.036 128.991 212.103 129.656 212.076L131.65 212.128L135.495 212.233L142.419 212.427H142.446L150.697 214.111L152.99 214.604L153.588 214.746C153.659 214.754 153.729 214.776 153.792 214.809C153.723 214.817 153.652 214.817 153.582 214.809L152.974 214.715L150.661 214.305L142.383 212.732H142.409L135.484 212.585L131.644 212.496L129.646 212.448C128.95 212.47 128.254 212.396 127.579 212.228C126.685 211.966 125.871 211.486 125.208 210.833C124.539 210.248 123.949 209.58 123.45 208.844L123.561 208.923C121.64 208.501 119.763 207.902 117.953 207.134C117.116 206.788 116.331 206.329 115.618 205.77C115.268 205.487 114.987 205.129 114.795 204.721C114.704 204.519 114.659 204.299 114.665 204.078C114.67 203.856 114.725 203.639 114.826 203.441L114.9 203.635C113.817 203.115 112.944 202.242 112.424 201.159C112.014 200.292 111.821 199.338 111.862 198.379L111.92 198.468C111.481 198.263 111.089 197.972 110.766 197.611C110.443 197.251 110.197 196.828 110.042 196.37C109.928 196.068 109.872 195.748 109.874 195.426Z" fill="#7F6358"/>
<path d="M128.004 207.984C128.046 208.068 127.028 208.587 125.649 208.771C124.269 208.955 123.157 208.724 123.173 208.635C123.188 208.545 124.279 208.587 125.601 208.404C126.923 208.22 127.967 207.884 128.004 207.984Z" fill="#7F6358"/>
<path d="M131.896 195.111C131.896 195.21 130.233 195.352 128.167 195.431C126.1 195.509 124.426 195.483 124.426 195.378C124.426 195.273 126.089 195.137 128.156 195.058C130.223 194.98 131.896 195.006 131.896 195.111Z" fill="#7F6358"/>
<path d="M146.07 198.195C146.07 198.195 145.913 198.347 145.546 198.405C145.019 198.462 144.488 198.344 144.035 198.069C143.402 197.655 142.809 197.181 142.267 196.653L140.2 194.843L136.423 191.596C135.875 191.176 135.363 190.711 134.892 190.206C135.494 190.547 136.061 190.946 136.586 191.397C137.598 192.173 138.973 193.285 140.447 194.544C141.181 195.184 141.874 195.803 142.493 196.375C143.01 196.903 143.569 197.387 144.166 197.823C144.57 198.093 145.044 198.239 145.53 198.243C145.876 198.248 146.06 198.164 146.07 198.195Z" fill="#7F6358"/>
<path d="M125.444 195.352C125.368 195.284 125.299 195.209 125.239 195.126L124.715 194.455L122.721 191.942L119.847 188.197L118.157 185.983C117.86 185.62 117.468 185.346 117.024 185.191C116.797 185.112 116.561 185.064 116.321 185.049C116.085 185.049 115.797 185.049 115.566 185.049L105.074 185.007L101.89 184.965H101.024C100.922 184.968 100.82 184.959 100.72 184.939C100.82 184.915 100.922 184.907 101.024 184.913L101.89 184.887L105.074 184.839L115.566 184.803C115.828 184.803 116.091 184.803 116.342 184.803C116.605 184.821 116.865 184.873 117.113 184.96C117.602 185.135 118.034 185.439 118.362 185.841L120.046 188.071L122.873 191.853C123.655 192.902 124.295 193.778 124.762 194.418C124.967 194.702 125.129 194.943 125.287 195.121C125.348 195.191 125.401 195.269 125.444 195.352Z" fill="#263238"/>
<path d="M108.967 186.529C109.064 186.454 109.181 186.409 109.304 186.4C109.427 186.392 109.549 186.42 109.656 186.48C109.763 186.541 109.849 186.632 109.905 186.741C109.96 186.851 109.982 186.975 109.968 187.097C109.953 187.219 109.903 187.334 109.823 187.427C109.744 187.521 109.639 187.589 109.52 187.623C109.402 187.657 109.277 187.655 109.16 187.618C109.043 187.582 108.939 187.511 108.862 187.415C108.764 187.287 108.719 187.126 108.734 186.966C108.75 186.805 108.825 186.657 108.946 186.55" fill="#F5F5F5"/>
<path d="M190.053 120.986L211.408 132.028L204.741 193.296L209.203 227.476H148.138C148.138 227.476 144.537 185.502 144.799 172.806C144.988 163.907 144.715 146.658 148.138 136.05C149.597 131.529 160.909 127.256 160.909 127.256C168.736 133.338 180.463 129.954 190.053 120.986Z" fill="#455A64"/>
<path d="M142.687 198.201H196.279L196.541 169.962L216.774 167.149C216.774 167.149 216.774 194.202 216.774 203.608C216.774 214.897 207.657 218.978 199.463 217.771C191.269 216.565 142.687 211.772 142.687 211.772V198.201Z" fill="#F0D0B8"/>
<path d="M220.504 172.9L191.683 175.895V142.081C191.683 142.081 194.516 130.655 204.472 131.132C214.429 131.61 220.294 142.38 220.504 152.257C220.714 162.135 220.504 172.9 220.504 172.9Z" fill="#455A64"/>
<path d="M151.332 134.091C151.332 134.091 142.094 140.171 139.618 146.88C137.021 153.915 133.375 176.703 133.375 176.703H146.327L151.332 134.091Z" fill="#455A64"/>
<path d="M205.952 131.678C205.952 131.751 204.987 131.494 203.423 131.521C201.388 131.542 199.397 132.115 197.662 133.179C195.927 134.244 194.513 135.759 193.572 137.564C192.843 138.943 192.638 139.909 192.57 139.893C192.574 139.661 192.613 139.431 192.685 139.211C192.843 138.603 193.063 138.012 193.341 137.448C194.246 135.555 195.68 133.963 197.468 132.865C199.257 131.767 201.325 131.209 203.423 131.258C204.053 131.269 204.68 131.341 205.296 131.473C205.524 131.507 205.745 131.576 205.952 131.678Z" fill="#263238"/>
<g opacity="0.3">
<path opacity="0.3" d="M194.073 175.223C193.738 168.539 193.979 162.286 193.638 155.608C191.362 165.409 190.288 175.45 190.438 185.51C190.475 187.896 190.59 190.325 191.361 192.586C192.132 194.847 194.267 196.783 196.45 197.748L196.659 174.934C195.678 175.007 195.059 175.175 194.073 175.223Z" fill="black"/>
</g>
<path d="M170.524 60.6993C172.786 60.4931 175.065 61.0883 177.13 62.0299C182.248 64.3644 186.181 68.8387 188.785 73.8422C191.388 78.8458 192.775 84.3901 193.868 89.9266C195.271 97.0068 196.231 104.168 196.743 111.369C196.898 113.54 198.041 129.317 198.293 132.527L164.719 63.8586C166.017 61.9871 168.261 60.9055 170.524 60.6993Z" fill="#263238"/>
<path d="M152.129 93.9644C152.145 94.3231 152.321 94.662 152.621 94.9082C152.92 95.1543 153.318 95.288 153.729 95.2805C153.93 95.2861 154.13 95.2565 154.317 95.1934C154.504 95.1304 154.675 95.0351 154.819 94.9134C154.964 94.7916 155.079 94.6458 155.157 94.4846C155.236 94.3234 155.276 94.1501 155.277 93.9749C155.261 93.6163 155.085 93.2773 154.786 93.0312C154.486 92.785 154.088 92.6513 153.677 92.6589C153.477 92.6533 153.277 92.6829 153.089 92.7459C152.902 92.809 152.731 92.9042 152.587 93.0259C152.443 93.1477 152.328 93.2935 152.249 93.4547C152.171 93.6159 152.13 93.7892 152.129 93.9644Z" fill="#263238"/>
<path d="M150.582 89.4801C150.774 89.7039 151.833 88.6306 153.4 88.5392C154.966 88.4479 156.151 89.3431 156.31 89.0964C156.388 88.9868 156.188 88.5758 155.669 88.1556C154.969 87.6195 154.152 87.3627 153.329 87.4203C152.517 87.4686 151.739 87.835 151.108 88.4662C150.637 88.9503 150.489 89.3842 150.582 89.4801Z" fill="#263238"/>
<path d="M161.48 101.969C161.48 101.877 160.363 101.755 158.547 101.629C158.09 101.606 157.65 101.544 157.561 101.265C157.472 100.986 157.603 100.5 157.798 100.025C158.17 99.0075 158.56 97.9399 158.975 96.8226C160.6 92.2616 161.755 88.5195 161.548 88.4621C161.341 88.4047 159.855 92.055 158.234 96.616L157.116 99.834C156.968 100.312 156.693 100.859 156.968 101.468C157.042 101.61 157.151 101.736 157.287 101.835C157.423 101.933 157.581 102.003 157.751 102.038C158.009 102.086 158.272 102.107 158.534 102.099C160.35 102.107 161.476 102.057 161.48 101.969Z" fill="#263238"/>
<path d="M161.125 121.255C166.71 121.061 172.131 119.333 176.785 116.264C176.785 116.264 172.969 124.621 161.047 124.111L161.125 121.255Z" fill="#DAB599"/>
<path d="M165.981 102.627C165.718 102.627 165.802 104.528 164.365 105.948C162.928 107.367 161.051 107.276 161.047 107.542C161.047 107.662 161.483 107.891 162.27 107.87C163.299 107.83 164.281 107.398 165.045 106.649C165.775 105.928 166.22 104.929 166.287 103.859C166.333 103.071 166.115 102.597 165.981 102.627Z" fill="#263238"/>
<path d="M151.652 84.644C151.938 85.0219 152.974 84.5536 154.242 84.4633C155.51 84.3729 156.597 84.5947 156.826 84.1675C156.923 83.9622 156.739 83.5761 156.253 83.231C155.603 82.8199 154.859 82.6368 154.117 82.7048C153.375 82.7728 152.667 83.0889 152.083 83.613C151.652 84.0443 151.525 84.4591 151.652 84.644Z" fill="#263238"/>
<path d="M170.49 93.8807C170.498 94.2373 170.345 94.5824 170.065 94.8428C169.785 95.1033 169.398 95.2586 168.989 95.2758C168.788 95.2915 168.586 95.2724 168.394 95.2194C168.202 95.1665 168.025 95.0809 167.871 94.9675C167.718 94.8542 167.593 94.7154 167.502 94.5593C167.411 94.4033 167.357 94.233 167.343 94.0586C167.335 93.7021 167.487 93.357 167.768 93.0965C168.048 92.836 168.434 92.6807 168.844 92.6635C169.044 92.6478 169.246 92.667 169.438 92.7199C169.63 92.7728 169.808 92.8585 169.961 92.9718C170.114 93.0852 170.24 93.2239 170.331 93.38C170.422 93.5361 170.476 93.7063 170.49 93.8807Z" fill="#263238"/>
<path d="M173.084 88.9115C172.906 89.1044 171.795 88.2994 170.232 88.3254C168.67 88.3514 167.536 89.1489 167.363 88.956C167.278 88.8744 167.459 88.5257 167.954 88.1548C168.624 87.6768 169.425 87.4177 170.247 87.4128C171.06 87.3998 171.855 87.6467 172.519 88.1177C173.021 88.4664 173.187 88.8373 173.084 88.9115Z" fill="#263238"/>
<path d="M172.547 83.5923C172.257 83.9246 171.093 83.5923 169.698 83.5923C168.304 83.5923 167.131 83.8349 166.853 83.5026C166.734 83.3431 166.913 83.0208 167.426 82.7118C168.113 82.3435 168.915 82.1539 169.732 82.1669C170.548 82.1799 171.341 82.395 172.011 82.7849C172.508 83.1105 172.675 83.4362 172.547 83.5923Z" fill="#263238"/>
<path d="M169.205 66.7797C172.992 65.2215 178.789 65.763 182.042 68.2484C185.295 70.7337 187.324 74.6215 188.068 78.6613C188.811 82.701 187.816 88.6885 186.755 92.6581C180.621 84.7111 174.309 75.5448 168.392 67.4342L169.205 66.7797Z" fill="#263238"/>
<path d="M166.239 62.4599C144.917 59.5004 146.935 86.3631 146.935 86.3631C156.231 79.8216 165.555 67.3181 165.555 67.3181L168.916 66.7583L166.239 62.4599Z" fill="#263238"/>
<path d="M183.606 98.0365C183.562 97.1814 184.508 95.115 185.406 94.9425C187.812 94.4774 192.155 94.4549 192.503 100.193C192.977 108.024 184.484 106.854 184.448 106.629C184.412 106.404 183.754 100.988 183.606 98.0365Z" fill="#F0D0B8"/>
<path d="M186.759 103.569C186.796 103.541 186.915 103.666 187.17 103.762C187.533 103.892 187.933 103.879 188.287 103.726C189.174 103.349 189.852 101.905 189.807 100.392C189.788 99.6732 189.604 98.9672 189.269 98.3266C188.969 97.7289 188.542 97.3238 188.082 97.2716C187.908 97.2354 187.726 97.2601 187.569 97.3416C187.412 97.423 187.29 97.5559 187.223 97.7169C187.121 97.9575 187.186 98.118 187.141 98.138C187.096 98.1581 186.948 98.0097 186.997 97.6607C187.033 97.4497 187.142 97.2571 187.305 97.1152C187.534 96.9268 187.829 96.8345 188.127 96.8584C188.788 96.8584 189.416 97.428 189.77 98.0618C190.176 98.7658 190.401 99.5563 190.423 100.364C190.464 102.057 189.671 103.686 188.455 104.103C188.229 104.184 187.986 104.214 187.746 104.191C187.505 104.169 187.273 104.093 187.067 103.97C186.784 103.79 186.73 103.605 186.759 103.569Z" fill="#DAB599"/>
<path d="M164.123 67.0266C165.132 66.864 166.167 66.9733 167.121 67.3431C167.774 67.5669 168.411 67.8345 169.029 68.1443L169.529 68.3944C169.681 68.4726 169.92 68.6211 170.115 68.7422C170.508 69.0115 170.88 69.3093 171.23 69.6333C171.928 70.2848 172.581 70.9834 173.184 71.7241L174.095 72.8066C174.244 72.9825 174.396 73.1544 174.545 73.3147L175.049 73.8579C176.425 75.3508 177.985 76.9648 179.638 78.8289C181.482 80.8508 183.118 83.053 184.521 85.4023C185.297 86.734 185.963 88.1274 186.511 89.5683C187.044 91.0493 187.489 92.5604 187.844 94.0938C188.564 97.2594 188.965 100.489 189.04 103.735C189.089 105.669 189.032 107.603 188.868 109.531C191.806 112.073 194.198 115.185 195.899 118.678C197.601 122.171 198.576 125.972 198.766 129.853C199.083 131.936 197.898 134.46 196.213 136.012C195.912 136.419 195.578 136.802 195.217 137.157C194.358 138.031 193.344 138.738 192.226 139.24C191.436 139.586 190.592 139.794 189.732 139.853C188.648 139.934 187.561 139.73 186.581 139.259C185.522 138.719 184.611 137.929 183.927 136.957C183.263 136.023 182.737 135 182.363 133.917C181.548 131.662 181.136 129.28 181.147 126.882C181.169 124.354 181.397 121.832 181.827 119.34C182.218 116.807 182.695 114.306 182.965 111.766C183.26 109.15 183.375 106.516 183.309 103.884C183.243 100.995 182.924 98.1183 182.355 95.2858C182.088 93.9667 181.752 92.6623 181.351 91.3777C180.953 90.1895 180.466 89.0333 179.892 87.9191C178.741 85.7798 177.412 83.7405 175.921 81.8225C174.505 79.9232 173.098 78.1255 171.875 76.4138L171.417 75.7689C171.253 75.5345 171.104 75.3078 170.964 75.0889C170.678 74.6473 170.432 74.237 170.182 73.8462C169.709 73.0646 169.283 72.3846 168.861 71.8218C168.67 71.5653 168.465 71.32 168.247 71.0871C168.133 70.9816 168.075 70.9073 167.922 70.7822L167.531 70.4501C167.008 70.0163 166.542 69.6684 166.112 69.3402C165.473 68.8675 164.778 68.4738 164.044 68.1678C163.532 67.9606 163.188 67.8512 163.149 67.648C163.11 67.4448 163.411 67.1868 164.123 67.0266Z" fill="#263238"/>
<path d="M216.372 139.863C214.808 137.68 212.815 135.509 210.205 134.499C207.278 133.36 202.479 134.878 199.654 136.256C196.829 137.635 193.992 139.294 190.838 139.324C189.459 139.382 188.104 138.958 187.02 138.128C185.985 137.263 185.418 135.808 185.848 134.552C186.446 132.855 188.466 132.16 189.924 131.059C192.174 129.369 193.19 126.556 193.714 123.846C194.238 121.135 194.39 118.314 195.43 115.74C198.411 117.562 196.391 122.786 199.06 125.026C200.482 126.222 202.577 125.998 204.461 126.226C207.368 126.579 211.838 128.474 213.405 130.877C214.973 133.28 217.532 136.739 216.352 139.871" fill="#263238"/>
<path d="M183.718 102.101C183.718 112.562 180.809 123.978 181.429 130.475C182.048 136.972 182.094 140.548 182.225 147.072C182.343 153.288 181.019 159.446 178.359 165.051C182.779 163.919 187.488 162.615 190.481 159.137C193.835 155.246 194.174 149.652 194.797 144.52C195.42 139.388 198.482 136.307 203.014 135.218L183.718 102.101Z" fill="#263238"/>
<path d="M226.79 227.185C226.79 227.22 203.178 227.251 174.076 227.251C144.974 227.251 121.351 227.22 121.351 227.185C121.351 227.149 144.951 227.119 174.071 227.119C203.19 227.119 226.79 227.136 226.79 227.185Z" fill="#263238"/>
<path d="M75.4524 39.4364V41.7712H75.1188V40.7305H73.778V41.7712H73.4444V39.4364H73.778V40.4403H75.1188V39.4364H75.4524Z" fill="black"/>
<path d="M77.2052 41.7979C76.9695 41.7979 76.7572 41.7467 76.5682 41.6444C76.3792 41.5399 76.2302 41.3965 76.1212 41.2142C76.0145 41.0318 75.9611 40.8284 75.9611 40.6038C75.9611 40.3792 76.0145 40.1757 76.1212 39.9934C76.2302 39.811 76.3792 39.6687 76.5682 39.5664C76.7572 39.4619 76.9695 39.4097 77.2052 39.4097C77.4387 39.4097 77.65 39.4619 77.839 39.5664C78.028 39.6687 78.1759 39.811 78.2826 39.9934C78.3893 40.1735 78.4427 40.377 78.4427 40.6038C78.4427 40.8306 78.3893 41.0352 78.2826 41.2175C78.1759 41.3976 78.028 41.5399 77.839 41.6444C77.65 41.7467 77.4387 41.7979 77.2052 41.7979ZM77.2052 41.501C77.3765 41.501 77.5299 41.4621 77.6655 41.3843C77.8034 41.3064 77.9112 41.1997 77.9891 41.0641C78.0691 40.9262 78.1091 40.7728 78.1091 40.6038C78.1091 40.4348 78.0691 40.2824 77.9891 40.1468C77.9112 40.0089 77.8034 39.9011 77.6655 39.8233C77.5299 39.7454 77.3765 39.7065 77.2052 39.7065C77.034 39.7065 76.8784 39.7454 76.7383 39.8233C76.6004 39.9011 76.4914 40.0089 76.4114 40.1468C76.3336 40.2824 76.2947 40.4348 76.2947 40.6038C76.2947 40.7728 76.3336 40.9262 76.4114 41.0641C76.4914 41.1997 76.6004 41.3064 76.7383 41.3843C76.8784 41.4621 77.034 41.501 77.2052 41.501Z" fill="black"/>
<path d="M81.1172 41.7712L81.1139 40.0701L80.27 41.4877H80.1166L79.2727 40.0801V41.7712H78.9525V39.4364H79.226L80.2 41.0774L81.1606 39.4364H81.4341L81.4374 41.7712H81.1172Z" fill="black"/>
<path d="M83.8325 41.481V41.7712H82.1381V39.4364H83.7858V39.7265H82.4717V40.4437H83.6424V40.7272H82.4717V41.481H83.8325Z" fill="black"/>
<path d="M75.4524 43.4866V45.8214H75.1188V44.7807H73.778V45.8214H73.4444V43.4866H73.778V44.4905H75.1188V43.4866H75.4524Z" fill="black"/>
<path d="M77.8456 45.5312V45.8214H76.1512V43.4866H77.7989V43.7767H76.4848V44.4939H77.6555V44.7774H76.4848V45.5312H77.8456Z" fill="black"/>
<path d="M79.8733 45.2377H78.6326L78.3757 45.8214H78.0322L79.0895 43.4866H79.4197L80.4804 45.8214H80.1302L79.8733 45.2377ZM79.7566 44.9708L79.2529 43.8268L78.7493 44.9708H79.7566Z" fill="black"/>
<path d="M80.8287 43.4866H81.1622V45.5312H82.4264V45.8214H80.8287V43.4866Z" fill="black"/>
<path d="M83.0545 43.7767H82.254V43.4866H84.1852V43.7767H83.3847V45.8214H83.0545V43.7767Z" fill="black"/>
<path d="M86.5565 43.4866V45.8214H86.2229V44.7807H84.8821V45.8214H84.5485V43.4866H84.8821V44.4905H86.2229V43.4866H86.5565Z" fill="black"/>
<path d="M73.9081 47.8269H73.1075V47.5368H75.0388V47.8269H74.2383V49.8716H73.9081V47.8269Z" fill="black"/>
<path d="M77.0965 49.5814V49.8716H75.4021V47.5368H77.0498V47.8269H75.7356V48.5441H76.9063V48.8276H75.7356V49.5814H77.0965Z" fill="black"/>
<path d="M78.317 49.8983C78.1413 49.8983 77.9712 49.8716 77.8067 49.8182C77.6443 49.7626 77.5165 49.6915 77.4231 49.6047L77.5465 49.3446C77.6354 49.4246 77.7488 49.4902 77.8867 49.5414C78.0268 49.5903 78.1702 49.6148 78.317 49.6148C78.5104 49.6148 78.655 49.5825 78.7506 49.518C78.8462 49.4513 78.894 49.3635 78.894 49.2545C78.894 49.1745 78.8673 49.11 78.814 49.0611C78.7628 49.0099 78.6983 48.971 78.6205 48.9443C78.5449 48.9176 78.4371 48.8876 78.297 48.8543C78.1213 48.812 77.979 48.7698 77.87 48.7275C77.7633 48.6853 77.671 48.6208 77.5932 48.5341C77.5176 48.4451 77.4798 48.3262 77.4798 48.1772C77.4798 48.0526 77.512 47.9404 77.5765 47.8403C77.6432 47.7402 77.7433 47.6602 77.8767 47.6001C78.0101 47.5401 78.1758 47.5101 78.3737 47.5101C78.5116 47.5101 78.6472 47.5279 78.7806 47.5634C78.914 47.599 79.0286 47.6502 79.1242 47.7169L79.0141 47.9837C78.9163 47.9214 78.8117 47.8748 78.7006 47.8436C78.5894 47.8103 78.4804 47.7936 78.3737 47.7936C78.1847 47.7936 78.0424 47.8281 77.9468 47.897C77.8534 47.9659 77.8067 48.0549 77.8067 48.1638C77.8067 48.2439 77.8333 48.3095 77.8867 48.3606C77.9401 48.4095 78.0057 48.4485 78.0835 48.4774C78.1636 48.504 78.2714 48.533 78.407 48.5641C78.5827 48.6063 78.7239 48.6486 78.8306 48.6908C78.9374 48.7331 79.0286 48.7976 79.1042 48.8843C79.182 48.971 79.2209 49.0877 79.2209 49.2345C79.2209 49.3568 79.1875 49.4691 79.1208 49.5714C79.0541 49.6715 78.9529 49.7515 78.8173 49.8115C78.6817 49.8694 78.5149 49.8983 78.317 49.8983Z" fill="black"/>
<path d="M80.1392 47.8269H79.3387V47.5368H81.27V47.8269H80.4695V49.8716H80.1392V47.8269Z" fill="black"/>
<path d="M82.2844 49.8983C82.1087 49.8983 81.9386 49.8716 81.774 49.8182C81.6117 49.7626 81.4839 49.6915 81.3905 49.6047L81.5139 49.3446C81.6028 49.4246 81.7162 49.4902 81.8541 49.5414C81.9942 49.5903 82.1376 49.6148 82.2844 49.6148C82.4778 49.6148 82.6224 49.5825 82.718 49.518C82.8136 49.4513 82.8614 49.3635 82.8614 49.2545C82.8614 49.1745 82.8347 49.11 82.7813 49.0611C82.7302 49.0099 82.6657 48.971 82.5879 48.9443C82.5123 48.9176 82.4044 48.8876 82.2644 48.8543C82.0887 48.812 81.9464 48.7698 81.8374 48.7275C81.7307 48.6853 81.6384 48.6208 81.5606 48.5341C81.485 48.4451 81.4472 48.3262 81.4472 48.1772C81.4472 48.0526 81.4794 47.9404 81.5439 47.8403C81.6106 47.7402 81.7107 47.6602 81.8441 47.6001C81.9775 47.5401 82.1432 47.5101 82.3411 47.5101C82.4789 47.5101 82.6146 47.5279 82.748 47.5634C82.8814 47.599 82.9959 47.6502 83.0915 47.7169L82.9815 47.9837C82.8836 47.9214 82.7791 47.8748 82.6679 47.8436C82.5568 47.8103 82.4478 47.7936 82.3411 47.7936C82.1521 47.7936 82.0097 47.8281 81.9141 47.897C81.8207 47.9659 81.774 48.0549 81.774 48.1638C81.774 48.2439 81.8007 48.3095 81.8541 48.3606C81.9075 48.4095 81.9731 48.4485 82.0509 48.4774C82.1309 48.504 82.2388 48.533 82.3744 48.5641C82.5501 48.6063 82.6913 48.6486 82.798 48.6908C82.9048 48.7331 82.9959 48.7976 83.0715 48.8843C83.1494 48.971 83.1883 49.0877 83.1883 49.2345C83.1883 49.3568 83.1549 49.4691 83.0882 49.5714C83.0215 49.6715 82.9203 49.7515 82.7847 49.8115C82.649 49.8694 82.4823 49.8983 82.2844 49.8983Z" fill="black"/>
<path d="M62.0725 41.4246H61.6583V41.2947H62.6113V41.4246H62.1971V42.7155H62.0725V41.4246Z" fill="black"/>
<path d="M62.1685 47.6572C62.0809 47.6572 61.9968 47.6403 61.9159 47.6065C61.8362 47.5727 61.7745 47.528 61.7307 47.4725L61.7796 47.3568C61.8222 47.4083 61.8789 47.4502 61.9496 47.4827C62.0203 47.5138 62.0933 47.5294 62.1685 47.5294C62.274 47.5294 62.3531 47.5064 62.4059 47.4604C62.4587 47.413 62.485 47.3521 62.485 47.2777C62.485 47.2208 62.4704 47.1755 62.4413 47.1417C62.4132 47.1078 62.3784 47.0821 62.3369 47.0645C62.2953 47.0456 62.2375 47.0253 62.1634 47.0036C62.0748 46.9766 62.0041 46.9509 61.9513 46.9265C61.8985 46.9008 61.8531 46.8622 61.8149 46.8108C61.7779 46.7594 61.7593 46.6897 61.7593 46.6017C61.7593 46.53 61.7751 46.4651 61.8065 46.4069C61.8379 46.3473 61.8862 46.3 61.9513 46.2648C62.0164 46.2296 62.0972 46.212 62.1938 46.212C62.2611 46.212 62.3268 46.2235 62.3907 46.2465C62.4559 46.2682 62.512 46.2986 62.5591 46.3379L62.517 46.4576C62.4676 46.4184 62.4149 46.3893 62.3588 46.3703C62.3026 46.35 62.2476 46.3399 62.1938 46.3399C62.0905 46.3399 62.0125 46.3643 61.9597 46.413C61.9081 46.4603 61.8823 46.5219 61.8823 46.5977C61.8823 46.6545 61.8963 46.7005 61.9244 46.7357C61.9535 46.7695 61.9895 46.7959 62.0321 46.8149C62.0759 46.8325 62.1343 46.8521 62.2072 46.8737C62.2937 46.8994 62.3632 46.9252 62.416 46.9509C62.4699 46.9752 62.5153 47.0131 62.5524 47.0645C62.5894 47.1146 62.6079 47.1829 62.6079 47.2696C62.6079 47.3413 62.5917 47.4069 62.5591 47.4664C62.5277 47.5246 62.4789 47.5713 62.4126 47.6065C62.3464 47.6403 62.265 47.6572 62.1685 47.6572Z" fill="black"/>
<path d="M62.0725 48.8189H61.6583V48.689H62.6113V48.8189H62.1971V50.1098H62.0725V48.8189Z" fill="black"/>
<path d="M60.6536 43.9153V45.1065H60.5114V44.5568H59.6583V45.1065H59.5142V43.9153H59.6583V44.4462H60.5114V43.9153H60.6536Z" fill="black"/>
<path d="M62.6472 44.9976V45.1065H61.683V43.9153H62.618V44.0242H61.8271V44.4479H62.5322V44.5551H61.8271V44.9976H62.6472Z" fill="black"/>
<path d="M64.4254 44.7883H63.6658L63.5022 45.1065H63.3522L63.9755 43.9153H64.1177L64.741 45.1065H64.589L64.4254 44.7883ZM64.3728 44.6862L64.0456 44.0463L63.7184 44.6862H64.3728Z" fill="black"/>
<path d="M65.5509 43.9153H65.695V44.9976H66.4585V45.1065H65.5509V43.9153Z" fill="black"/>
<path d="M67.4197 44.0242H66.9405V43.9153H68.043V44.0242H67.5638V45.1065H67.4197V44.0242Z" fill="black"/>
<path d="M69.997 43.9153V45.1065H69.8549V44.5568H69.0017V45.1065H68.8576V43.9153H69.0017V44.4462H69.8549V43.9153H69.997Z" fill="black"/>
<path fill-rule="evenodd" clip-rule="evenodd" d="M60.8872 43.2779V39.1504H60.7461V43.2779H56.6552V43.4203H60.7461H60.8872V43.2779ZM60.7461 45.8399H56.6552V45.6975H60.8872V45.8399V50.1098H60.7461V45.8399ZM63.2853 39.1504V43.2779H67.3763V43.4203H63.2853H63.1443V43.2779V39.1504H63.2853ZM63.2853 45.8399V50.1098H63.1443V45.8399V45.6975H67.3763V45.8399H63.2853Z" fill="url(#paint0_linear)"/>
<path d="M60.5361 62.6876V65.3555H59.731V58.2969H61.6192C62.3541 58.2969 62.9228 58.4806 63.3254 58.8482C63.7312 59.2157 63.9341 59.7342 63.9341 60.4036C63.9341 61.0731 63.7088 61.6211 63.2583 62.0477C62.811 62.4743 62.2055 62.6876 61.4419 62.6876H60.5361ZM60.5361 59.0451V61.9394H61.3796C61.9356 61.9394 62.3589 61.8098 62.6497 61.5505C62.9436 61.288 63.0906 60.9188 63.0906 60.443C63.0906 59.5111 62.5538 59.0451 61.4803 59.0451H60.5361Z" fill="black"/>
<path d="M69.0717 63.0371H65.6067C65.6195 63.5982 65.7664 64.0314 66.0476 64.3366C66.3288 64.6418 66.7154 64.7944 67.2074 64.7944C67.7602 64.7944 68.2682 64.6073 68.7315 64.2332V64.9913C68.3001 65.3129 67.7298 65.4737 67.0205 65.4737C66.3272 65.4737 65.7824 65.2456 65.3862 64.7894C64.99 64.33 64.7919 63.6852 64.7919 62.855C64.7919 62.0707 65.0076 61.4324 65.4389 60.9402C65.8735 60.4447 66.4118 60.1969 67.054 60.1969C67.6963 60.1969 68.1931 60.4102 68.5445 60.8368C68.896 61.2634 69.0717 61.8557 69.0717 62.6138V63.0371ZM68.2666 62.3529C68.2634 61.8869 68.1532 61.5243 67.9359 61.265C67.7218 61.0058 67.4231 60.8762 67.0397 60.8762C66.669 60.8762 66.3543 61.0124 66.0955 61.2847C65.8367 61.5571 65.677 61.9132 65.6163 62.3529H68.2666Z" fill="black"/>
<path d="M69.8529 65.2128V64.4203C70.2811 64.6664 70.7811 64.7894 71.353 64.7894C72.2189 64.7894 72.6518 64.5072 72.6518 63.9428C72.6518 63.3849 72.1773 63.106 71.2284 63.106H70.7444V62.4218H71.2044C72.0384 62.4218 72.4553 62.156 72.4553 61.6244C72.4553 61.398 72.3595 61.2175 72.1678 61.0829C71.976 60.9484 71.7141 60.8811 71.3818 60.8811C70.9057 60.8811 70.428 61.0042 69.9488 61.2503V60.4972C70.4919 60.2937 70.9904 60.192 71.4441 60.192C72.639 60.192 73.2365 60.6432 73.2365 61.5456C73.2365 61.8377 73.147 62.0904 72.9681 62.3037C72.7924 62.5137 72.5448 62.6531 72.2253 62.7221V62.7467C72.5895 62.7762 72.8818 62.9025 73.1023 63.1257C73.3228 63.3488 73.433 63.6311 73.433 63.9723C73.433 64.4318 73.2525 64.7976 72.8914 65.07C72.5304 65.3424 72.0336 65.4786 71.4009 65.4786C70.7268 65.4786 70.2108 65.39 69.8529 65.2128Z" fill="black"/>
<path d="M78.5515 60.315L76.2942 66.1628C75.8916 67.2063 75.3261 67.7281 74.5976 67.7281C74.3931 67.7281 74.2222 67.7068 74.0848 67.6641V66.9405C74.2541 66.9996 74.4091 67.0291 74.5497 67.0291C74.9459 67.0291 75.243 66.7863 75.4411 66.3006L75.8341 65.3457L73.9171 60.315H74.7893L76.1169 64.1938C76.1328 64.2431 76.1664 64.371 76.2175 64.5778H76.2463C76.2622 64.499 76.2942 64.3743 76.3421 64.2037L77.7368 60.315H78.5515Z" fill="black"/>
<path d="M82.9799 65.3555H82.1987V60.9992H81.058C80.927 62.6302 80.7018 63.7754 80.3823 64.435C80.066 65.0946 79.6394 65.4244 79.1026 65.4244C78.9397 65.4244 78.7991 65.4015 78.6809 65.3555V64.6615C78.7927 64.7205 78.9141 64.7501 79.0451 64.7501C79.748 64.7501 80.2001 63.2717 80.4014 60.315H82.9799V65.3555Z" fill="black"/>
<path d="M84.5758 65.3555V60.315H85.3618V62.2495H86.6845C87.1862 62.2495 87.5839 62.3841 87.8779 62.6531C88.175 62.9222 88.3236 63.298 88.3236 63.7804C88.3236 64.266 88.175 64.65 87.8779 64.9322C87.5808 65.2144 87.2053 65.3555 86.7516 65.3555H84.5758ZM85.3618 62.9436V64.6664H86.5408C87.1926 64.6664 87.5184 64.371 87.5184 63.7804C87.5184 63.2225 87.1894 62.9436 86.5312 62.9436H85.3618Z" fill="black"/>
<path d="M92.6034 61.0042H91.1321V65.3555H90.3461V61.0042H88.87V60.315H92.6034V61.0042Z" fill="black"/>
<path d="M97.0605 65.3555H96.2745V64.5679H96.2554C95.9135 65.1717 95.4103 65.4737 94.7457 65.4737C94.2568 65.4737 93.8734 65.3407 93.5955 65.0749C93.3207 64.8091 93.1833 64.4564 93.1833 64.0166C93.1833 63.0748 93.7233 62.5268 94.8032 62.3726L96.2745 62.1609C96.2745 61.3044 95.9374 60.8762 95.2633 60.8762C94.6722 60.8762 94.1386 61.0829 93.6626 61.4964V60.6694C94.145 60.3544 94.701 60.1969 95.3304 60.1969C96.4838 60.1969 97.0605 60.8237 97.0605 62.0772V65.3555ZM96.2745 62.8057L95.0908 62.9731C94.7265 63.0256 94.4517 63.1191 94.2664 63.2537C94.0811 63.3849 93.9885 63.6196 93.9885 63.9576C93.9885 64.2037 94.0731 64.4055 94.2425 64.563C94.415 64.7173 94.6434 64.7944 94.9278 64.7944C95.3176 64.7944 95.6387 64.6549 95.8911 64.376C96.1467 64.0938 96.2745 63.7377 96.2745 63.3078V62.8057Z" fill="black"/>
<path d="M101.623 61.0042H100.152V65.3555H99.3658V61.0042H97.8896V60.315H101.623V61.0042Z" fill="black"/>
<path d="M107.935 65.3555H107.159V60.315H107.935V65.3555ZM102.567 65.3555V60.315H103.353V62.2495H104.676C105.178 62.2495 105.575 62.3841 105.869 62.6531C106.166 62.9222 106.315 63.298 106.315 63.7804C106.315 64.266 106.166 64.65 105.869 64.9322C105.572 65.2144 105.197 65.3555 104.743 65.3555H102.567ZM103.353 62.9436V64.6664H104.532C105.184 64.6664 105.51 64.371 105.51 63.7804C105.51 63.2225 105.181 62.9436 104.523 62.9436H103.353Z" fill="black"/>
<defs>
<linearGradient id="paint0_linear" x1="58.5745" y1="40.5203" x2="63.155" y2="54.9035" gradientUnits="userSpaceOnUse">
<stop stop-color="#4350F6"/>
<stop offset="1" stop-color="#00FFAA"/>
</linearGradient>
</defs>
</svg>
