<svg width="284" height="283" viewBox="0 0 284 283" fill="none" xmlns="http://www.w3.org/2000/svg">
<path d="M284 216.438H0V216.58H284V216.438Z" fill="#EBEBEB"/>
<path d="M98.389 220.049H85.2228V220.191H98.389V220.049Z" fill="#EBEBEB"/>
<path d="M260.581 223.083H228.393V223.225H260.581V223.083Z" fill="#EBEBEB"/>
<path d="M56.4536 223.083H24.265V223.225H56.4536V223.083Z" fill="#EBEBEB"/>
<path d="M134.616 191.195H24.9408C24.0817 191.193 23.2582 190.852 22.6512 190.246C22.0442 189.64 21.7032 188.819 21.7032 187.963V34.3334C21.7107 33.4822 22.0549 32.6683 22.6611 32.0684C23.2673 31.4686 24.0866 31.1313 24.9408 31.1299H134.616C135.476 31.1299 136.301 31.4704 136.909 32.0765C137.518 32.6826 137.859 33.5046 137.859 34.3617V187.963C137.859 188.82 137.518 189.642 136.909 190.248C136.301 190.854 135.476 191.195 134.616 191.195ZM24.9408 31.2431C24.1193 31.2446 23.332 31.5708 22.7516 32.1502C22.1712 32.7296 21.8452 33.5148 21.8452 34.3334V187.963C21.8452 188.781 22.1712 189.567 22.7516 190.146C23.332 190.725 24.1193 191.052 24.9408 191.053H134.616C135.438 191.05 136.225 190.724 136.806 190.145C137.387 189.566 137.714 188.782 137.717 187.963V34.3334C137.714 33.5147 137.387 32.7304 136.806 32.1515C136.225 31.5726 135.438 31.2461 134.616 31.2431H24.9408Z" fill="#EBEBEB"/>
<path d="M257.48 191.195H147.799C146.94 191.192 146.117 190.85 145.509 190.245C144.902 189.639 144.559 188.819 144.556 187.963V34.3334C144.565 33.4817 144.91 32.6677 145.518 32.0681C146.125 31.4684 146.944 31.1313 147.799 31.1299H257.48C258.333 31.1328 259.151 31.4708 259.756 32.0704C260.361 32.6701 260.705 33.4832 260.712 34.3334V187.963C260.713 188.386 260.63 188.806 260.468 189.198C260.306 189.59 260.068 189.946 259.768 190.246C259.468 190.546 259.111 190.784 258.719 190.947C258.326 191.11 257.905 191.194 257.48 191.195ZM147.799 31.2431C146.978 31.2461 146.191 31.5726 145.61 32.1515C145.029 32.7304 144.701 33.5147 144.698 34.3334V187.963C144.701 188.782 145.029 189.566 145.61 190.145C146.191 190.724 146.978 191.05 147.799 191.053H257.48C258.302 191.05 259.089 190.724 259.67 190.145C260.251 189.566 260.578 188.782 260.581 187.963V34.3334C260.578 33.5147 260.251 32.7304 259.67 32.1515C259.089 31.5726 258.302 31.2461 257.48 31.2431H147.799Z" fill="#EBEBEB"/>
<path d="M121.643 136.762H41.6855V216.438H121.643V136.762Z" fill="#E0E0E0"/>
<path d="M107.454 136.762H34.0232V216.438H107.454V136.762Z" fill="#EBEBEB"/>
<path d="M104.404 141.075H36.9824V162.832H104.404V141.075Z" fill="#F5F5F5"/>
<path d="M104.404 166.257H36.9824V188.014H104.404V166.257Z" fill="#F5F5F5"/>
<path d="M104.404 190.374H36.9824V212.131H104.404V190.374Z" fill="#F5F5F5"/>
<path d="M71.409 150.748C71.409 151.218 71.2691 151.678 71.007 152.069C70.7448 152.46 70.3723 152.765 69.9363 152.945C69.5004 153.124 69.0208 153.172 68.558 153.08C68.0953 152.988 67.6702 152.762 67.3365 152.429C67.0029 152.097 66.7757 151.673 66.6837 151.212C66.5916 150.751 66.6389 150.273 66.8194 149.839C67 149.404 67.3057 149.033 67.6981 148.772C68.0904 148.511 68.5516 148.371 69.0234 148.371C69.6561 148.371 70.2629 148.622 70.7103 149.067C71.1577 149.513 71.409 150.118 71.409 150.748Z" fill="#FAFAFA"/>
<path d="M70.7387 199.051C70.7387 199.387 70.6387 199.715 70.4515 199.994C70.2643 200.273 69.9981 200.491 69.6868 200.62C69.3754 200.748 69.0328 200.782 68.7023 200.716C68.3717 200.651 68.0681 200.489 67.8298 200.251C67.5915 200.014 67.4292 199.711 67.3634 199.382C67.2977 199.053 67.3314 198.711 67.4604 198.401C67.5894 198.091 67.8078 197.826 68.088 197.639C68.3682 197.452 68.6977 197.353 69.0347 197.353C69.4866 197.353 69.92 197.532 70.2396 197.85C70.5592 198.169 70.7387 198.6 70.7387 199.051Z" fill="#FAFAFA"/>
<path d="M70.7387 176.807C70.7387 177.143 70.6387 177.471 70.4515 177.75C70.2643 178.03 69.9981 178.247 69.6868 178.376C69.3754 178.504 69.0328 178.538 68.7023 178.472C68.3717 178.407 68.0681 178.245 67.8298 178.008C67.5915 177.77 67.4292 177.468 67.3634 177.138C67.2977 176.809 67.3314 176.467 67.4604 176.157C67.5894 175.847 67.8078 175.582 68.088 175.395C68.3682 175.209 68.6977 175.109 69.0347 175.109C69.4866 175.109 69.92 175.288 70.2396 175.606C70.5592 175.925 70.7387 176.357 70.7387 176.807Z" fill="#FAFAFA"/>
<path d="M131.64 38.8784H38.6808V99.9328H131.64V38.8784Z" fill="#E0E0E0"/>
<path d="M129.845 38.8784H36.8859V99.9328H129.845V38.8784Z" fill="#F0F0F0"/>
<path d="M126.425 41.7876H39.5555V97.5046H126.425V41.7876Z" fill="#FAFAFA"/>
<path d="M123.495 42.5801L98.7808 97.5047H88.625L112.396 42.5801H123.495Z" fill="white"/>
<path d="M103.245 42.5801L78.1454 97.5047H66.2401L92.4817 42.5801H103.245Z" fill="white"/>
<path d="M131.515 38.8784H36.8859V42.5801H131.515V38.8784Z" fill="#E0E0E0"/>
<path d="M131.515 43.5366H36.8859V47.2383H131.515V43.5366Z" fill="#E0E0E0"/>
<path d="M131.515 48.1948H36.8859V51.8965H131.515V48.1948Z" fill="#E0E0E0"/>
<path d="M131.515 52.8474H36.8859V56.5491H131.515V52.8474Z" fill="#E0E0E0"/>
<path d="M131.515 57.5056H36.8859V61.2073H131.515V57.5056Z" fill="#E0E0E0"/>
<path d="M134.338 99.9329H34.8582V104.54H134.338V99.9329Z" fill="#E0E0E0"/>
<path d="M249.449 168.996V216.438H232.624L231.727 211.689H166.356V168.996H249.449Z" fill="#E0E0E0"/>
<path d="M237.924 168.996V216.438H232.624L231.727 211.689H165.055L163.999 216.438H154.831V168.996H237.924Z" fill="#EBEBEB"/>
<path d="M233.238 172.324H159.051V188.67H233.238V172.324Z" stroke="#FAFAFA" stroke-miterlimit="10"/>
<path d="M233.238 191.925H159.051V208.435H233.238V191.925Z" stroke="#FAFAFA" stroke-miterlimit="10"/>
<path d="M247.955 36.4673H214.596V81.4247H247.955V36.4673Z" fill="#E0E0E0"/>
<path d="M246.285 36.439H212.926V81.3963H246.285V36.439Z" fill="#E6E6E6"/>
<path d="M244.552 38.1257H214.596V79.7777H244.552V38.1257Z" fill="#FAFAFA"/>
<path d="M241.497 70.7385H218.6V71.7121H241.497V70.7385Z" fill="#E0E0E0"/>
<path d="M241.497 73.2234H218.6V74.1969H241.497V73.2234Z" fill="#E0E0E0"/>
<path d="M241.497 75.708H218.6V76.6815H241.497V75.708Z" fill="#E0E0E0"/>
<path d="M238.225 53.5322C238.225 55.1426 237.746 56.7168 236.848 58.056C235.951 59.3951 234.675 60.4391 233.182 61.0559C231.689 61.6727 230.046 61.8346 228.461 61.5213C226.876 61.2079 225.419 60.4333 224.276 59.2954C223.132 58.1575 222.353 56.7073 222.036 55.1281C221.72 53.5489 221.88 51.9116 222.497 50.4232C223.114 48.9347 224.159 47.6619 225.502 46.7656C226.845 45.8693 228.424 45.3897 230.04 45.3875C231.114 45.386 232.178 45.5955 233.171 46.0042C234.164 46.4128 235.067 47.0125 235.827 47.769C236.587 48.5254 237.19 49.4238 237.602 50.4127C238.013 51.4016 238.225 52.4617 238.225 53.5322V53.5322Z" stroke="#E0E0E0" stroke-miterlimit="10"/>
<path d="M234.896 93.0332H206.411V121.418H234.896V93.0332Z" fill="#E0E0E0"/>
<path d="M232.46 93.0332H203.974V121.418H232.46V93.0332Z" fill="#EBEBEB"/>
<path d="M230.494 94.9973H205.945V119.46H230.494V94.9973Z" fill="#FAFAFA"/>
<path d="M224.729 100.737H211.711V113.709H224.729V100.737Z" fill="#E0E0E0"/>
<path d="M140.909 256.234C193.347 256.234 235.856 253.031 235.856 249.08C235.856 245.128 193.347 241.925 140.909 241.925C88.4717 241.925 45.9625 245.128 45.9625 249.08C45.9625 253.031 88.4717 256.234 140.909 256.234Z" fill="#F5F5F5"/>
<path d="M135.405 135.331C135.405 135.331 127.039 174.815 126.317 187.912C125.596 201.009 129.027 233.922 129.027 233.922L139.717 235.62L141.756 193.617L146.442 161.599C146.442 161.599 151.349 187.635 153.462 193.73C155.575 199.826 165.657 217.502 173.984 231.624L181.141 226.4C181.141 226.4 167.764 188.286 165.481 180.843C163.198 173.4 164.743 141.845 157.699 132.885L135.405 135.331Z" fill="#1B9AAA"/>
<path opacity="0.4" d="M135.405 135.331C135.405 135.331 127.039 174.815 126.317 187.912C125.596 201.009 129.027 233.922 129.027 233.922L139.717 235.62L141.756 193.617L146.442 161.599C146.442 161.599 151.349 187.635 153.462 193.73C155.575 199.826 165.657 217.502 173.984 231.624L181.141 226.4C181.141 226.4 167.764 188.286 165.481 180.843C163.198 173.4 164.743 141.845 157.699 132.885L135.405 135.331Z" fill="#C1F8FF"/>
<path d="M137.393 244.852C137.342 245.169 131.799 243.969 131.799 243.969L131.424 238.512L131.276 236.373L136.956 235.875C136.956 235.875 137.053 237.505 137.155 239.373C137.269 241.818 137.456 244.665 137.393 244.852Z" fill="#F0D0B8"/>
<path opacity="0.2" d="M137.132 239.373L131.424 238.512L131.276 236.373L136.956 235.875C136.956 235.875 137.03 237.505 137.132 239.373Z" fill="black"/>
<path d="M127.738 245.887L127.51 245.576C127.442 245.48 125.806 243.199 126.045 242.078C126.067 241.969 126.113 241.866 126.18 241.777C126.247 241.688 126.333 241.615 126.431 241.563C126.512 241.515 126.604 241.489 126.698 241.489C126.792 241.489 126.884 241.515 126.965 241.563C127.777 242.055 127.749 245.157 127.743 245.525L127.738 245.887ZM126.715 241.744C126.657 241.746 126.601 241.762 126.55 241.789C126.486 241.826 126.429 241.875 126.385 241.935C126.341 241.994 126.31 242.062 126.295 242.135C126.119 242.904 127.039 244.399 127.488 245.089C127.488 243.997 127.34 242.084 126.834 241.778C126.799 241.756 126.757 241.744 126.715 241.744Z" fill="#1B9AAA"/>
<path d="M127.164 245.921L126.834 245.785C126.482 245.644 123.392 244.359 123.199 243.255C123.181 243.143 123.194 243.028 123.235 242.922C123.275 242.815 123.343 242.722 123.432 242.65C123.525 242.563 123.638 242.5 123.76 242.466C123.883 242.431 124.012 242.427 124.136 242.452C125.386 242.667 126.931 245.486 126.976 245.604L127.164 245.921ZM123.977 242.689C123.839 242.69 123.706 242.745 123.608 242.842C123.55 242.884 123.505 242.941 123.478 243.007C123.451 243.073 123.443 243.146 123.455 243.216C123.58 243.94 125.511 244.914 126.579 245.401C126.136 244.648 124.988 242.859 124.091 242.701L123.977 242.689Z" fill="#1B9AAA"/>
<path d="M137.212 244.546L131.475 243.646C131.118 243.59 130.754 243.669 130.453 243.867C129.122 244.762 127.625 245.381 126.051 245.689C123.597 246.035 121.416 245.553 121.211 246.255C121.095 246.711 121.136 247.193 121.328 247.623C121.519 248.053 121.85 248.407 122.268 248.627C123.074 249.046 132.957 250.574 137.127 251.208C137.345 251.241 137.568 251.223 137.778 251.158C137.989 251.092 138.182 250.979 138.342 250.828C138.502 250.677 138.626 250.491 138.704 250.286C138.782 250.08 138.811 249.859 138.791 249.64L138.433 245.848C138.402 245.527 138.266 245.225 138.045 244.99C137.824 244.754 137.531 244.598 137.212 244.546Z" fill="#222221"/>
<path d="M127.613 232.615L128.51 237.324L140.211 238.433L140.557 233.667L127.613 232.615Z" fill="#1B9AAA"/>
<path d="M184.736 232.309C184.895 232.592 179.806 235.088 179.806 235.088L176.432 231.392L174.666 229.451L176.461 227.753L178.789 225.562C178.789 225.562 179.028 225.834 179.42 226.264L181.487 228.585C183.021 230.317 184.657 232.167 184.736 232.309Z" fill="#F0D0B8"/>
<path opacity="0.2" d="M181.487 228.59L176.432 231.392L174.666 229.451L176.461 227.753L179.42 226.264L181.487 228.59Z" fill="black"/>
<path d="M178.153 237.346L177.858 237.211C177.75 237.165 175.256 236.028 175.018 235.026C174.996 234.926 174.999 234.822 175.027 234.723C175.054 234.624 175.106 234.534 175.177 234.46C175.253 234.363 175.353 234.287 175.468 234.242C175.583 234.196 175.708 234.181 175.83 234.199C176.841 234.364 177.892 236.78 178.011 237.058L178.153 237.346ZM175.739 234.437C175.671 234.439 175.603 234.456 175.542 234.487C175.481 234.519 175.428 234.564 175.387 234.618C175.342 234.665 175.309 234.722 175.292 234.784C175.275 234.846 175.275 234.912 175.29 234.975C175.427 235.609 176.835 236.424 177.648 236.831C177.256 235.994 176.449 234.567 175.807 234.443L175.739 234.437Z" fill="#1B9AAA"/>
<path d="M174.416 238.535C173.904 238.588 173.391 238.458 172.967 238.167C172.86 238.059 172.785 237.924 172.752 237.775C172.719 237.627 172.728 237.472 172.78 237.329C172.82 237.154 172.901 236.991 173.016 236.853C173.132 236.716 173.279 236.607 173.444 236.537C174.927 235.869 178.238 237.55 178.38 237.624L178.664 237.771L178.358 237.861C177.074 238.235 175.751 238.461 174.416 238.535ZM174.308 236.633C174.047 236.625 173.788 236.671 173.547 236.769C173.417 236.824 173.302 236.91 173.213 237.018C173.123 237.126 173.06 237.254 173.03 237.392C172.996 237.488 172.989 237.591 173.009 237.69C173.029 237.79 173.075 237.882 173.143 237.958C173.825 238.614 176.603 238.043 177.96 237.68C177.267 237.38 175.512 236.633 174.308 236.633Z" fill="#1B9AAA"/>
<path d="M184.407 232.105L179.352 234.935C179.036 235.109 178.798 235.397 178.687 235.739C178.202 237.263 177.414 238.674 176.37 239.888C174.666 241.682 172.655 242.655 172.933 243.329C173.125 243.759 173.456 244.111 173.873 244.33C174.291 244.549 174.77 244.621 175.234 244.535C176.125 244.365 184.827 239.441 188.491 237.369C188.683 237.259 188.847 237.108 188.972 236.925C189.096 236.743 189.177 236.534 189.208 236.316C189.239 236.097 189.22 235.875 189.152 235.665C189.084 235.455 188.968 235.264 188.815 235.105L186.173 232.349C185.947 232.12 185.651 231.972 185.332 231.928C185.012 231.884 184.687 231.946 184.407 232.105Z" fill="#222221"/>
<path d="M169.775 229.19L173.416 232.337L183.282 225.964L180.584 222.013L169.775 229.19Z" fill="#1B9AAA"/>
<path d="M147.271 86.032C147.583 85.8566 154.087 85.5622 160.335 86.8697C166.583 88.1772 155.45 95.8351 155.45 95.8351L151.963 109.747L145.573 109.804L144.8 90.0506L147.271 86.032Z" fill="#EBEBEB"/>
<path d="M160.238 86.7181L146.679 100.833L148.179 86.032C148.179 86.032 143.252 86.1145 141.723 86.4069C140.195 86.6993 138.882 89.0538 137.785 92.278C136.688 95.5022 135.023 103.233 135.023 103.233L127.232 146.347C127.232 146.347 153.868 150.096 166.416 147.183C166.416 147.183 161.699 108.459 162.478 106.067C163.256 103.675 165.774 94.9248 165.774 94.9248C165.774 94.9248 169.263 90.5571 167.746 89.2712C166.228 87.9853 160.238 86.7181 160.238 86.7181Z" fill="#1B9AAA"/>
<path d="M142.706 87.5257L95.7223 103.482L107.556 138.08L154.539 122.124L142.706 87.5257Z" fill="#DBDAE1"/>
<path d="M142.704 87.5262L107.551 138.081L100.951 135.099L89.1191 100.505L136.104 84.5491L142.704 87.5262Z" fill="#DBDAE1"/>
<path opacity="0.7" d="M142.704 87.5262L95.7193 103.482L107.551 138.081L100.951 135.099L89.1191 100.505L136.104 84.5491L142.704 87.5262Z" fill="#A7A5B4"/>
<path d="M133.255 122.758C138.919 118.14 139.754 109.82 135.119 104.176C130.485 98.5315 122.136 97.6995 116.472 102.318C110.808 106.936 109.973 115.255 114.607 120.899C119.242 126.544 127.59 127.376 133.255 122.758Z" fill="#FAFAFA"/>
<path d="M156.938 51.3477L155.913 51.146L155.293 54.2722L156.319 54.474L156.938 51.3477Z" fill="white"/>
<path d="M161.312 73.5799C159.659 75.9514 158.143 75.6231 158.143 75.6231C157.645 76.5236 156.998 77.3332 156.228 78.0173C155.956 85.4149 158.143 87.4129 158.143 87.4129C155.871 90.9051 153.065 90.8089 150.225 89.7901C147.385 88.7713 147.237 86.5526 147.237 86.5526C149.804 85.296 149.838 83.3264 149.469 81.9793C149.322 81.4579 149.104 80.959 148.822 80.4964C143.999 79.1776 142.608 74.5704 142.937 70.2235C143.141 67.587 143.79 65.0037 144.857 62.5825L147.697 58.2979L158.801 60.5619L159.398 66.4256L157.126 70.7725C161.13 67.8236 162.982 71.18 161.312 73.5799Z" fill="#E09D6C" fill-opacity="0.48"/>
<path d="M148.248 73.5234C147.978 73.5249 147.708 73.506 147.441 73.4668C147.416 73.4624 147.391 73.4529 147.369 73.439C147.347 73.425 147.328 73.4069 147.313 73.3856C147.298 73.3643 147.287 73.3403 147.281 73.3149C147.276 73.2895 147.275 73.2632 147.28 73.2376C147.284 73.2119 147.294 73.1874 147.307 73.1654C147.321 73.1435 147.34 73.1244 147.361 73.1095C147.382 73.0945 147.407 73.0838 147.432 73.0781C147.457 73.0724 147.484 73.0718 147.51 73.0763C147.51 73.0763 150.35 73.5687 151.571 71.4745C151.584 71.4518 151.601 71.4319 151.622 71.416C151.643 71.4 151.666 71.3883 151.692 71.3814C151.717 71.3746 151.744 71.3728 151.77 71.3761C151.796 71.3795 151.821 71.3879 151.843 71.4009C151.866 71.4139 151.886 71.4313 151.902 71.452C151.918 71.4726 151.93 71.4963 151.937 71.5215C151.944 71.5467 151.945 71.5731 151.942 71.599C151.939 71.6249 151.93 71.6499 151.917 71.6726C150.98 73.2687 149.248 73.5234 148.248 73.5234Z" fill="#263238"/>
<path d="M147.47 70.9368C147.589 70.9368 148.072 67.3257 148.072 67.3257L145.493 70.4161C145.759 70.6507 146.076 70.8201 146.419 70.9105C146.763 71.0009 147.122 71.0099 147.47 70.9368Z" fill="#E0AA82"/>
<path d="M151.463 67.3993C151.4 67.8465 151.122 68.1804 150.844 68.1408C150.565 68.1012 150.389 67.705 150.452 67.2578C150.514 66.8107 150.793 66.4711 151.071 66.5107C151.349 66.5503 151.525 66.9465 151.463 67.3993Z" fill="#263238"/>
<path d="M145.976 66.9011C145.913 67.3482 145.635 67.6822 145.357 67.6426C145.078 67.6029 144.902 67.2124 144.965 66.7596C145.027 66.3068 145.306 65.9785 145.584 66.0181C145.862 66.0578 146.067 66.4483 145.976 66.9011Z" fill="#263238"/>
<path d="M153.689 65.373C153.639 65.3724 153.59 65.3578 153.548 65.3307C153.506 65.3037 153.472 65.2654 153.451 65.2202C152.775 63.7882 151.821 63.975 151.781 63.9806C151.715 63.9904 151.648 63.9752 151.592 63.9381C151.537 63.9009 151.498 63.8446 151.482 63.78C151.467 63.7154 151.476 63.6474 151.508 63.5892C151.54 63.531 151.593 63.4869 151.656 63.4655C151.713 63.4655 153.065 63.1486 153.928 64.9938C153.943 65.0257 153.952 65.0603 153.954 65.0956C153.955 65.1309 153.95 65.1661 153.938 65.1993C153.926 65.2325 153.907 65.263 153.883 65.2889C153.859 65.3148 153.83 65.3357 153.797 65.3503C153.763 65.3656 153.727 65.3733 153.689 65.373Z" fill="#263238"/>
<path d="M144.232 64.4221C144.199 64.4223 144.165 64.416 144.134 64.4034C144.103 64.3907 144.074 64.3721 144.05 64.3485C144.025 64.3242 144.005 64.2952 143.992 64.2631C143.978 64.231 143.971 64.1966 143.971 64.1617C143.971 64.1269 143.978 64.0924 143.992 64.0603C144.005 64.0282 144.025 63.9992 144.05 63.9749C144.119 63.907 145.641 62.3562 147.561 63.1203C147.594 63.1328 147.624 63.1517 147.649 63.1759C147.675 63.2 147.695 63.229 147.709 63.2611C147.724 63.2932 147.731 63.3278 147.732 63.3629C147.733 63.398 147.727 63.4328 147.714 63.4655C147.686 63.5311 147.634 63.5833 147.568 63.6108C147.502 63.6383 147.428 63.639 147.362 63.6127C145.766 62.9788 144.454 64.3259 144.437 64.3428C144.411 64.3707 144.379 64.3923 144.344 64.406C144.308 64.4197 144.27 64.4252 144.232 64.4221Z" fill="#263238"/>
<path opacity="0.2" d="M151.298 80.1965C150.854 80.9256 150.23 81.5295 149.486 81.9511C149.339 81.4297 149.121 80.9308 148.839 80.4682C149.669 80.548 150.506 80.4555 151.298 80.1965Z" fill="black"/>
<path d="M158.273 61.0601C158.273 61.0601 148.691 63.6128 144.874 62.26C141.057 60.9073 142.392 56.2321 142.909 55.7906C143.613 55.1907 145.147 57.6698 145.147 57.6698C145.147 57.6698 143.891 55.0152 144.874 54.4322C145.857 53.8493 146.01 57.8282 149.588 57.4094C153.167 56.9906 163.084 54.3021 163.669 60.5167C164.02 64.2399 163.416 67.991 161.914 71.4179C161.914 71.4179 161.386 68.0219 157.166 70.7217C157.166 70.7217 155.763 69.7256 157.166 68.3558C159.608 65.9843 158.756 62.8656 158.273 61.0601Z" fill="#263238"/>
<path d="M157.256 60.5619C157.256 60.5619 155.592 65.9842 158.654 65.7238C161.715 65.4635 159.835 59.8035 159.835 59.8035L157.256 60.5619Z" fill="#263238"/>
<path d="M149.208 57.732C149.208 57.732 147.209 56.266 147.72 55.202C148.231 54.1379 149.026 56.7075 153.008 56.2378C156.989 55.768 161.715 55.4114 162.59 58.0433C163.465 60.6752 154.638 58.6716 154.638 58.6716L149.197 59.8375L149.208 57.732Z" fill="#263238"/>
<path d="M148.515 122.516L144.67 121.435C144.67 121.435 140.126 121.158 139.745 122.884C139.364 124.611 139.177 127.588 140.983 127.825C142.789 128.063 148.413 127.712 148.413 127.712L148.515 122.516Z" fill="#F0D0B8"/>
<path d="M161.636 96.2199L167.833 90.707C167.833 90.707 175.506 107.687 175.938 114.213C176.37 120.739 171.309 123.671 167.02 124.769C162.732 125.867 148.521 128.793 148.521 128.793L147.754 120.914C147.754 120.914 162.891 118.339 168.719 115.673C168.696 115.69 163.453 100.493 161.636 96.2199Z" fill="#1B9AAA"/>
<path opacity="0.1" d="M148.521 128.81L162.846 125.76L162.885 127.91L148.521 128.81Z" fill="black"/>
<path d="M150.236 89.7618L151.866 94.0521C154.456 92.152 156.839 89.9876 158.977 87.594L156.615 83.6716C156.615 83.6716 154.451 87.9619 150.236 89.7618Z" fill="#FAFAFA"/>
<path d="M149.043 85.0698C149.09 86.7022 149.498 88.3041 150.236 89.762L148.458 93.724C147.558 92.8157 146.872 91.7193 146.45 90.5143C146.027 89.3092 145.879 88.0257 146.016 86.7565L149.043 85.0698Z" fill="#FAFAFA"/>
<path d="M121.974 108.391L121.329 108.624L121.256 108.422L122.739 107.887L122.812 108.089L122.168 108.321L122.897 110.328L122.703 110.398L121.974 108.391Z" fill="black"/>
<path d="M125.643 118.024C125.507 118.073 125.366 118.094 125.221 118.087C125.078 118.079 124.957 118.044 124.857 117.983L124.868 117.775C124.963 117.831 125.075 117.865 125.204 117.876C125.331 117.884 125.454 117.868 125.571 117.825C125.735 117.766 125.845 117.686 125.901 117.585C125.956 117.482 125.963 117.372 125.921 117.257C125.889 117.168 125.841 117.106 125.776 117.07C125.713 117.033 125.645 117.013 125.57 117.008C125.495 117.002 125.393 117.003 125.266 117.011C125.113 117.019 124.988 117.018 124.892 117.01C124.796 117 124.703 116.965 124.615 116.907C124.528 116.848 124.46 116.75 124.41 116.613C124.37 116.502 124.357 116.392 124.373 116.284C124.389 116.174 124.437 116.073 124.519 115.982C124.6 115.891 124.716 115.818 124.866 115.764C124.971 115.726 125.08 115.707 125.192 115.707C125.306 115.704 125.41 115.72 125.506 115.754L125.508 115.964C125.409 115.931 125.31 115.915 125.212 115.917C125.113 115.917 125.022 115.932 124.938 115.963C124.778 116.02 124.67 116.102 124.615 116.207C124.562 116.31 124.556 116.42 124.599 116.538C124.631 116.626 124.679 116.69 124.743 116.729C124.807 116.765 124.878 116.786 124.955 116.791C125.033 116.794 125.135 116.792 125.261 116.785C125.41 116.776 125.533 116.777 125.629 116.787C125.727 116.795 125.819 116.828 125.906 116.888C125.991 116.945 126.059 117.04 126.108 117.175C126.148 117.287 126.16 117.398 126.143 117.508C126.127 117.617 126.077 117.716 125.994 117.808C125.91 117.898 125.793 117.97 125.643 118.024Z" fill="black"/>
<path d="M126.149 119.883L125.505 120.116L125.431 119.914L126.915 119.379L126.988 119.581L126.343 119.813L127.072 121.82L126.878 121.89L126.149 119.883Z" fill="black"/>
<path d="M121.168 113.057L121.842 114.912L121.62 114.992L121.309 114.136L119.979 114.616L120.29 115.472L120.065 115.553L119.391 113.698L119.616 113.617L119.916 114.444L121.247 113.964L120.946 113.137L121.168 113.057Z" fill="black"/>
<path d="M124.889 113.622L124.95 113.792L123.447 114.334L122.773 112.479L124.231 111.953L124.293 112.123L123.059 112.567L123.299 113.227L124.399 112.831L124.459 112.998L123.36 113.394L123.61 114.083L124.889 113.622Z" fill="black"/>
<path d="M127.543 112.297L126.359 112.724L126.284 113.312L126.05 113.396L126.348 111.191L126.569 111.111L128.215 112.615L127.979 112.701L127.543 112.297ZM127.404 112.168L126.531 111.355L126.383 112.536L127.404 112.168Z" fill="black"/>
<path d="M128.804 110.305L129.029 110.224L129.641 111.91L130.832 111.481L130.894 111.65L129.478 112.16L128.804 110.305Z" fill="black"/>
<path d="M131.78 109.425L131.033 109.694L130.971 109.524L132.69 108.905L132.752 109.074L132.005 109.344L132.617 111.029L132.392 111.11L131.78 109.425Z" fill="black"/>
<path d="M135.737 107.806L136.411 109.661L136.19 109.741L135.879 108.885L134.548 109.365L134.859 110.221L134.635 110.302L133.961 108.447L134.185 108.366L134.486 109.193L135.816 108.713L135.516 107.886L135.737 107.806Z" fill="black"/>
<path fill-rule="evenodd" clip-rule="evenodd" d="M121.172 111.936L118.838 105.517L118.619 105.596L120.953 112.015L114.577 114.311L114.658 114.533L121.033 112.237L121.253 112.157L121.172 111.936ZM122.401 115.999L116.026 118.295L115.945 118.074L122.541 115.699L122.621 115.92L125.035 122.56L124.816 122.64L122.401 115.999ZM122.576 104.171L124.91 110.59L131.285 108.294L131.365 108.516L124.99 110.812L124.77 110.891L124.69 110.669L122.356 104.25L122.576 104.171ZM126.358 114.574L128.773 121.215L128.553 121.294L126.138 114.653L126.058 114.432L132.653 112.057L132.733 112.278L126.358 114.574Z" fill="url(#paint0_linear)"/>
<defs>
<linearGradient id="paint0_linear" x1="116.009" y1="108.946" x2="131.219" y2="128.789" gradientUnits="userSpaceOnUse">
<stop stop-color="#4350F6"/>
<stop offset="1" stop-color="#00FFAA"/>
</linearGradient>
</defs>
</svg>
