<svg width="223" height="217" viewBox="0 0 223 217" fill="none" xmlns="http://www.w3.org/2000/svg">
<path d="M203.175 147.656C206.849 145.761 211.176 145.512 215.255 146.186C217.449 146.546 219.735 147.2 221.224 148.852C222.714 150.504 222.998 153.412 221.285 154.806C220.272 155.652 218.843 155.779 217.52 155.763C214.328 155.723 210.786 155.16 208.237 157.086C206.778 158.18 205.81 160.005 204.072 160.542C202.334 161.079 200.449 160.065 199.547 158.515C198.645 156.964 198.61 155.054 199.04 153.321C199.248 152.122 199.729 150.988 200.446 150.005C201.163 149.023 202.097 148.219 203.175 147.656Z" fill="#EBEBEB"/>
<path d="M194.758 131.405C197.008 134.613 201.371 133.549 203.398 131.593C205.425 129.637 206.276 126.794 207.056 124.088C208.835 117.901 210.604 111.42 209.306 105.117C208.988 103.208 208.15 101.423 206.884 99.9583C205.562 98.5598 203.525 97.7288 201.665 98.2203C199.466 98.803 198.118 100.962 197.104 103.009C194.192 109.071 192.667 115.706 192.64 122.431C192.64 125.558 192.995 128.831 194.758 131.416" fill="#EBEBEB"/>
<path d="M188.592 136.006C191.029 133.113 191.49 128.912 190.406 125.264C189.321 121.616 186.859 118.55 184.041 116.032C180.716 113.071 176.845 110.787 172.645 109.307C171.02 108.653 169.272 108.357 167.522 108.441C165.784 108.603 164.031 109.495 163.22 111.04C162.024 113.326 163.169 116.108 164.416 118.367C166.609 122.356 169.111 126.167 171.9 129.764C174.145 132.657 176.714 135.51 180.134 136.817C183.555 138.125 187.102 137.967 188.916 135.596" fill="#EBEBEB"/>
<path d="M194.606 179.807C194.725 179.331 194.793 178.843 194.809 178.353C194.915 177.289 195.042 175.956 195.199 174.37C195.397 172.414 195.695 170.469 196.091 168.543C196.614 166.195 197.324 163.892 198.214 161.657C199.086 159.423 200.27 157.325 201.731 155.424C202.92 153.875 204.44 152.612 206.18 151.725C207.359 151.141 208.622 150.747 209.924 150.559C210.413 150.54 210.899 150.47 211.374 150.352C210.885 150.286 210.39 150.277 209.899 150.326C208.547 150.429 207.224 150.772 205.992 151.34C204.161 152.203 202.555 153.48 201.3 155.069C199.777 156.995 198.55 159.136 197.657 161.423C196.754 163.693 196.049 166.036 195.549 168.426C195.171 170.38 194.912 172.355 194.774 174.34C194.647 176.027 194.601 177.38 194.576 178.343C194.534 178.831 194.544 179.322 194.606 179.807Z" fill="#E0E0E0"/>
<path d="M194.88 176.747C194.921 176.523 194.934 176.295 194.92 176.068C194.92 175.561 194.92 174.922 194.92 174.137C194.92 172.455 194.92 170.028 195.007 167.043C195.154 161.038 195.67 154.583 196.669 145.477C197.616 136.918 198.883 126.951 200.216 120.475C200.505 119.001 200.793 117.673 201.067 116.513C201.341 115.352 201.574 114.349 201.761 113.533C201.949 112.718 202.091 112.15 202.212 111.653C202.278 111.438 202.317 111.215 202.329 110.99C202.224 111.19 202.146 111.403 202.096 111.623L201.533 113.478C201.285 114.278 201.026 115.276 200.738 116.437C200.449 117.597 200.114 118.915 199.8 120.384C198.144 128.047 196.897 135.792 196.066 143.587C195.052 152.708 194.616 161.018 194.576 167.033C194.54 170.043 194.606 172.475 194.682 174.157C194.728 174.943 194.768 175.581 194.799 176.088C194.802 176.31 194.829 176.531 194.88 176.747Z" fill="#E0E0E0"/>
<path d="M194.92 160.724C194.974 160.05 194.974 159.372 194.92 158.697C194.85 157.4 194.667 155.52 194.302 153.22C193.857 150.526 193.258 147.859 192.509 145.234C191.639 142.006 190.522 138.85 189.169 135.793C186.403 129.231 182.643 123.865 179.374 120.541C178.652 119.778 177.882 119.062 177.069 118.398C176.714 118.099 176.405 117.8 176.086 117.562L175.189 116.949C174.652 116.543 174.084 116.178 173.491 115.859C173.395 115.991 175.898 117.465 179.065 120.835C182.232 124.205 185.876 129.525 188.617 136.037C189.943 139.077 191.066 142.202 191.976 145.391C192.848 148.325 193.431 151.02 193.872 153.291C194.312 155.561 194.53 157.425 194.672 158.712C194.704 159.388 194.787 160.061 194.92 160.724Z" fill="#E0E0E0"/>
<path d="M179.435 189L181.041 210.997H209.296L210.902 189H179.435Z" fill="#E0E0E0"/>
<path d="M214.272 180.319H176.704V188.989H214.272V180.319Z" fill="#E0E0E0"/>
<path d="M176.704 210.145V212.546H178.472H213.654V210.145H176.704Z" fill="#EBEBEB"/>
<path d="M180.2 216.778L178.472 212.546H212.306L210.289 216.778H180.2Z" fill="#E0E0E0"/>
<path d="M210.381 196.179C210.344 196.25 210.299 196.316 210.249 196.377L209.823 196.939L208.176 199.047L208.105 199.139L208.034 199.042L203.981 193.468H204.214C203.008 195.171 201.68 197.071 200.231 199.108L200.104 199.286L199.967 199.118L195.245 193.499H195.518L195.255 193.828C193.79 195.662 192.377 197.441 191.034 199.118L190.892 199.296L190.765 199.113C189.331 197.086 187.989 195.191 186.783 193.479H187.011L182.106 199.052L182.019 199.149L181.954 199.037C181.305 197.953 180.788 197.086 180.433 196.458C180.271 196.179 180.139 195.951 180.038 195.769C179.99 195.692 179.949 195.611 179.917 195.526C179.98 195.591 180.034 195.664 180.079 195.744L180.52 196.407L182.131 198.941H181.979L186.803 193.286L186.924 193.139L187.036 193.296L191.054 198.905H190.791L195.002 193.605L195.26 193.276L195.397 193.109L195.534 193.271L200.241 198.9H199.978L204.001 193.291L204.117 193.129L204.234 193.291L208.181 198.946H208.019L209.732 196.894L210.188 196.362C210.315 196.23 210.37 196.174 210.381 196.179Z" fill="#F5F5F5"/>
<path d="M211.298 188.842C211.298 188.938 204.204 189.019 195.483 189.019C186.762 189.019 179.668 188.938 179.668 188.842C179.668 188.746 186.762 188.67 195.483 188.67C204.204 188.67 211.298 188.746 211.298 188.842Z" fill="#F5F5F5"/>
<path d="M212.727 212.784C212.727 212.881 205.03 212.957 195.539 212.957C186.048 212.957 178.351 212.881 178.351 212.784C178.351 212.688 186.043 212.607 195.539 212.607C205.035 212.607 212.727 212.688 212.727 212.784Z" fill="#F5F5F5"/>
<path d="M56.0793 66.5908C56.2389 66.497 56.409 66.4222 56.586 66.3679C57.1236 66.1983 57.7003 66.1983 58.2379 66.3679C58.6743 66.51 59.0694 66.7565 59.389 67.0858C59.7087 67.4152 59.9432 67.8175 60.0722 68.2579C60.2459 68.868 60.2106 69.5186 59.9718 70.1063C59.7331 70.6939 59.3047 71.1849 58.7547 71.5009V71.4097C61.1921 76.0513 64.7087 82.7501 68.9398 90.7968L75.7501 103.804C76.083 104.378 76.3644 104.98 76.5913 105.603C76.9156 106.586 76.9862 107.634 76.7966 108.651C76.607 109.668 76.1634 110.621 75.5069 111.42C74.5936 112.529 73.322 113.285 71.9114 113.557C70.5008 113.829 69.0395 113.6 67.7794 112.91C66.8973 112.419 66.1451 111.724 65.5853 110.883C65.3218 110.452 65.0786 110.017 64.8759 109.586C64.6732 109.155 64.4249 108.725 64.202 108.294L61.5518 103.227C59.8189 99.8975 58.1366 96.6798 56.5302 93.599L47.916 77.0698L48.0478 77.1154C47.6864 77.286 47.2937 77.38 46.8943 77.3913C46.4948 77.4027 46.0974 77.3311 45.727 77.1813C45.2292 76.9781 44.7988 76.6387 44.4853 76.202C44.1717 75.7653 43.9877 75.249 43.9544 74.7124C43.921 74.1758 44.0397 73.6407 44.2968 73.1685C44.5539 72.6964 44.9389 72.3063 45.4078 72.0431L51.1337 69.0737L54.7618 67.209L55.7094 66.7276L56.0337 66.5705C56.0337 66.5705 55.9323 66.6364 55.7195 66.753L54.7871 67.2597L51.1844 69.1751L45.4838 72.185C44.9278 72.4968 44.5032 72.9988 44.2879 73.5988C44.1006 74.0995 44.0677 74.645 44.1933 75.1646C44.319 75.6843 44.5974 76.1545 44.9928 76.5144C45.3882 76.8743 45.8823 77.1075 46.4115 77.1839C46.9406 77.2603 47.4806 77.1765 47.9616 76.9431L48.0478 76.9026L48.0934 76.9887L56.7431 93.4875L61.7799 103.115C62.6447 104.777 63.5281 106.466 64.43 108.182C64.653 108.613 64.8759 109.044 65.104 109.475C65.332 109.905 65.5499 110.341 65.8032 110.746C66.3113 111.52 66.9941 112.163 67.7966 112.624C68.5991 113.086 69.4988 113.352 70.4231 113.401C71.3473 113.45 72.2702 113.281 73.1172 112.908C73.9642 112.535 74.7117 111.968 75.2992 111.253C76.1382 110.216 76.6088 108.929 76.6369 107.595C76.6419 106.945 76.5427 106.298 76.343 105.679C76.1172 105.072 75.8427 104.484 75.5221 103.921C73.1101 99.3047 70.8349 94.9317 68.7321 90.9032C64.5364 82.8363 61.0502 76.1273 58.6281 71.4756L58.6027 71.4148L58.6585 71.3844C59.2197 71.064 59.6502 70.5564 59.8746 69.9504C59.999 69.6086 60.0538 69.2455 60.0358 68.8823C60.0177 68.519 59.9272 68.1631 59.7695 67.8354C59.6117 67.5077 59.3901 67.2149 59.1175 66.9741C58.8449 66.7334 58.5269 66.5497 58.1822 66.4337C57.6599 66.2605 57.0987 66.2411 56.5657 66.378C56.2516 66.5047 56.0894 66.606 56.0793 66.5908Z" fill="#E0E0E0"/>
<path d="M52.3408 81.8867L60.2809 77.7375L74.8993 105.712C75.3804 106.633 75.4761 107.707 75.1652 108.698C74.8544 109.689 74.1625 110.516 73.2418 110.997L72.2493 111.516C71.7934 111.755 71.2948 111.902 70.782 111.948C70.2693 111.994 69.7525 111.939 69.2612 111.785C68.7699 111.631 68.3137 111.382 67.9187 111.052C67.5237 110.722 67.1977 110.317 66.9592 109.861L52.3408 81.8867Z" fill="#E0E0E0"/>
<path d="M58.7345 71.4605C58.77 71.5263 56.4087 72.8337 53.4596 74.3792C50.5105 75.9247 48.0934 77.1256 48.063 77.0597C48.0326 76.9938 50.3889 75.6916 53.338 74.1461C56.2871 72.6006 58.6991 71.3997 58.7345 71.4605Z" fill="#E0E0E0"/>
<path d="M148.277 17.1909C145.064 26.7071 139.931 42.0911 137.57 49.1548C137.405 49.6518 137.34 50.1765 137.378 50.6988C137.416 51.2211 137.557 51.7308 137.792 52.1986C138.028 52.6665 138.353 53.0833 138.749 53.4253C139.146 53.7673 139.606 54.0277 140.104 54.1916L166.103 62.9376C166.6 63.1078 167.126 63.178 167.65 63.1442C168.175 63.1103 168.687 62.9732 169.158 62.7405C169.629 62.5078 170.049 62.1843 170.395 61.7885C170.74 61.3927 171.004 60.9325 171.171 60.4344L181.812 28.7593C182.182 27.6577 182.331 26.494 182.251 25.3347C182.171 24.1755 181.863 23.0433 181.346 22.0029C180.828 20.9625 180.11 20.0343 179.234 19.2712C178.358 18.5082 177.34 17.9253 176.238 17.5557L177.809 12.8939L160.783 7.16797L159.298 11.5714H159.237C157.038 10.9004 154.665 11.1117 152.619 12.1607C150.573 13.2096 149.016 15.0137 148.277 17.1909Z" fill="#F5F5F5"/>
<path d="M160.56 7.7605L159.85 9.87859L176.674 16.2126L177.586 13.4864L160.56 7.7605Z" fill="#E0E0E0"/>
<path d="M162.433 0.487803L180.569 6.58752C180.951 6.71605 181.266 6.99112 181.446 7.35221C181.625 7.71331 181.653 8.13085 181.525 8.51299L179.478 14.5981C179.395 14.844 179.219 15.0469 178.986 15.1623C178.754 15.2777 178.485 15.296 178.239 15.2133L159.081 8.76952C158.835 8.68683 158.632 8.50988 158.517 8.27757C158.402 8.04527 158.383 7.77665 158.466 7.53081L160.514 1.44084C160.643 1.05871 160.918 0.743285 161.279 0.563957C161.64 0.38463 162.057 0.356089 162.44 0.484618L162.433 0.487803Z" fill="#EBEBEB"/>
<path d="M160.828 9.40238C160.702 9.35677 161.239 7.44137 162.019 5.12059C162.8 2.79982 163.539 0.945222 163.656 0.98576C163.772 1.0263 163.246 2.94676 162.465 5.26754C161.685 7.58832 160.95 9.43278 160.828 9.40238Z" fill="#E0E0E0"/>
<path d="M163.073 10.1573C162.947 10.1117 163.479 8.19625 164.264 5.87548C165.049 3.5547 165.784 1.7001 165.901 1.74064C166.017 1.78118 165.49 3.70165 164.71 6.02243C163.93 8.3432 163.195 10.1978 163.073 10.1573Z" fill="#E0E0E0"/>
<path d="M165.313 10.9124C165.191 10.8668 165.723 8.95138 166.504 6.62554C167.284 4.29969 168.024 2.45524 168.145 2.49577C168.267 2.53631 167.735 4.45678 166.955 6.77755C166.174 9.09833 165.455 10.9529 165.313 10.9124Z" fill="#E0E0E0"/>
<path d="M167.558 11.6675C167.436 11.6219 167.968 9.70651 168.748 7.38066C169.529 5.05482 170.269 3.21036 170.39 3.2509C170.512 3.29144 169.98 5.21191 169.194 7.53268C168.409 9.85346 167.679 11.7081 167.558 11.6675Z" fill="#E0E0E0"/>
<path d="M169.802 12.4173C169.681 12.3768 170.213 10.4614 170.993 8.13555C171.774 5.80971 172.513 3.96524 172.63 4.00578C172.747 4.04632 172.225 5.96172 171.439 8.28756C170.654 10.6134 169.924 12.4731 169.802 12.4173Z" fill="#E0E0E0"/>
<path d="M172.042 13.1725C171.916 13.1319 172.453 11.2165 173.233 8.89068C174.013 6.56483 174.753 4.72037 174.87 4.76091C174.986 4.80145 174.459 6.71685 173.679 9.04269C172.899 11.3685 172.169 13.2181 172.042 13.1725Z" fill="#E0E0E0"/>
<path d="M174.287 13.9273C174.165 13.8868 174.697 11.9714 175.483 9.64556C176.268 7.31971 177.003 5.47525 177.12 5.51579C177.236 5.55633 176.709 7.47173 175.929 9.79758C175.148 12.1234 174.414 13.9932 174.287 13.9273Z" fill="#E0E0E0"/>
<path d="M176.532 14.6822C176.41 14.6417 176.942 12.7263 177.723 10.4004C178.503 8.0746 179.243 6.23014 179.364 6.27068C179.486 6.31121 178.954 8.22661 178.174 10.5525C177.393 12.8783 176.658 14.7278 176.532 14.6822Z" fill="#E0E0E0"/>
<path d="M175.177 31.3383L152.205 23.6119C151.812 23.4798 151.387 23.691 151.255 24.0836L146.305 38.7994C146.173 39.192 146.384 39.6173 146.777 39.7493L169.749 47.4758C170.141 47.6078 170.567 47.3966 170.699 47.004L175.648 32.2882C175.78 31.8956 175.569 31.4703 175.177 31.3383Z" fill="#EBEBEB"/>
<path d="M169.194 46.0635C169.21 45.9688 169.234 45.8756 169.265 45.7848C169.326 45.5822 169.407 45.3339 169.498 45.0298C169.721 44.3306 170.024 43.3813 170.405 42.1821C171.211 39.7093 172.346 36.2281 173.729 31.997L173.846 32.2352L152.447 25.0853L152.746 24.9384V24.9688V25.0296L152.711 25.1462L152.63 25.3792L152.473 25.8404L152.163 26.7677L151.545 28.5969C151.135 29.808 150.735 31.0038 150.339 32.1744C149.544 34.5154 148.784 36.7703 148.054 38.9137L147.922 38.6401L163.23 43.8998L167.634 45.4453L168.814 45.871C168.958 45.918 169.098 45.9739 169.235 46.0382C169.104 46.0153 168.975 45.9813 168.85 45.9369L167.689 45.572L163.296 44.1583L147.72 39.0759L147.517 39.01L147.583 38.8022C148.302 36.6538 149.057 34.3989 149.838 32.0527C150.233 30.8822 150.633 29.6864 151.039 28.4753C151.241 27.8672 151.449 27.2592 151.657 26.641L151.966 25.7187L152.123 25.2526L152.199 25.0195L152.239 24.9029V24.8421C151.971 24.9688 152.604 24.6597 152.538 24.6901L173.968 31.8805L174.145 31.9413L174.084 32.1135L170.522 42.3695C170.106 43.5418 169.779 44.4674 169.539 45.1464L169.275 45.8558C169.257 45.9281 169.23 45.9978 169.194 46.0635Z" fill="#E0E0E0"/>
<path d="M169.073 35.4781C169.032 35.5997 165.744 34.6066 161.73 33.2536C157.717 31.9007 154.5 30.72 154.54 30.5883C154.581 30.4565 157.869 31.4598 161.882 32.8077C165.896 34.1556 169.113 35.3514 169.073 35.4781Z" fill="#E0E0E0"/>
<path d="M168.242 37.946C168.201 38.0727 164.913 37.0744 160.899 35.7265C156.886 34.3787 153.668 33.193 153.709 33.0561C153.75 32.9193 157.038 33.9277 161.051 35.2806C165.065 36.6336 168.282 37.8092 168.242 37.946Z" fill="#E0E0E0"/>
<path d="M167.441 40.3429C167.401 40.4645 164.117 39.4713 160.104 38.1184C156.091 36.7654 152.868 35.5848 152.913 35.453C152.959 35.3213 156.238 36.3246 160.251 37.6725C164.264 39.0203 167.482 40.1959 167.441 40.3429Z" fill="#E0E0E0"/>
<path d="M175.295 17.0791C175.255 17.2007 171.672 16.1062 167.294 14.6367C162.916 13.1672 159.374 11.87 159.435 11.7433C159.496 11.6167 163.063 12.7162 167.441 14.1908C171.819 15.6654 175.336 16.9575 175.295 17.0791Z" fill="#E0E0E0"/>
<path d="M139.612 47.7965C139.713 47.2798 139.854 46.7716 140.033 46.2763C140.372 45.2325 140.813 43.8491 141.35 42.1719C142.48 38.711 144.076 33.9377 145.86 28.6779C146.762 26.0531 147.618 23.555 148.394 21.2697C149.169 18.9844 150.106 16.9474 151.398 15.5894C152.382 14.4884 153.69 13.7274 155.133 13.4155C155.524 13.3462 155.922 13.3241 156.319 13.3497C156.457 13.353 156.593 13.3769 156.724 13.4206C156.203 13.4378 155.685 13.4971 155.173 13.598C153.794 13.9606 152.558 14.7326 151.626 15.8123C150.42 17.145 149.539 19.1364 148.789 21.4116L146.286 28.83C144.502 34.0897 142.86 38.8427 141.644 42.2783L140.19 46.3321C140.035 46.8341 139.841 47.3237 139.612 47.7965Z" fill="white"/>
<path d="M169.083 62.603C168.711 62.3811 168.36 62.1268 168.034 61.8429C167.715 61.5845 167.314 61.2754 166.833 60.9409C166.352 60.6065 165.82 60.191 165.201 59.8008C163.764 58.839 162.272 57.9625 160.732 57.176C156.951 55.2523 152.909 53.895 148.733 53.1476C147.032 52.8457 145.314 52.6426 143.59 52.5395C142.855 52.4737 142.186 52.4787 141.598 52.4635C141.011 52.4483 140.509 52.4635 140.078 52.4635C139.649 52.499 139.218 52.4888 138.791 52.4331C139.211 52.345 139.639 52.2941 140.068 52.2811C140.484 52.2406 140.99 52.2102 141.588 52.2102C142.186 52.2102 142.855 52.1696 143.615 52.2102C145.359 52.2628 147.098 52.4321 148.819 52.7169C153.041 53.4208 157.125 54.789 160.92 56.7706C162.465 57.5813 163.954 58.4937 165.379 59.5018C165.997 59.9174 166.514 60.3481 166.98 60.7078C167.446 61.0676 167.836 61.402 168.145 61.6858C168.488 61.9596 168.802 62.2668 169.083 62.603Z" fill="white"/>
<path d="M182.982 69.3169C181.761 67.3913 180.099 65.0655 179.146 63.3325C177.567 66.0836 176.282 68.9929 175.31 72.0126C174.69 73.6899 174.391 75.4691 174.429 77.2572C174.54 79.0358 175.29 80.8448 176.744 81.8785C178.604 83.2061 181.746 83.0895 183.545 81.6809C185.344 80.2722 186.023 78.1338 185.992 75.8282C185.962 73.5227 184.203 71.2526 182.982 69.3169Z" fill="#EBEBEB"/>
<path d="M191.804 54.156C190.902 52.7371 189.676 51.0244 188.977 49.7424C187.812 51.7703 186.864 53.9155 186.149 56.1423C185.694 57.3776 185.474 58.6872 185.501 60.0035C185.486 60.788 185.697 61.5602 186.107 62.2291C186.517 62.8979 187.11 63.4355 187.816 63.7785C188.522 64.1215 189.311 64.2556 190.09 64.1649C190.869 64.0742 191.607 63.7626 192.215 63.2668C193.537 62.2229 194.044 60.6369 194.019 58.9546C193.993 57.2723 192.706 55.5798 191.804 54.156Z" fill="#EBEBEB"/>
<path d="M9.69922 189.44L13.8543 216.737H37.9843L43.5836 189.835L9.69922 189.44Z" fill="#F5F5F5"/>
<path d="M40.2089 206.932C40.2089 207.013 34.0269 207.074 26.4008 207.074C18.7746 207.074 12.5927 207.013 12.5927 206.932C12.5927 206.851 18.7746 206.79 26.4008 206.79C34.0269 206.79 40.2089 206.856 40.2089 206.932Z" fill="#FAFAFA"/>
<path d="M40.295 205.589C40.295 205.67 34.0674 205.731 26.3906 205.731C18.7138 205.731 12.4862 205.67 12.4862 205.589C12.4862 205.508 18.7087 205.452 26.3906 205.452C34.0725 205.452 40.295 205.533 40.295 205.589Z" fill="#FAFAFA"/>
<path d="M40.2544 204.074C40.2544 204.155 34.0319 204.216 26.3551 204.216C18.6783 204.216 12.4507 204.155 12.4507 204.074C12.4507 203.993 18.6732 203.932 26.3551 203.932C34.0369 203.932 40.2544 204.013 40.2544 204.074Z" fill="#FAFAFA"/>
<path d="M16.6261 215.161C16.0339 212.891 15.6322 210.576 15.4252 208.239C15.761 209.365 16.0084 210.515 16.165 211.68C16.4095 212.826 16.5637 213.99 16.6261 215.161Z" fill="#FAFAFA"/>
<path d="M18.2679 214.887C18.0963 213.778 17.9947 212.66 17.9638 211.538C17.8445 210.421 17.792 209.297 17.8067 208.173C18.0723 209.269 18.2201 210.39 18.2476 211.518C18.3698 212.637 18.3766 213.766 18.2679 214.887Z" fill="#FAFAFA"/>
<path d="M21.2575 214.887C20.6908 212.623 20.4183 210.295 20.4467 207.961C20.6679 209.103 20.8236 210.256 20.9129 211.416C21.0937 212.566 21.2088 213.725 21.2575 214.887Z" fill="#FAFAFA"/>
<path d="M23.3554 215.029C23.1293 213.879 23.0173 212.71 23.0209 211.538C22.9382 210.368 22.9755 209.193 23.1324 208.031C23.2561 209.193 23.3137 210.36 23.3047 211.528C23.3903 212.693 23.4072 213.862 23.3554 215.029Z" fill="#FAFAFA"/>
<path d="M27.0746 214.887C26.8969 213.792 26.8121 212.683 26.8213 211.573C26.7357 210.467 26.7459 209.354 26.8517 208.249C27.0294 209.345 27.1141 210.454 27.105 211.563C27.1905 212.67 27.1804 213.782 27.0746 214.887Z" fill="#FAFAFA"/>
<path d="M29.7907 215.034C29.6235 212.75 29.6421 210.455 29.8465 208.173C30.0205 210.458 30.0018 212.753 29.7907 215.034Z" fill="#FAFAFA"/>
<path d="M32.3395 214.654C32.3093 213.455 32.3771 212.255 32.5422 211.067C32.6204 209.873 32.7898 208.687 33.0489 207.52C33.0791 208.719 33.0113 209.919 32.8462 211.107C32.768 212.301 32.5986 213.487 32.3395 214.654Z" fill="#FAFAFA"/>
<path d="M35.623 214.31C35.6272 213.283 35.7634 212.261 36.0284 211.269C36.2009 210.254 36.5023 209.265 36.9253 208.325C36.7747 209.336 36.5666 210.338 36.3021 211.325C36.1294 212.332 35.9027 213.328 35.623 214.31Z" fill="#FAFAFA"/>
<path d="M6.92749 184.033V189.141C6.92749 189.679 7.14103 190.194 7.52115 190.574C7.90126 190.954 8.41681 191.168 8.95437 191.168H43.918C44.4556 191.168 44.9711 190.954 45.3513 190.574C45.7314 190.194 45.9449 189.679 45.9449 189.141V184.033H6.92749Z" fill="#F5F5F5"/>
<path d="M9.95764 191.153L10.2465 192.779L42.4941 195.08L43.3099 191.153H9.95764Z" fill="#E0E0E0"/>
<path d="M12.1923 184.059C12.1923 184.059 -1.39286 168.401 0.117162 167.844C1.62719 167.286 13.7023 175.951 13.7023 175.951C13.7023 175.951 3.30443 152.738 5.39718 151.041C7.48994 149.343 18.4199 171.608 18.4199 171.608C18.4199 171.608 16.7224 139.153 18.4199 138.773C20.1174 138.393 26.345 171.228 26.345 171.228C26.345 171.228 35.5876 141.231 38.2326 141.231C40.8777 141.231 35.4001 170.114 35.4001 170.114C35.4001 170.114 46.3452 151.623 48.0427 154.076C49.7402 156.529 40.295 176.514 40.295 176.514C40.295 176.514 54.0778 164.996 54.6453 166.516C55.2128 168.036 39.7376 184.064 39.7376 184.064L12.1923 184.059Z" fill="#EBEBEB"/>
<path d="M10.2971 160.476C10.3883 160.43 12.8003 165.599 15.6785 172.014C18.5567 178.429 20.8166 183.668 20.7457 183.704C20.6748 183.739 18.2425 178.581 15.3643 172.166C12.4862 165.751 10.2008 160.516 10.2971 160.476Z" fill="#E0E0E0"/>
<path d="M21.2727 163.359C21.3741 163.359 21.7795 167.919 22.1646 173.529C22.5497 179.138 22.7929 183.719 22.6713 183.724C22.5497 183.729 22.1646 179.164 21.7795 173.554C21.3944 167.945 21.1663 163.369 21.2727 163.359Z" fill="#E0E0E0"/>
<path d="M36.4084 148.826C36.4008 148.953 36.3752 149.077 36.3324 149.196C36.2513 149.47 36.15 149.809 36.0334 150.21C35.7497 151.157 35.3646 152.434 34.8933 153.99C33.9356 157.182 32.6485 161.591 31.3463 166.516C30.044 171.441 28.9444 175.921 28.1843 179.184C27.8144 180.77 27.5104 182.067 27.2824 183.03C27.181 183.45 27.0949 183.795 27.029 184.074C27.0089 184.199 26.9695 184.32 26.9125 184.433C26.9132 184.307 26.9268 184.182 26.953 184.059L27.1405 182.999C27.3128 182.082 27.5763 180.76 27.9259 179.128C28.6201 175.865 29.664 171.375 30.9662 166.46C32.2685 161.545 33.6113 157.126 34.6349 153.954C35.1416 152.368 35.5723 151.086 35.8814 150.205L36.2463 149.191C36.2867 149.064 36.3411 148.942 36.4084 148.826Z" fill="#E0E0E0"/>
<path d="M42.9553 165.553C43.0414 165.614 40.3862 169.566 37.0317 174.385C33.6773 179.204 30.8903 183.06 30.8042 182.999C30.718 182.939 33.3732 178.986 36.7277 174.167C40.0822 169.348 42.8742 165.502 42.9553 165.553Z" fill="#E0E0E0"/>
<path d="M16.7781 183.744C16.3432 183.518 15.9423 183.231 15.5873 182.893C14.6843 182.144 13.8216 181.347 13.003 180.506C12.1815 179.668 11.4068 178.785 10.6822 177.861C10.3552 177.497 10.079 177.089 9.86133 176.65C9.94747 176.579 11.3815 178.292 13.2716 180.243C15.1616 182.194 16.8439 183.643 16.7781 183.744Z" fill="#E0E0E0"/>
<path d="M25.0275 177.507C25.1289 177.507 25.3468 178.946 25.5089 180.735C25.6711 182.523 25.7217 183.993 25.6204 184.003C25.519 184.013 25.3012 182.564 25.1137 180.77C24.9262 178.976 24.9262 177.517 25.0275 177.507Z" fill="#E0E0E0"/>
<path d="M83.0115 87.6197C80.5286 63.3327 77.848 47.2798 85.9201 23.6768L102.47 27.3251C109.66 49.9299 109.229 74.1511 108.733 97.8656C108.687 100.004 108.611 102.259 107.481 104.078C105.221 107.711 100.098 107.883 95.8264 107.625C92.0108 107.412 84.481 110.447 81.8258 107.696C79.353 105.147 83.3662 91.1668 83.0115 87.6197Z" fill="#263238"/>
<path d="M164.198 92.8288L149.625 88.2126L135.411 87.8073L95.4566 92.7782L71.205 153.123L80.635 195.055L74.4226 216.778H158.361C158.361 216.778 167.016 115.398 166.772 114.42C166.529 113.442 164.188 92.8339 164.188 92.8339" fill="#455A64"/>
<path d="M95.4565 92.7781C95.4565 92.7781 75.9275 95.2154 67.7237 107.063C61.4049 116.183 46.0006 146.202 46.0006 146.202L35.2733 140.785C35.2733 140.785 28.4276 163.374 28.2401 167.641C27.9512 174.117 28.5897 188.244 33.814 192.627C39.9656 197.791 50.8499 192.374 54.2145 189.729C58.6534 186.232 73.2925 159.158 73.2925 159.158L95.4565 92.7781Z" fill="#455A64"/>
<path d="M80.6451 195.054C80.6451 195.054 80.6451 194.988 80.5894 194.857C80.5337 194.725 80.4982 194.522 80.4374 194.274L79.88 192.029C79.4087 190.058 78.7297 187.236 77.8936 183.755C77.0576 180.273 76.0695 176.093 74.9749 171.472C74.4277 169.161 73.8551 166.734 73.2572 164.22C73.1153 163.592 72.943 162.964 72.8264 162.315C72.7099 161.667 72.5832 161.013 72.4768 160.354C72.2437 159.037 72.0461 157.694 71.8738 156.331C71.5243 153.677 71.4089 150.998 71.5292 148.325C71.6629 145.833 72.0465 143.362 72.6744 140.947C73.7645 136.875 75.1725 132.895 76.8853 129.044C78.3193 125.745 79.5962 123.131 80.4779 121.327L81.4914 119.254C81.6028 119.026 81.694 118.849 81.765 118.717C81.7934 118.655 81.8274 118.596 81.8663 118.54C81.8663 118.54 81.8663 118.606 81.7853 118.732L81.537 119.279C81.3039 119.773 80.9762 120.47 80.5539 121.372C79.7026 123.191 78.451 125.816 77.0373 129.115C75.3583 132.969 73.9727 136.945 72.8923 141.008C72.2787 143.409 71.9036 145.865 71.7725 148.34C71.6568 150.999 71.7738 153.662 72.1221 156.3C72.2944 157.652 72.4937 158.988 72.72 160.309C72.8264 160.967 72.9531 161.616 73.0646 162.259C73.1761 162.903 73.3534 163.536 73.4953 164.165C74.0831 166.698 74.6557 169.11 75.1928 171.421C76.2721 176.047 77.2197 180.207 78.0609 183.714C78.902 187.22 79.5151 190.033 79.9661 192.004C80.184 192.977 80.3563 193.732 80.4729 194.264C80.5235 194.512 80.5691 194.705 80.5995 194.852C80.6216 194.918 80.6369 194.985 80.6451 195.054Z" fill="#263238"/>
<path d="M52.7197 136.168C52.7434 136.2 52.7606 136.236 52.7704 136.275L52.8971 136.599C53.0317 137.022 53.1383 137.454 53.2163 137.891C53.4626 139.504 53.5542 141.136 53.4899 142.766C53.4899 144.828 53.2163 147.276 53.3329 149.982C53.4968 152.923 53.9002 155.847 54.5389 158.723C55.8361 164.859 57.4474 170.352 57.7312 174.492C57.8862 176.115 57.8862 177.749 57.7312 179.371C57.691 179.82 57.6216 180.265 57.5234 180.704C57.4829 180.836 57.4525 180.942 57.4272 181.033C57.4181 181.072 57.4044 181.109 57.3866 181.145C57.3799 181.106 57.3799 181.067 57.3866 181.028C57.3866 180.937 57.4272 180.826 57.4576 180.689C57.5386 180.257 57.5961 179.82 57.6299 179.382C57.7425 177.764 57.7153 176.14 57.5488 174.527C57.2143 170.423 55.5827 164.945 54.2804 158.819C53.6381 155.929 53.2398 152.989 53.0896 150.032C52.9883 147.296 53.2619 144.854 53.3025 142.801C53.3847 141.181 53.3219 139.556 53.115 137.947C53.051 137.511 52.9613 137.08 52.8464 136.655C52.8059 136.523 52.7755 136.417 52.7451 136.326C52.7313 136.274 52.7228 136.222 52.7197 136.168Z" fill="#263238"/>
<path d="M63.4926 137.278C63.4268 137.309 62.2562 135.059 60.883 132.246C59.5098 129.434 58.4457 127.134 58.5116 127.103C58.5774 127.073 59.7429 129.323 61.1212 132.13C62.4995 134.937 63.5585 137.248 63.4926 137.278Z" fill="white"/>
<path d="M71.8586 131.654C71.9194 131.699 69.5986 134.922 66.6799 138.849C63.7612 142.776 61.3492 145.943 61.2935 145.887C61.2377 145.832 63.5484 142.624 66.4671 138.692C69.3858 134.76 71.8028 131.613 71.8586 131.654Z" fill="white"/>
<path d="M71.0731 143.283C70.5487 142.735 70.0896 142.128 69.705 141.474C69.2482 140.869 68.8638 140.212 68.5598 139.518C69.0843 140.066 69.5434 140.673 69.928 141.327C70.3848 141.932 70.7691 142.588 71.0731 143.283Z" fill="white"/>
<path d="M82.3527 133.042C82.4135 133.073 81.1518 135.637 79.5303 138.763C77.9088 141.889 76.5356 144.398 76.49 144.367C76.4444 144.337 77.6909 141.768 79.3124 138.641C80.9339 135.515 82.3071 133.007 82.3527 133.042Z" fill="white"/>
<path d="M87.7797 143.268C87.4517 143.099 87.151 142.882 86.8879 142.624C86.2159 142.049 85.5969 141.415 85.0383 140.729C84.4662 140.049 83.9573 139.318 83.5182 138.545C83.3153 138.232 83.1615 137.891 83.0621 137.531C83.1331 137.491 83.9134 138.971 85.2157 140.546C86.518 142.122 87.8304 143.207 87.7797 143.268Z" fill="white"/>
<path d="M96.2065 131.436C95.8479 131.823 95.4618 132.184 95.0512 132.515C94.3215 133.164 93.3131 134.066 92.2237 135.079C91.1342 136.093 90.1968 137.035 89.4722 137.714C89.1148 138.103 88.7267 138.462 88.3118 138.788C88.6131 138.357 88.9522 137.953 89.3252 137.582C89.989 136.868 90.9366 135.905 92.0311 134.887C93.1256 133.868 94.1492 132.986 94.9143 132.353C95.3131 132.005 95.746 131.697 96.2065 131.436Z" fill="white"/>
<path d="M101.608 146.855C101.552 146.901 99.7028 144.828 97.4732 142.178C95.2437 139.528 93.4853 137.38 93.5411 137.334C93.5968 137.289 95.4464 139.361 97.6759 142.011C99.9055 144.661 101.659 146.805 101.608 146.855Z" fill="white"/>
<path d="M107.522 134.502C106.691 135.491 105.794 136.422 104.836 137.289C103.939 138.219 102.981 139.087 101.968 139.888C102.797 138.908 103.693 137.985 104.648 137.126C105.546 136.188 106.506 135.311 107.522 134.502Z" fill="white"/>
<path d="M116.86 145.234C116.39 144.985 115.947 144.688 115.538 144.347C113.497 142.788 111.674 140.962 110.116 138.92C109.775 138.511 109.478 138.068 109.229 137.598C109.591 137.979 109.929 138.382 110.243 138.804C110.866 139.559 111.763 140.572 112.812 141.626C113.861 142.68 114.879 143.572 115.634 144.2C116.065 144.517 116.475 144.863 116.86 145.234Z" fill="white"/>
<path d="M122.591 135.038C122.323 135.341 122.03 135.621 121.715 135.875C121.157 136.381 120.402 137.075 119.602 137.901C118.801 138.727 118.122 139.482 117.631 140.045C117.385 140.367 117.11 140.665 116.81 140.937C116.995 140.573 117.222 140.232 117.489 139.923C118.085 139.147 118.728 138.407 119.414 137.709C120.102 137.011 120.829 136.355 121.593 135.743C121.894 135.465 122.229 135.228 122.591 135.038Z" fill="white"/>
<path d="M130.405 146.754C130.354 146.805 128.707 145.153 126.726 143.07C124.745 140.987 123.179 139.249 123.24 139.199C124.528 140.365 125.756 141.596 126.919 142.888C128.895 144.98 130.456 146.708 130.405 146.754Z" fill="white"/>
<path d="M135.497 132.687C135.167 133.103 134.806 133.494 134.418 133.858C133.744 134.567 132.822 135.555 131.849 136.69C130.876 137.826 130.04 138.89 129.442 139.67C129.136 140.108 128.797 140.523 128.429 140.911C128.667 140.435 128.948 139.983 129.27 139.559C129.832 138.748 130.648 137.658 131.626 136.518C132.604 135.378 133.552 134.405 134.266 133.726C134.641 133.34 135.054 132.992 135.497 132.687Z" fill="white"/>
<path d="M141.239 144.534C140.839 144.299 140.463 144.024 140.119 143.713C139.45 143.166 138.553 142.376 137.585 141.459C136.618 140.541 135.832 139.66 135.265 139.006C134.938 138.671 134.651 138.301 134.408 137.901C134.77 138.201 135.109 138.528 135.422 138.879C136.015 139.503 136.846 140.354 137.788 141.271C138.731 142.188 139.602 142.989 140.235 143.572C140.598 143.862 140.933 144.184 141.239 144.534Z" fill="white"/>
<path d="M151.348 132.566C151.06 132.982 150.731 133.367 150.365 133.716C149.721 134.4 148.799 135.307 147.72 136.25C146.64 137.192 145.617 137.978 144.857 138.52C144.459 138.835 144.031 139.11 143.58 139.341C143.944 138.99 144.334 138.667 144.745 138.373C145.475 137.795 146.478 136.985 147.547 136.052C148.617 135.12 149.574 134.233 150.233 133.589C150.58 133.222 150.952 132.88 151.348 132.566Z" fill="white"/>
<path d="M160.388 133.767C160.438 134.191 160.438 134.619 160.388 135.044C160.352 135.834 160.261 136.923 160.099 138.119C159.937 139.315 159.734 140.384 159.562 141.16C159.495 141.583 159.378 141.996 159.212 142.391C159.23 141.965 159.286 141.541 159.379 141.124C159.506 140.349 159.678 139.275 159.84 138.084C160.003 136.893 160.119 135.814 160.205 135.044C160.221 134.613 160.282 134.185 160.388 133.767Z" fill="white"/>
<g opacity="0.3">
<path opacity="0.3" d="M108.479 145.781C107.425 144.57 106.316 143.323 104.841 142.685C102.814 141.813 100.498 142.234 98.3398 142.685C89.3506 144.55 80.3985 146.6 71.4836 148.836L72.4008 149.804C75.2638 153.539 80.6603 154 85.3576 153.762C90.0549 153.524 95.1829 153.022 99.0745 155.667C102.533 158.129 105.53 161.183 107.927 164.687C114.687 174.76 119.531 179.969 127.066 186.562C134.935 193.453 141.761 201.257 152.077 199.458C138.166 181.071 123.634 163.178 108.479 145.781Z" fill="black"/>
</g>
<path d="M35.0708 142.239L36.2565 137.755C36.2565 137.755 24.83 128.254 26.7555 124.164C26.9249 123.52 27.2993 122.949 27.8223 122.537C28.3452 122.124 28.9882 121.894 29.6539 121.879C29.6539 121.879 28.3314 119.112 30.1607 117.07C31.9899 115.028 34.0117 115.869 34.0117 115.869C34.0117 115.869 33.049 112.981 33.652 111.659C33.7515 111.439 33.8685 111.227 34.0016 111.025C34.3868 110.438 34.9135 109.956 35.5333 109.625C36.153 109.294 36.846 109.124 37.5486 109.13H38.481L36.5808 102.239C36.3283 101.322 36.3388 100.353 36.6112 99.4416L36.9659 98.2457C37.2753 97.2546 37.9484 96.4173 38.8498 95.9022C39.7513 95.387 40.8144 95.2322 41.8253 95.4689C43.2695 95.8236 44.359 96.4519 44.359 97.587V98.19L41.9368 99.5125C41.9368 99.5125 45.6359 108.75 45.9957 109.257C46.3554 109.763 49.9683 114.071 49.9683 114.071C49.9683 114.071 50.3281 108.659 52.73 108.294C55.1318 107.929 55.978 109.378 55.6183 110.463C55.2585 111.547 55.299 112.93 55.6993 114.582C55.6993 114.582 54.4173 126.338 54.5339 129.465C54.6504 132.591 53.2114 132.591 53.2114 132.591C53.2114 132.591 52.9732 137.04 52.132 139.447C51.2909 141.854 43.5938 150.747 40.1025 149.794C36.6112 148.842 35.0708 142.239 35.0708 142.239Z" fill="#F0D0B8"/>
<path d="M29.5525 121.682C29.6538 121.705 29.7523 121.739 29.8464 121.783L30.6673 122.117L33.6772 123.389L38.1211 125.305L40.7459 126.445C41.2189 126.635 41.6807 126.851 42.1293 127.093C42.6235 127.345 43.0168 127.758 43.2441 128.264C43.3554 128.576 43.3409 128.92 43.2035 129.221C43.0645 129.506 42.8417 129.741 42.5651 129.895C42.0527 130.183 41.4838 130.356 40.898 130.402C38.1169 130.756 35.296 130.196 32.8614 128.806H32.9627C32.1544 129.585 31.0938 130.049 29.9731 130.113C29.8943 130.128 29.8136 130.128 29.7349 130.113C29.7349 130.113 30.0643 130.113 30.6419 129.946C31.471 129.729 32.229 129.299 32.8411 128.7L32.8867 128.654L32.9424 128.684C34.4289 129.496 36.0584 130.012 37.7411 130.205C38.7804 130.322 39.8302 130.314 40.8675 130.179C41.4141 130.139 41.9459 129.983 42.4282 129.723C42.6581 129.592 42.8447 129.396 42.9654 129.161C43.0738 128.921 43.0847 128.648 42.9958 128.401C42.7796 127.96 42.4232 127.603 41.9823 127.387C41.5453 127.146 41.0934 126.933 40.6294 126.749L38.0147 125.593L33.591 123.622L30.6166 122.274L29.816 121.894C29.718 121.837 29.6292 121.765 29.5525 121.682Z" fill="#794742"/>
<path d="M33.2872 115.733C33.3764 115.741 33.4647 115.758 33.5507 115.783C33.7984 115.838 34.0422 115.909 34.2803 115.996C35.1609 116.318 35.9969 116.75 36.7683 117.283C38.7699 118.55 41.0501 121.002 44.4451 122.269C45.2682 122.611 46.0326 123.079 46.7102 123.658C47.3327 124.236 47.755 124.997 47.9162 125.831C47.9992 126.211 47.9906 126.605 47.891 126.98C47.7915 127.356 47.6038 127.702 47.3436 127.99C46.8575 128.461 46.2113 128.731 45.5346 128.745C44.9908 128.761 44.4494 128.666 43.9435 128.466C43.5673 128.321 43.2045 128.143 42.8591 127.934C42.5703 127.767 42.3524 127.63 42.2156 127.529C42.1382 127.486 42.0667 127.433 42.0027 127.372C42.3112 127.515 42.6122 127.674 42.9047 127.848C43.2557 128.035 43.6198 128.196 43.9942 128.33C44.4808 128.506 44.9975 128.583 45.5143 128.558C46.1374 128.534 46.7289 128.278 47.1713 127.838C47.406 127.575 47.5745 127.26 47.6626 126.919C47.7507 126.578 47.756 126.221 47.678 125.877C47.5248 125.098 47.1272 124.388 46.5429 123.85C45.8814 123.295 45.14 122.842 44.3438 122.507C43.5313 122.171 42.7395 121.787 41.9723 121.357C41.2682 120.937 40.5913 120.474 39.9455 119.969C38.7091 119.016 37.645 118.099 36.672 117.435C35.9213 116.894 35.1102 116.441 34.255 116.087C33.6368 115.844 33.2821 115.763 33.2872 115.733Z" fill="#794742"/>
<path d="M37.5283 109.257C37.6318 109.287 37.7307 109.331 37.8222 109.388L38.6278 109.819L41.5719 111.441L45.9195 113.873C46.8094 114.316 47.6345 114.879 48.3721 115.545C48.7783 115.916 49.09 116.378 49.2813 116.894C49.4726 117.409 49.5378 117.963 49.4716 118.509C49.367 119.073 49.0585 119.578 48.6051 119.928C48.1581 120.252 47.6339 120.453 47.085 120.511C46.0743 120.592 45.0638 120.352 44.1967 119.827C43.3606 119.371 42.636 118.844 41.9266 118.413C41.2172 117.982 40.5483 117.592 39.8997 117.273C38.9063 116.762 37.8595 116.363 36.7783 116.082C36.0132 115.895 35.5774 115.844 35.5774 115.819C35.6852 115.807 35.7939 115.807 35.9017 115.819C36.205 115.849 36.5062 115.899 36.8037 115.966C37.904 116.209 38.9708 116.585 39.9808 117.085C40.6243 117.395 41.3084 117.769 42.0077 118.205C42.7069 118.641 43.4569 119.153 44.2727 119.594C45.0977 120.091 46.0592 120.315 47.0191 120.232C47.5144 120.176 47.9862 119.991 48.3873 119.695C48.7896 119.388 49.0626 118.942 49.1524 118.443C49.2131 117.94 49.1529 117.429 48.9766 116.953C48.8004 116.477 48.5132 116.05 48.139 115.707C47.4188 115.058 46.6163 114.506 45.7523 114.065L41.43 111.582L38.5265 109.885L37.7462 109.414C37.6712 109.365 37.5985 109.312 37.5283 109.257Z" fill="#794742"/>
<path d="M44.3134 97.6021C44.3134 97.6021 44.3539 97.6933 44.3792 97.8757C44.3707 97.989 44.3503 98.1011 44.3184 98.2101C44.2593 98.3467 44.1845 98.4759 44.0955 98.5952C43.5307 99.221 42.7968 99.6698 41.9824 99.8874C41.191 100.142 40.3603 100.251 39.5299 100.212C39.1793 100.212 38.833 100.134 38.5165 99.9836C38.5165 99.938 38.9067 100.024 39.5299 100.024C40.332 100.012 41.1278 99.8802 41.8912 99.634C42.6522 99.4229 43.3487 99.0259 43.9181 98.4787C44.0071 98.3791 44.0852 98.2704 44.1512 98.1544C44.1917 98.0429 44.2221 97.9466 44.2475 97.8706C44.2496 97.7774 44.272 97.6857 44.3134 97.6021Z" fill="#794742"/>
<path d="M47.1104 137.126C46.708 135.831 46.1063 134.607 45.3267 133.498C44.4767 132.442 43.4662 131.525 42.332 130.782C42.72 130.902 43.085 131.087 43.4113 131.329C44.2307 131.879 44.9504 132.565 45.5396 133.356C46.1292 134.142 46.5831 135.02 46.8824 135.956C47.0239 136.33 47.101 136.726 47.1104 137.126Z" fill="#794742"/>
<path d="M43.7306 140.07C43.7306 140.07 43.6343 140.167 43.4265 140.288C43.1332 140.46 42.8201 140.597 42.4942 140.694C41.4084 141.033 40.2433 141.02 39.165 140.658C38.088 140.278 37.1575 139.569 36.5047 138.631C36.3025 138.354 36.1325 138.055 35.998 137.739C35.938 137.628 35.9018 137.506 35.8916 137.38C35.9372 137.38 36.1247 137.856 36.6365 138.52C37.2961 139.386 38.1986 140.037 39.2291 140.389C40.2596 140.74 41.3714 140.778 42.4232 140.496C43.2542 140.308 43.7103 140.03 43.7306 140.07Z" fill="#794742"/>
<path d="M50.7891 134.05C50.4936 134.147 50.1798 134.175 49.8719 134.131C49.1223 134.079 48.3961 133.848 47.7538 133.458C47.1116 133.069 46.5699 132.534 46.1729 131.897C45.9926 131.644 45.873 131.352 45.8232 131.046C45.8638 131.046 46.0057 131.35 46.33 131.795C46.7499 132.372 47.2804 132.86 47.8907 133.229C48.5047 133.597 49.1846 133.842 49.8922 133.949C50.193 133.964 50.4925 133.998 50.7891 134.05Z" fill="#794742"/>
<path d="M52.963 125.077C52.5837 125.151 52.1926 125.141 51.8178 125.046C50.8958 124.874 50.0402 124.448 49.3473 123.816C48.6543 123.184 48.1516 122.371 47.8958 121.469C47.7662 121.105 47.7195 120.717 47.759 120.334C47.8046 120.334 47.8451 120.764 48.0732 121.413C48.37 122.256 48.8674 123.014 49.5224 123.622C50.1859 124.221 50.9863 124.647 51.8533 124.864C52.512 125.031 52.963 125.031 52.963 125.077Z" fill="#794742"/>
<path d="M41.0804 100.313L51.0172 120.404C51.0172 120.404 54.0575 123.673 54.392 126.105L58.7244 131.816L61.7647 129.895L59.6821 123.196C59.6821 123.196 56.5861 119.974 56.5861 117.329L45.2659 98.1948L41.0804 100.313Z" fill="#5DDEEC"/>
<path d="M56.6114 117.334C55.8349 118.069 54.9642 118.698 54.0221 119.204C53.1225 119.785 52.1402 120.228 51.1084 120.516C51.078 120.44 52.3803 119.867 53.8903 118.996C55.4003 118.124 56.5658 117.273 56.6114 117.334Z" fill="#263238"/>
<path d="M59.6264 123.202C58.8191 123.789 57.963 124.306 57.0675 124.747C56.2141 125.267 55.3152 125.708 54.3818 126.065C55.1806 125.478 56.0282 124.961 56.9154 124.519C57.7776 123.999 58.6849 123.558 59.6264 123.202Z" fill="#263238"/>
<path d="M48.3214 103.328C47.6385 103.856 46.9053 104.316 46.1324 104.701C45.4003 105.16 44.6225 105.542 43.8116 105.841C44.494 105.31 45.2292 104.849 46.0057 104.468C46.7359 104.009 47.512 103.626 48.3214 103.328Z" fill="#263238"/>
<path d="M52.4258 113.772L52.5171 113.731C52.7578 113.615 53.0345 113.6 53.2869 113.687C53.5393 113.774 53.747 113.958 53.8649 114.197L56.0945 118.575C56.1577 118.696 56.196 118.827 56.2072 118.963C56.2184 119.098 56.2022 119.235 56.1597 119.364C56.1171 119.493 56.049 119.612 55.9595 119.714C55.87 119.816 55.7608 119.899 55.6385 119.959C55.5204 120.02 55.3913 120.058 55.2586 120.07C55.1259 120.082 54.9922 120.067 54.8651 120.027C54.738 119.987 54.6201 119.922 54.518 119.837C54.416 119.751 54.3318 119.646 54.2703 119.528L51.9495 115.19C51.8812 115.067 51.8392 114.931 51.8264 114.791C51.8135 114.651 51.83 114.509 51.8748 114.376C51.9197 114.242 51.9918 114.12 52.0867 114.016C52.1815 113.912 52.2971 113.829 52.4258 113.772Z" fill="#455A64"/>
<path d="M133.248 187.114L113.486 160.81L128.18 145.69L146.524 162.33L151.343 133.767L160.048 93.7357C160.048 93.7357 177.616 99.5681 177.616 115.337C177.616 131.106 171.687 180.116 167.73 187.798C166.276 190.621 164.999 193.681 163.068 195.784C159.744 199.402 155.376 201.11 151.267 200.304C139.678 198.014 133.248 187.114 133.248 187.114Z" fill="#455A64"/>
<path d="M57.0168 138.783C57.0168 138.783 56.956 135.859 60.5942 135.925C60.5942 135.925 62.9353 135.986 65.859 139.695L68.3926 140.602L58.7903 131.826C58.7903 131.826 60.6297 129.363 62.6464 129.946C64.6632 130.529 65.7932 133.326 68.0025 134.167C70.2118 135.008 73.1406 137.354 73.1406 137.354L79.6368 138.459L80.2246 137.744L66.9941 124.514C66.9941 124.514 69.2135 121.408 71.8789 123.501C74.5442 125.593 78.598 129.693 79.3783 130.28C80.1587 130.868 83.0825 132.88 83.0825 132.88L88.1496 133.787L91.9196 132.424C91.9196 132.424 90.9467 129.5 93.607 128.846C96.2673 128.193 102.318 130.929 102.318 130.929C103.85 129.856 105.682 129.296 107.552 129.328C110.805 129.328 113.308 132.191 113.501 134.395C113.693 136.599 106.913 145.224 106.913 145.224L104.142 146.911L87.045 149.571L83.8577 149.247L76.2215 150.742L60.8983 145.741C60.8983 145.741 59.5352 143.207 62.0029 142.751L57.0168 138.783Z" fill="#F0D0B8"/>
<path d="M84.5519 142.994C84.5519 143.019 84.2377 142.913 83.6652 142.862C82.8548 142.827 82.0443 142.93 81.2684 143.166C80.2549 143.425 79.13 143.896 77.7771 144.18C76.299 144.462 74.7782 144.431 73.3129 144.089C71.7522 143.779 70.3182 143.308 68.9956 142.974C67.8365 142.654 66.6481 142.452 65.4486 142.371C64.6377 142.33 63.8249 142.396 63.0315 142.568C62.4741 142.7 62.1752 142.822 62.165 142.796C62.1549 142.771 62.236 142.751 62.3728 142.695C62.5784 142.606 62.79 142.531 63.0062 142.472C63.8032 142.255 64.6282 142.16 65.4536 142.188C66.6727 142.237 67.8827 142.421 69.0615 142.736C70.3942 143.065 71.8282 143.526 73.3686 143.83C74.8019 144.163 76.2881 144.201 77.7365 143.942C79.0591 143.663 80.2144 143.207 81.2278 142.969C82.0254 142.748 82.8561 142.673 83.6804 142.746C83.902 142.776 84.1207 142.825 84.334 142.893C84.4116 142.915 84.4852 142.949 84.5519 142.994Z" fill="#794742"/>
<path d="M80.569 142.411C79.8406 142.239 79.1005 142.121 78.3547 142.057C77.5458 142.009 76.7342 142.061 75.9376 142.209C75.4657 142.296 74.9988 142.41 74.5391 142.548C74.0296 142.722 73.488 142.781 72.9531 142.72C71.9624 142.492 71.0077 142.129 70.1154 141.641L67.9213 140.541C67.4283 140.293 66.9206 140.075 66.4012 139.888C66.0363 139.751 65.8235 139.721 65.8286 139.695C65.8336 139.67 65.8843 139.695 65.9857 139.695C66.1364 139.712 66.2856 139.74 66.4316 139.781C66.9662 139.937 67.488 140.133 67.9923 140.369C68.6307 140.653 69.3756 141.023 70.2117 141.418C71.0876 141.871 72.0172 142.211 72.9784 142.432C73.4792 142.484 73.9855 142.429 74.4631 142.269C74.9288 142.131 75.4027 142.021 75.8819 141.94C76.6985 141.802 77.5295 141.768 78.3547 141.839C78.9096 141.887 79.458 141.992 79.9914 142.153C80.1957 142.21 80.3904 142.297 80.569 142.411Z" fill="#794742"/>
<path d="M83.0723 133.964C83.123 134.025 82.4693 134.587 81.9272 135.484C81.385 136.381 81.1671 137.212 81.0911 137.197C81.1055 136.534 81.3172 135.89 81.6991 135.348C82.005 134.757 82.4842 134.274 83.0723 133.964Z" fill="#794742"/>
<path d="M89.0262 138.14C88.9451 138.14 89.0262 137.278 88.8843 136.255C88.7424 135.231 88.3776 134.446 88.4586 134.41C88.8506 134.936 89.0876 135.561 89.1427 136.214C89.2825 136.854 89.2422 137.521 89.0262 138.14Z" fill="#794742"/>
<path d="M97.3112 137.126C96.8067 137.378 96.2832 137.59 95.7454 137.76C94.7725 138.119 93.4094 138.591 91.9146 139.118C91.5447 139.249 91.1748 139.366 90.8252 139.503L89.8117 139.898L88.1142 140.562C87.5981 140.788 87.0642 140.971 86.5181 141.109C87.0048 140.829 87.5131 140.588 88.0382 140.389L89.7256 139.675L90.739 139.259C91.0887 139.123 91.4586 139.001 91.8336 138.869C93.3537 138.363 94.7016 137.896 95.6897 137.582C96.2171 137.387 96.7594 137.235 97.3112 137.126Z" fill="#794742"/>
<path d="M105.282 139.964C105.081 139.923 104.884 139.864 104.694 139.787L103.123 139.219C101.796 138.743 99.9613 138.089 97.9142 137.42C96.9007 137.076 95.8873 136.797 95.0309 136.447C94.2396 136.155 93.5169 135.703 92.9078 135.12C92.4996 134.722 92.1907 134.235 92.0058 133.696C91.926 133.502 91.8913 133.292 91.9045 133.083C91.9045 133.083 91.9551 133.295 92.1021 133.66C92.3179 134.164 92.6373 134.616 93.0395 134.988C93.646 135.531 94.3537 135.95 95.1221 136.219C95.9835 136.549 96.9767 136.822 98.0003 137.167C100.027 137.841 101.877 138.525 103.189 139.047C103.843 139.305 104.37 139.528 104.709 139.69C104.912 139.754 105.105 139.846 105.282 139.964Z" fill="#794742"/>
<path d="M107.537 132.15C107.122 132.186 106.704 132.152 106.3 132.049C105.322 131.855 104.354 131.608 103.402 131.309C102.287 130.964 101.289 130.61 100.58 130.326C100.185 130.204 99.807 130.034 99.4546 129.819C99.8613 129.897 100.26 130.012 100.645 130.164L103.478 131.071C104.588 131.41 105.601 131.699 106.341 131.882C107.081 132.064 107.542 132.115 107.537 132.15Z" fill="#794742"/>
<path d="M103.823 146.957L114.403 160.025L126.346 147.58L112.802 132.784L103.823 146.957Z" fill="#F0D0B8"/>
<path d="M172.371 167.225C172.371 167.225 172.371 167.362 172.316 167.631C172.26 167.899 172.209 168.3 172.128 168.816C171.961 169.83 171.708 171.391 171.348 173.377C170.988 175.363 170.517 177.755 169.858 180.522C169.144 183.666 168.193 186.752 167.015 189.754C166.323 191.507 165.388 193.155 164.239 194.649C162.956 196.248 161.389 197.596 159.617 198.627C157.712 199.722 155.575 200.352 153.38 200.466C151.05 200.542 148.731 200.105 146.59 199.184C144.344 198.229 142.267 196.919 140.438 195.303C138.541 193.619 136.793 191.775 135.214 189.79C133.589 187.786 131.983 185.717 130.395 183.582C128.807 181.447 127.191 179.29 125.546 177.111L113.384 160.896L113.318 160.81L113.394 160.729L128.089 145.619L128.16 145.548L128.231 145.604C129.245 146.399 130.116 147.22 131.018 148.021L133.628 150.382L138.467 154.811L146.574 162.285C149.194 164.174 151.175 166.817 152.255 169.86C152.411 170.325 152.533 170.801 152.62 171.284C152.7 171.631 152.753 171.983 152.777 172.338C152.777 172.617 152.812 172.845 152.822 172.987C152.832 173.129 152.822 173.205 152.822 173.205C152.822 173.205 152.822 173.134 152.792 172.987C152.761 172.84 152.756 172.622 152.726 172.343C152.696 171.99 152.639 171.639 152.554 171.294C152.459 170.817 152.332 170.346 152.174 169.886C151.727 168.605 151.099 167.395 150.309 166.293C149.817 165.591 149.267 164.93 148.667 164.317C147.999 163.615 147.268 162.976 146.483 162.406L138.376 154.968L133.531 150.529L130.912 148.173C130.02 147.382 129.108 146.541 128.15 145.781H128.292L113.597 160.912V160.749L125.758 176.964C127.4 179.15 129.017 181.307 130.608 183.435C132.199 185.564 133.802 187.631 135.416 189.638C136.993 191.607 138.736 193.438 140.625 195.11C142.433 196.707 144.486 198.002 146.706 198.946C148.813 199.858 151.095 200.294 153.39 200.223C155.542 200.119 157.639 199.508 159.511 198.439C161.261 197.43 162.807 196.103 164.071 194.527C165.215 193.051 166.146 191.423 166.838 189.688C168.023 186.699 168.982 183.624 169.706 180.491C170.38 177.73 170.861 175.328 171.226 173.367C171.591 171.406 171.875 169.87 172.057 168.806C172.149 168.3 172.219 167.899 172.27 167.626C172.321 167.352 172.371 167.225 172.371 167.225Z" fill="#263238"/>
<path d="M152.625 115.52C152.63 115.56 152.63 115.601 152.625 115.641C152.625 115.738 152.584 115.849 152.559 115.991C152.493 116.32 152.397 116.766 152.28 117.329C152.032 118.484 151.682 120.161 151.267 122.239C150.431 126.389 149.377 132.14 148.449 138.53C147.522 144.92 146.904 150.742 146.529 154.958C146.336 157.066 146.194 158.773 146.103 159.954C146.058 160.527 146.017 160.967 145.992 161.312C145.992 161.454 145.966 161.57 145.956 161.667C145.958 161.707 145.958 161.748 145.956 161.788C145.948 161.748 145.948 161.707 145.956 161.667C145.956 161.57 145.956 161.454 145.956 161.312C145.956 160.978 145.992 160.521 146.017 159.949C146.078 158.763 146.189 157.055 146.357 154.942C146.686 150.721 147.279 144.894 148.201 138.494C149.123 132.094 150.228 126.333 151.099 122.198C151.54 120.126 151.915 118.454 152.199 117.303C152.336 116.746 152.442 116.29 152.523 115.981L152.615 115.636C152.609 115.56 152.625 115.52 152.625 115.52Z" fill="#263238"/>
<path d="M159.8 145.984C159.8 145.984 159.658 145.903 159.43 145.715C159.202 145.528 158.883 145.244 158.498 144.889C157.496 143.953 156.542 142.967 155.64 141.935C154.741 140.906 153.895 139.832 153.106 138.717C152.802 138.292 152.564 137.937 152.407 137.704C152.314 137.581 152.241 137.444 152.189 137.298C152.572 137.717 152.929 138.159 153.258 138.621C153.902 139.447 154.804 140.577 155.858 141.778C156.912 142.979 157.915 144.023 158.65 144.768C159.056 145.151 159.44 145.557 159.8 145.984Z" fill="white"/>
<path d="M165.683 131.643C164.996 133.109 164.233 134.539 163.398 135.925C162.632 137.357 161.787 138.744 160.864 140.08C161.549 138.613 162.311 137.184 163.149 135.799C163.916 134.367 164.762 132.98 165.683 131.643Z" fill="white"/>
<path d="M174.069 146.592C174.003 146.617 172.969 144.322 171.769 141.464C170.568 138.606 169.64 136.26 169.706 136.234C169.772 136.209 170.806 138.499 172.007 141.362C173.208 144.225 174.155 146.561 174.069 146.592Z" fill="white"/>
<path d="M115.249 3.23553C118.208 2.96697 121.188 3.74225 123.889 4.96851C130.582 8.00883 135.726 13.8361 139.131 20.3525C142.536 26.8689 144.35 34.0897 145.779 41.3003C147.613 50.5213 148.869 59.8479 149.539 69.2257C149.741 72.0531 151.236 92.6006 151.566 96.7811L107.658 7.3501C109.356 4.91277 112.29 3.50409 115.249 3.23553Z" fill="#263238"/>
<path d="M130.562 20.2055L110.982 12.3159L105.854 12.8885C94.3265 12.8885 86.3102 25.5565 86.1936 34.8903C86.0568 45.2628 86.3051 57.9359 87.9165 65.5924C91.1595 80.9815 103.148 82.3598 103.148 82.3598C103.148 82.3598 103.012 86.5656 102.885 91.729C102.833 93.9289 103.227 96.1164 104.044 98.1597C104.861 100.203 106.082 102.06 107.636 103.618C109.19 105.176 111.043 106.404 113.083 107.227C115.124 108.049 117.311 108.45 119.51 108.405C123.761 108.321 127.81 106.577 130.793 103.547C133.775 100.518 135.454 96.4416 135.472 92.1902L135.72 25.5109C135.682 24.141 135.13 22.8355 134.175 21.853C133.22 20.8704 131.93 20.2825 130.562 20.2055Z" fill="#F0D0B8"/>
<path d="M91.1899 46.2257C91.2098 46.7463 91.4333 47.2383 91.8125 47.5956C92.1916 47.953 92.6959 48.147 93.2168 48.136C93.471 48.1442 93.7242 48.1012 93.9615 48.0097C94.1988 47.9181 94.4153 47.7799 94.5981 47.6032C94.781 47.4265 94.9265 47.2148 95.0261 46.9808C95.1257 46.7468 95.1773 46.4952 95.1778 46.2409C95.158 45.7203 94.9344 45.2283 94.5553 44.871C94.1762 44.5136 93.6718 44.3196 93.1509 44.3306C92.8968 44.3224 92.6435 44.3654 92.4063 44.4569C92.169 44.5484 91.9525 44.6867 91.7696 44.8634C91.5868 45.0401 91.4412 45.2518 91.3417 45.4858C91.2421 45.7198 91.1905 45.9714 91.1899 46.2257Z" fill="#263238"/>
<path d="M89.2643 40.1857C89.5278 40.434 90.977 39.2432 93.1205 39.1419C95.2639 39.0405 96.8854 40.0337 97.1033 39.7601C97.2097 39.6385 96.9361 39.1824 96.2267 38.7162C95.2685 38.1214 94.1502 37.8365 93.0242 37.9004C91.9131 37.954 90.8481 38.3605 89.9838 39.0608C89.3403 39.5979 89.1376 40.0793 89.2643 40.1857Z" fill="#263238"/>
<path d="M103.361 56.9479C103.361 56.8263 102.024 56.6641 99.8497 56.4969C99.3025 56.4665 98.7755 56.3854 98.6691 56.0155C98.5626 55.6456 98.7197 55.0021 98.9528 54.3738C99.3987 53.0259 99.8649 51.6122 100.362 50.1325C102.307 44.0924 103.691 39.1367 103.442 39.0607C103.194 38.9847 101.415 43.8188 99.4747 49.8589L98.137 54.1204C97.9596 54.7538 97.6303 55.4784 97.9596 56.2841C98.0483 56.4729 98.1788 56.639 98.3412 56.7698C98.5037 56.9006 98.6937 56.9927 98.8971 57.0391C99.2053 57.1028 99.5199 57.13 99.8345 57.1202C102.008 57.1303 103.356 57.0645 103.361 56.9479Z" fill="#263238"/>
<path d="M103.154 82.3601C110.466 82.1042 117.563 79.8237 123.655 75.7727C123.655 75.7727 118.659 86.804 103.052 86.1301L103.154 82.3601Z" fill="#DAB599"/>
<path d="M109.716 58.1136C109.366 58.1136 109.477 60.4344 107.572 62.1674C105.667 63.9003 103.179 63.7889 103.174 64.1132C103.174 64.2601 103.751 64.5388 104.795 64.5135C106.159 64.4652 107.461 63.9377 108.474 63.0237C109.442 62.1438 110.032 60.9236 110.121 59.6186C110.182 58.6558 109.893 58.0781 109.716 58.1136Z" fill="#263238"/>
<path d="M90.592 34.2012C90.9924 34.6674 92.4416 34.0897 94.2151 33.9783C95.9886 33.8668 97.5088 34.1404 97.828 33.6134C97.9648 33.3601 97.7064 32.8837 97.0274 32.4581C96.1177 31.9509 95.0779 31.725 94.0397 31.8089C93.0015 31.8927 92.0116 32.2827 91.195 32.9293C90.5921 33.4614 90.4147 33.9732 90.592 34.2012Z" fill="#263238"/>
<path d="M115.183 46.099C115.193 46.6169 115.001 47.1184 114.647 47.4968C114.293 47.8752 113.805 48.1009 113.288 48.1258C113.035 48.1487 112.78 48.1209 112.538 48.0439C112.296 47.967 112.071 47.8426 111.878 47.6779C111.684 47.5133 111.526 47.3116 111.411 47.0849C111.296 46.8581 111.228 46.6108 111.21 46.3574C111.201 45.8394 111.393 45.338 111.747 44.9595C112.101 44.5811 112.588 44.3555 113.106 44.3305C113.359 44.3076 113.614 44.3355 113.856 44.4124C114.098 44.4893 114.322 44.6137 114.516 44.7784C114.709 44.9431 114.868 45.1447 114.982 45.3714C115.097 45.5982 115.165 45.8455 115.183 46.099Z" fill="#263238"/>
<path d="M118.837 39.9375C118.593 40.201 117.068 39.1014 114.925 39.1368C112.781 39.1723 111.226 40.2618 110.987 39.9983C110.871 39.8868 111.119 39.4105 111.798 38.9038C112.718 38.2508 113.817 37.897 114.945 37.8903C116.06 37.8726 117.151 38.2097 118.061 38.8531C118.75 39.3294 118.978 39.8361 118.837 39.9375Z" fill="#263238"/>
<path d="M117.924 33.1373C117.555 33.6441 116.07 33.1373 114.291 33.1373C112.513 33.1373 111.018 33.5072 110.663 33.0005C110.511 32.7573 110.739 32.2658 111.393 31.7945C112.269 31.2329 113.293 30.9438 114.334 30.9636C115.374 30.9834 116.386 31.3114 117.24 31.906C117.874 32.4026 118.087 32.8992 117.924 33.1373Z" fill="#263238"/>
<path d="M113.263 10.6641C118.218 8.63722 125.804 9.34156 130.06 12.5744C134.317 15.8073 136.972 20.8644 137.945 26.1191C138.918 31.3737 137.616 39.162 136.227 44.3255C128.201 33.9884 119.941 22.0653 112.198 11.5154L113.263 10.6641Z" fill="#263238"/>
<path d="M109.447 5.96666C82.2513 2.13586 84.8255 36.907 84.8255 36.907C96.6827 28.4397 108.575 12.2551 108.575 12.2551L112.862 11.5304L109.447 5.96666Z" fill="#263238"/>
<path d="M132.629 51.7137C132.574 50.5583 133.77 47.7663 134.905 47.5332C137.945 46.9049 143.433 46.8745 143.874 54.6273C144.471 65.2076 133.739 63.6266 133.694 63.3226C133.648 63.0186 132.817 55.7015 132.629 51.7137Z" fill="#F0D0B8"/>
<path d="M136.698 59.0915C136.744 59.056 136.891 59.2131 137.205 59.3347C137.653 59.4988 138.147 59.4825 138.583 59.2891C139.678 58.8128 140.514 56.9886 140.458 55.0783C140.435 54.1697 140.208 53.278 139.795 52.4687C139.425 51.7136 138.898 51.2019 138.33 51.136C138.116 51.0902 137.892 51.1215 137.698 51.2244C137.504 51.3272 137.353 51.4951 137.271 51.6984C137.144 52.0025 137.225 52.2052 137.17 52.2305C137.114 52.2558 136.932 52.0684 136.992 51.6275C137.036 51.361 137.17 51.1176 137.372 50.9384C137.654 50.7005 138.018 50.5839 138.386 50.6141C139.202 50.6141 139.977 51.3336 140.413 52.1342C140.915 53.0235 141.191 54.0221 141.218 55.0428C141.269 57.1811 140.291 59.2384 138.791 59.7654C138.512 59.8681 138.212 59.9064 137.916 59.8775C137.619 59.8485 137.333 59.7531 137.078 59.5982C136.729 59.3702 136.663 59.1371 136.698 59.0915Z" fill="#DAB599"/>
<path d="M107.091 11.5307C108.4 11.3199 109.741 11.4616 110.977 11.9412C111.824 12.2313 112.65 12.5783 113.45 12.98L114.099 13.3043C114.296 13.4056 114.605 13.5982 114.859 13.7552C115.368 14.1044 115.851 14.4905 116.303 14.9106C117.208 15.7553 118.055 16.6611 118.837 17.6215L120.017 19.0251C120.21 19.2531 120.407 19.4761 120.6 19.6839L121.254 20.3882C123.037 22.3239 125.059 24.4166 127.203 26.8337C129.593 29.4552 131.713 32.3106 133.531 35.3567C134.538 37.0834 135.401 38.89 136.111 40.7583C136.801 42.6786 137.378 44.6379 137.839 46.6262C138.773 50.7307 139.292 54.9186 139.389 59.1269C139.453 61.634 139.379 64.1427 139.166 66.6416C142.975 69.9384 146.075 73.9732 148.28 78.5021C150.486 83.0309 151.75 87.9598 151.996 92.991C152.407 95.6918 150.871 98.9652 148.687 100.977C148.296 101.505 147.864 102.001 147.395 102.462C146.283 103.596 144.968 104.512 143.519 105.162C142.495 105.611 141.401 105.88 140.286 105.958C138.881 106.063 137.472 105.797 136.202 105.188C134.829 104.488 133.648 103.463 132.761 102.203C131.902 100.992 131.219 99.6647 130.734 98.2609C129.678 95.3367 129.144 92.2492 129.158 89.1399C129.187 85.8616 129.482 82.5909 130.04 79.3603C130.547 76.0767 131.165 72.8337 131.515 69.54C131.897 66.1474 132.046 62.7325 131.961 59.3195C131.876 55.5745 131.462 51.8442 130.724 48.1716C130.377 46.4613 129.943 44.77 129.422 43.1045C128.907 41.5638 128.275 40.0646 127.532 38.62C126.039 35.8462 124.317 33.2021 122.384 30.7152C120.549 28.2525 118.725 25.9216 117.139 23.7022L116.546 22.8661C116.333 22.562 116.141 22.2681 115.958 21.9844C115.588 21.4118 115.269 20.8797 114.945 20.373C114.332 19.3596 113.779 18.4779 113.232 17.7482C112.986 17.4157 112.72 17.0976 112.437 16.7956C112.29 16.6587 112.214 16.5625 112.016 16.4003L111.509 15.9696C110.83 15.4071 110.227 14.9562 109.67 14.5305C108.841 13.9177 107.941 13.4072 106.989 13.0104C106.326 12.7418 105.88 12.5999 105.829 12.3364C105.778 12.0729 106.169 11.7385 107.091 11.5307Z" fill="#263238"/>
<path d="M175.326 106.84C173.299 103.926 170.714 101.027 167.33 99.6796C163.534 98.1595 157.312 100.186 153.648 102.026C149.985 103.865 146.306 106.079 142.217 106.12C140.429 106.197 138.672 105.631 137.266 104.524C135.923 103.369 135.188 101.428 135.746 99.7506C136.521 97.4855 139.141 96.5582 141.031 95.0887C143.95 92.8338 145.267 89.079 145.946 85.461C146.625 81.8431 146.823 78.0781 148.17 74.6426C152.037 77.0748 149.417 84.0473 152.878 87.0369C154.722 88.6331 157.438 88.3341 159.881 88.6382C163.651 89.1094 169.448 91.638 171.48 94.8455C173.512 98.053 176.831 102.669 175.3 106.85" fill="#263238"/>
<path d="M132.625 57.1204C132.625 70.7461 128.794 85.6132 129.61 94.0754C130.425 102.538 130.486 107.194 130.658 115.692C130.814 123.788 129.07 131.808 125.566 139.108C131.388 137.633 137.59 135.936 141.533 131.405C145.951 126.338 146.397 119.052 147.218 112.368C148.039 105.684 152.072 101.671 158.042 100.252L132.625 57.1204Z" fill="#263238"/>
<path d="M211.708 216.778C211.708 216.848 164.583 216.909 106.503 216.909C48.4228 216.909 1.27759 216.848 1.27759 216.778C1.27759 216.707 48.3772 216.646 106.493 216.646C164.609 216.646 211.708 216.681 211.708 216.778Z" fill="#263238"/>
</svg>
