<svg width="167" height="61" viewBox="0 0 167 61" fill="none" xmlns="http://www.w3.org/2000/svg">
<path d="M104.626 1.59115V14.5868H102.769V8.79445H95.3059V14.5868H93.4494V1.59115H95.3059V7.17928H102.769V1.59115H104.626Z" fill="black"/>
<path d="M114.382 14.7353C113.07 14.7353 111.888 14.4507 110.836 13.8813C109.784 13.2996 108.955 12.5013 108.348 11.4864C107.754 10.4715 107.457 9.33903 107.457 8.08898C107.457 6.83892 107.754 5.70644 108.348 4.69154C108.955 3.67664 109.784 2.88453 110.836 2.31519C111.888 1.73348 113.07 1.44263 114.382 1.44263C115.682 1.44263 116.858 1.73348 117.91 2.31519C118.962 2.88453 119.785 3.67664 120.379 4.69154C120.973 5.69406 121.27 6.82654 121.27 8.08898C121.27 9.35141 120.973 10.4901 120.379 11.505C119.785 12.5075 118.962 13.2996 117.91 13.8813C116.858 14.4507 115.682 14.7353 114.382 14.7353ZM114.382 13.083C115.335 13.083 116.189 12.8664 116.944 12.4332C117.712 12 118.312 11.406 118.745 10.651C119.191 9.88361 119.413 9.02961 119.413 8.08898C119.413 7.14834 119.191 6.30052 118.745 5.54554C118.312 4.77818 117.712 4.1779 116.944 3.74471C116.189 3.31153 115.335 3.09493 114.382 3.09493C113.429 3.09493 112.563 3.31153 111.783 3.74471C111.016 4.1779 110.409 4.77818 109.964 5.54554C109.53 6.30052 109.314 7.14834 109.314 8.08898C109.314 9.02961 109.53 9.88361 109.964 10.651C110.409 11.406 111.016 12 111.783 12.4332C112.563 12.8664 113.429 13.083 114.382 13.083Z" fill="black"/>
<path d="M136.156 14.5868L136.138 5.11854L131.441 13.0088H130.587L125.89 5.17424V14.5868H124.107V1.59115H125.63L131.051 10.7252L136.398 1.59115H137.92L137.939 14.5868H136.156Z" fill="black"/>
<path d="M151.27 12.9716V14.5868H141.839V1.59115H151.01V3.20632H143.695V7.19784H150.212V8.77589H143.695V12.9716H151.27Z" fill="black"/>
<path d="M104.626 24.1346V37.1303H102.769V31.3379H95.3059V37.1303H93.4494V24.1346H95.3059V29.7228H102.769V24.1346H104.626Z" fill="black"/>
<path d="M117.947 35.5151V37.1303H108.516V24.1346H117.687V25.7498H110.372V29.7413H116.888V31.3194H110.372V35.5151H117.947Z" fill="black"/>
<path d="M129.233 33.8814H122.327L120.897 37.1303H118.985L124.87 24.1346H126.708L132.612 37.1303H130.662L129.233 33.8814ZM128.583 32.3961L125.78 26.0283L122.976 32.3961H128.583Z" fill="black"/>
<path d="M134.55 24.1346H136.407V35.5151H143.443V37.1303H134.55V24.1346Z" fill="black"/>
<path d="M146.939 25.7498H142.484V24.1346H153.233V25.7498H148.777V37.1303H146.939V25.7498Z" fill="black"/>
<path d="M166.431 24.1346V37.1303H164.575V31.3379H157.111V37.1303H155.255V24.1346H157.111V29.7228H164.575V24.1346H166.431Z" fill="black"/>
<path d="M96.03 48.2933H91.5743V46.6781H102.324V48.2933H97.8679V59.6738H96.03V48.2933Z" fill="black"/>
<path d="M113.777 58.0586V59.6738H104.346V46.6781H113.517V48.2933H106.202V52.2848H112.719V53.8628H106.202V58.0586H113.777Z" fill="black"/>
<path d="M120.57 59.8223C119.592 59.8223 118.646 59.6738 117.73 59.3767C116.826 59.0673 116.115 58.6712 115.595 58.1885L116.282 56.7404C116.777 57.186 117.408 57.5511 118.175 57.8358C118.955 58.1081 119.753 58.2442 120.57 58.2442C121.647 58.2442 122.451 58.0648 122.984 57.7058C123.516 57.3345 123.782 56.8456 123.782 56.2392C123.782 55.7936 123.633 55.4347 123.336 55.1624C123.052 54.8777 122.693 54.6611 122.26 54.5126C121.839 54.3641 121.239 54.197 120.459 54.0114C119.481 53.7762 118.689 53.541 118.082 53.3059C117.488 53.0707 116.975 52.7118 116.542 52.2291C116.121 51.734 115.91 51.0719 115.91 50.2426C115.91 49.5495 116.09 48.9245 116.449 48.3675C116.82 47.8106 117.377 47.365 118.12 47.0308C118.862 46.6967 119.784 46.5296 120.886 46.5296C121.653 46.5296 122.408 46.6286 123.151 46.8266C123.893 47.0247 124.531 47.3093 125.063 47.6806L124.45 49.1658C123.906 48.8193 123.324 48.5594 122.705 48.3861C122.086 48.2005 121.48 48.1076 120.886 48.1076C119.834 48.1076 119.042 48.2995 118.509 48.6831C117.99 49.0668 117.73 49.5619 117.73 50.1684C117.73 50.6139 117.878 50.979 118.175 51.2637C118.472 51.536 118.837 51.7526 119.271 51.9135C119.716 52.062 120.316 52.2229 121.071 52.3962C122.049 52.6314 122.835 52.8665 123.429 53.1017C124.023 53.3368 124.531 53.6958 124.952 54.1784C125.385 54.6611 125.601 55.3109 125.601 56.1278C125.601 56.8085 125.416 57.4336 125.044 58.0029C124.673 58.5598 124.11 59.0054 123.355 59.3396C122.6 59.6614 121.672 59.8223 120.57 59.8223Z" fill="black"/>
<path d="M130.713 48.2933H126.257V46.6781H137.006V48.2933H132.551V59.6738H130.713V48.2933Z" fill="black"/>
<path d="M142.653 59.8223C141.675 59.8223 140.728 59.6738 139.812 59.3767C138.909 59.0673 138.197 58.6712 137.677 58.1885L138.364 56.7404C138.859 57.186 139.49 57.5511 140.258 57.8358C141.037 58.1081 141.836 58.2442 142.653 58.2442C143.729 58.2442 144.534 58.0648 145.066 57.7058C145.598 57.3345 145.864 56.8456 145.864 56.2392C145.864 55.7936 145.716 55.4347 145.419 55.1624C145.134 54.8777 144.775 54.6611 144.342 54.5126C143.921 54.3641 143.321 54.197 142.541 54.0114C141.563 53.7762 140.771 53.541 140.165 53.3059C139.571 53.0707 139.057 52.7118 138.624 52.2291C138.203 51.734 137.993 51.0719 137.993 50.2426C137.993 49.5495 138.172 48.9245 138.531 48.3675C138.902 47.8106 139.459 47.365 140.202 47.0308C140.945 46.6967 141.867 46.5296 142.968 46.5296C143.736 46.5296 144.491 46.6286 145.233 46.8266C145.976 47.0247 146.613 47.3093 147.145 47.6806L146.533 49.1658C145.988 48.8193 145.406 48.5594 144.788 48.3861C144.169 48.2005 143.562 48.1076 142.968 48.1076C141.916 48.1076 141.124 48.2995 140.592 48.6831C140.072 49.0668 139.812 49.5619 139.812 50.1684C139.812 50.6139 139.961 50.979 140.258 51.2637C140.555 51.536 140.92 51.7526 141.353 51.9135C141.799 52.062 142.399 52.2229 143.154 52.3962C144.132 52.6314 144.918 52.8665 145.512 53.1017C146.106 53.3368 146.613 53.6958 147.034 54.1784C147.467 54.6611 147.684 55.3109 147.684 56.1278C147.684 56.8085 147.498 57.4336 147.127 58.0029C146.756 58.5598 146.192 59.0054 145.437 59.3396C144.682 59.6614 143.754 59.8223 142.653 59.8223Z" fill="black"/>
<path d="M30.1532 12.6579H27.8478V11.9348H33.1521V12.6579H30.8467V19.8434H30.1532V12.6579Z" fill="black"/>
<path d="M30.6874 47.3489C30.2001 47.3489 29.7315 47.2548 29.2816 47.0665C28.838 46.8782 28.4944 46.6296 28.2508 46.3208L28.5225 45.6768C28.76 45.963 29.0755 46.1965 29.4691 46.3773C29.8627 46.5505 30.2688 46.6372 30.6874 46.6372C31.2747 46.6372 31.7151 46.5091 32.0088 46.253C32.3024 45.9894 32.4493 45.6505 32.4493 45.2362C32.4493 44.9199 32.368 44.6676 32.2056 44.4793C32.0494 44.291 31.8557 44.1478 31.6245 44.0499C31.3934 43.9445 31.0716 43.8315 30.6593 43.711C30.1657 43.5604 29.7721 43.4172 29.4784 43.2817C29.1848 43.1386 28.9318 42.9239 28.7193 42.6377C28.5132 42.3515 28.4101 41.9636 28.4101 41.474C28.4101 41.0748 28.4975 40.7133 28.6725 40.3894C28.8474 40.058 29.1161 39.7944 29.4784 39.5986C29.8408 39.4027 30.2907 39.3048 30.828 39.3048C31.2028 39.3048 31.5683 39.3688 31.9244 39.4969C32.2868 39.6174 32.5992 39.7869 32.8616 40.0053L32.6273 40.6719C32.3524 40.4534 32.0588 40.2915 31.7464 40.186C31.434 40.0731 31.1279 40.0166 30.828 40.0166C30.2532 40.0166 29.8189 40.1522 29.5253 40.4233C29.2379 40.6869 29.0942 41.0296 29.0942 41.4514C29.0942 41.7678 29.1723 42.0238 29.3285 42.2197C29.4909 42.408 29.6909 42.5548 29.9283 42.6603C30.1719 42.7582 30.4968 42.8674 30.9029 42.9879C31.384 43.131 31.7714 43.2741 32.065 43.4172C32.3649 43.5528 32.6179 43.7637 32.8241 44.0499C33.0303 44.3286 33.1334 44.709 33.1334 45.191C33.1334 45.5902 33.0428 45.9555 32.8616 46.2869C32.6867 46.6108 32.4149 46.8706 32.0463 47.0665C31.6777 47.2548 31.2247 47.3489 30.6874 47.3489Z" fill="black"/>
<path d="M30.1532 53.8146H27.8478V53.0915H33.1521V53.8146H30.8467V61H30.1532V53.8146Z" fill="black"/>
<path d="M22.2554 26.5217V33.1522H21.464V30.0927H16.7154V33.1522H15.9131V26.5217H16.7154V29.477H21.464V26.5217H22.2554Z" fill="black"/>
<path d="M33.3515 32.546V33.1522H27.9849V26.5217H33.1888V27.1279H28.7872V29.4865H32.7118V30.0832H28.7872V32.546H33.3515Z" fill="black"/>
<path d="M43.2492 31.3809H39.021L38.1103 33.1522H37.2755L40.7448 26.5217H41.5362L45.0055 33.1522H44.1599L43.2492 31.3809ZM42.9565 30.8126L41.1351 27.2511L39.3137 30.8126H42.9565Z" fill="black"/>
<path d="M49.5134 26.5217H50.3157V32.546H54.5656V33.1522H49.5134V26.5217Z" fill="black"/>
<path d="M59.9152 27.1279H57.2482V26.5217H63.3845V27.1279H60.7175V33.1522H59.9152V27.1279Z" fill="black"/>
<path d="M74.2609 26.5217V33.1522H73.4695V30.0927H68.7209V33.1522H67.9186V26.5217H68.7209V29.477H73.4695V26.5217H74.2609Z" fill="black"/>
<path fill-rule="evenodd" clip-rule="evenodd" d="M23.5555 22.974V0H22.7703V22.974H0V23.7662H22.7703H23.5555V22.974ZM22.7703 37.2338H0V36.4416H23.5555V37.2338V61H22.7703V37.2338ZM36.9036 0V22.974H59.6739V23.7662H36.9036H36.1184V22.974V0H36.9036ZM36.9036 37.2338V61H36.1184V37.2338V36.4416H59.6739V37.2338H36.9036Z" fill="url(#paint0_linear)"/>
<defs>
<linearGradient id="paint0_linear" x1="10.6831" y1="7.62501" x2="36.1782" y2="87.6822" gradientUnits="userSpaceOnUse">
<stop stop-color="#4350F6"/>
<stop offset="1" stop-color="#00FFAA"/>
</linearGradient>
</defs>
</svg>
