<svg width="233" height="35" viewBox="0 0 233 35" fill="none" xmlns="http://www.w3.org/2000/svg">
<path fill-rule="evenodd" clip-rule="evenodd" d="M12.0916 0.456541C22.9147 0.456541 29.227 7.37589 29.227 16.9476C29.227 26.6183 23.0015 33.4783 12.0901 33.4783H0.437012V0.456541H12.0916ZM7.40721 6.23611V27.7002H12.0901C18.6399 27.7002 22.2553 23.8822 22.2553 16.9492C22.2553 10.1165 18.5653 6.23611 12.0901 6.23611H7.40721ZM46.0685 9.32828C54.5539 9.32828 59.3083 14.7244 59.3083 21.6833C59.3083 28.5387 54.7747 34.0352 46.0685 34.0352C37.4353 34.0352 32.8271 28.417 32.8271 21.6833C32.8271 14.9496 37.4353 9.32828 46.0685 9.32828ZM46.0685 14.7046C42.1623 14.7046 39.5962 17.2839 39.5962 21.6833C39.5962 26.0826 42.1623 28.662 46.0685 28.662C50.0584 28.662 52.5407 26.1785 52.5407 21.6833C52.5407 17.1455 49.967 14.7046 46.0685 14.7046ZM73.2548 9.37393C67.7329 9.39676 62.4607 11.7113 62.4607 16.6631C62.4607 21.9861 66.3684 22.7759 72.3137 23.762C74.4975 24.1592 76.4407 24.3433 76.4407 26.317C76.4407 28.1355 74.6391 28.8263 72.1675 28.8126C68.741 28.7898 65.2019 27.4446 63.6516 26.2409L61.7663 30.5352C64.1313 32.5805 68.2964 33.7431 72.1751 33.7431C77.5372 33.8252 83.0576 31.5898 83.0576 26.5392C83.0576 20.3061 78.1966 19.8496 72.2223 18.8239C70.5274 18.5165 69.137 18.1589 69.137 16.625C69.137 15.0333 71.0056 14.3226 73.2564 14.3363C75.5681 14.3622 78.5514 15.0713 80.3712 15.9585L82.22 11.6368C79.823 10.1394 76.497 9.36176 73.2548 9.37393ZM95.137 3.64611H88.3679V9.89133H84.7099V14.9268H88.3679V23.8092C88.3679 27.6135 89.7415 30.1852 92.0167 31.7633C94.237 33.3292 97.3224 33.9059 100.834 33.7963V28.735C99.0691 28.6696 97.6117 28.3013 96.6127 27.4796C95.6685 26.7005 95.1355 25.5165 95.1355 23.8092V14.9268H100.426V9.89133H95.137V3.64763V3.64611ZM115.416 9.33133C121.263 9.3298 126.622 12.1146 126.622 18.3948V33.4783H120.657L120.368 30.5672C118.495 32.7631 115.927 33.9242 113.16 34.0794C108.397 34.3959 103.524 31.4955 103.524 26.0552C103.524 20.6226 108.299 18.1863 113.229 18.0357C115.565 17.9748 117.956 18.4374 119.853 19.3276L119.85 18.2502C119.763 15.2935 116.969 14.0426 113.966 14.0944C111.339 14.1492 108.4 15.0668 106.594 16.0528L105.005 12.002C108.042 10.3524 111.838 9.33437 115.416 9.33285V9.33133ZM114.831 22.1824C112.187 22.1931 109.842 23.2263 109.842 25.6444C109.842 28.0305 112.242 29.2007 114.843 29.0637C116.71 28.977 118.495 28.3333 119.87 26.7263V23.45C118.538 22.6389 116.657 22.1779 114.831 22.1855V22.1824ZM154.286 9.89133H147.402L141.288 26.4844L135.175 9.89133H128.29L137.828 33.4783H144.748L154.286 9.89133ZM161.001 0.197845C158.988 0.197845 157.356 1.68915 157.356 3.52589C157.356 5.36263 158.988 6.85241 161.001 6.85241C163.015 6.85241 164.646 5.36111 164.646 3.52589C164.646 1.68763 163.015 0.197845 161.001 0.197845ZM164.385 9.89133H157.618V33.4783H164.385V9.89133ZM179.405 9.37546C173.883 9.39828 168.61 11.7128 168.61 16.6646C168.61 21.9876 172.517 22.7774 178.463 23.7635C180.647 24.1607 182.59 24.3448 182.59 26.3185C182.59 28.137 180.788 28.8279 178.318 28.8142C174.89 28.7913 171.352 27.4461 169.802 26.2424L167.917 30.5368C170.282 32.582 174.445 33.7446 178.324 33.7446C183.688 33.8268 189.207 31.5913 189.207 26.5407C189.207 20.3076 184.347 19.8511 178.373 18.8255C176.678 18.5181 175.288 18.1605 175.288 16.6265C175.288 15.0348 177.155 14.3242 179.405 14.3378C181.719 14.3637 184.7 15.0728 186.522 15.96L188.369 11.6383C185.974 10.1409 182.646 9.36328 179.405 9.37546ZM201.286 3.64763H194.518V9.89133H190.859V14.9268H194.518V23.8092C194.518 27.6135 195.892 30.1852 198.166 31.7633C200.388 33.3292 203.471 33.9059 206.985 33.7963V28.735C205.218 28.6696 203.761 28.3013 202.762 27.4796C201.819 26.7005 201.286 25.5165 201.286 23.8092V14.9268H206.575V9.89133H201.286V3.64763ZM221.565 9.33285C227.413 9.33133 232.773 12.1161 232.773 18.3963V33.4783H226.806L226.517 30.5672C224.644 32.7631 222.078 33.9242 219.309 34.0794C214.547 34.3959 209.673 31.4955 209.673 26.0552C209.673 20.6226 214.45 18.1863 219.378 18.0357C221.714 17.9748 224.105 18.4374 226.002 19.3276L225.999 18.2502C225.912 15.2935 223.12 14.0426 220.115 14.0944C217.489 14.1492 214.55 15.0668 212.744 16.0528L211.154 12.002C214.192 10.3524 217.989 9.33437 221.565 9.33285ZM220.981 22.1839C218.336 22.1946 215.991 23.2279 215.991 25.6459C215.991 28.032 218.393 29.2022 220.994 29.0652C222.859 28.9785 224.645 28.3348 226.019 26.7279V23.45C224.687 22.6389 222.806 22.1779 220.981 22.1855V22.1839Z" fill="#BFBFBF"/>
</svg>
