<svg width="262" height="42" viewBox="0 0 262 42" fill="none" xmlns="http://www.w3.org/2000/svg">
<path d="M0.501953 0.709355H22.5558V5.82231H6.6516V26.3268H0.501953V0.709355ZM27.1151 26.3268H53.4101V21.4774H33.2647V15.6265H52.7739V11.1461H33.2647V5.55875H53.4101V0.709355H27.1151V26.3268ZM78.6979 21.2139L70.1626 0.709355H59.5597V26.3268H65.7094V5.92773L74.5097 26.3268H82.939L91.7393 5.92773V26.3268H97.889V0.709355H87.2862L78.6979 21.2139ZM132.56 9.56478V17.6295C132.56 24.0075 130.44 26.3795 123.23 26.3795H111.885C104.993 26.3795 102.395 23.8494 102.395 17.6295V9.56478C102.395 2.55423 104.887 0.445801 111.885 0.445801H123.23C129.591 0.445801 132.56 2.34339 132.56 9.56478ZM126.358 10.0919C126.358 6.34942 125.085 5.50604 121.427 5.50604H113.475C109.605 5.50604 108.545 6.45484 108.545 10.0919V16.9443C108.545 20.3178 109.658 21.2139 113.369 21.2139H121.533C125.456 21.2139 126.358 20.3705 126.358 16.8916V10.0919ZM135.582 5.82231H146.344V26.3268H152.494V5.82231H163.361V0.709355H135.582V5.82231ZM167.974 26.3268H194.269V21.4774H174.123V15.6265H193.633V11.1461H174.123V5.55875H194.269V0.709355H167.974V26.3268ZM219.397 21.2139H211.498C207.946 21.2139 206.515 20.4759 206.515 16.5753V10.25C206.515 6.24399 207.363 5.50604 211.498 5.50604H219.397C222.949 5.50604 224.328 6.66568 224.328 9.35393H230.477C230.477 2.13255 226.66 0.445801 220.564 0.445801H210.332C202.751 0.445801 200.365 2.55424 200.365 10.0392V17.3133C200.365 24.1657 202.645 26.3795 209.749 26.3795H221.2C228.781 26.3795 230.477 24.3238 230.53 17.5241H224.328C224.328 20.5813 223.055 21.2139 219.397 21.2139ZM233.552 0.709355V5.82231H244.314V26.3268H250.464V5.82231H261.332V0.709355H233.552Z" fill="#BFBFBF"/>
<path d="M8.93119 32.3359H12.2181V39.6627H10.4686V33.759H10.2565L7.71186 39.61H5.22019L2.67551 33.759H2.46346V39.61H0.713989V32.3359H4.00087L6.43952 38.1868H6.54555L8.93119 32.3359ZM15.558 39.6627H23.086V38.2922H17.3074V36.6054H22.8739V35.3404H17.3074V33.759H23.086V32.3886H15.558V39.6627ZM34.6961 38.1868H35.4913V41.4021H33.9009V39.6627H27.5922V41.4021H26.0018V38.1868H26.4789C27.1151 37.5542 27.3801 36.869 27.3801 35.8148V32.3359H34.7491V38.1868H34.6961ZM32.9466 33.759H29.0236V36.1838C29.0236 36.9744 28.8645 37.6069 28.4404 38.1868H32.9466V33.759ZM40.5276 38.1868H40.3156V32.3359H38.5661V39.6627H41.5879L45.9881 33.8118H46.2532V39.6627H48.0026V32.3359H45.0338L40.5276 38.1868ZM59.2416 32.3359H57.4922V38.1868H52.933V32.3359H51.1835V39.6627H58.4464V41.4021H60.0368V38.1868H59.1886V32.3359H59.2416ZM65.3383 38.1868H65.0732V32.3359H63.3237V39.6627H66.3455L70.7457 33.8118H71.0108V39.6627H72.7603V32.3359H69.7915L65.3383 38.1868ZM82.2498 35.1295H77.6906V32.3359H75.9411V39.6627H77.6906V36.6054H82.2498V39.6627H83.9993V32.3359H82.2498V35.1295ZM92.5345 38.1868H90.2549C89.2477 38.1868 88.8235 37.9759 88.8235 36.869V35.0768C88.8235 33.9172 89.0886 33.7063 90.2549 33.7063H92.5345C93.5418 33.7063 93.9659 34.0226 93.9659 34.8133H95.7154C95.7154 32.7575 94.6021 32.2831 92.9056 32.2831H89.9899C87.8163 32.2831 87.1271 32.863 87.1271 35.0241V37.0798C87.1271 39.0301 87.7633 39.6627 89.8308 39.6627H93.1177C95.2913 39.6627 95.7684 39.0829 95.7684 37.1325H94.0189C93.9129 37.9759 93.5418 38.1868 92.5345 38.1868ZM107.485 32.3359H104.834L101.6 35.0768H100.54V32.3359H98.7902V39.6627H100.54V36.5527H101.6L104.993 39.6627H107.591L103.084 35.7621L107.485 32.3359ZM116.391 32.3359L120.261 39.6627H118.193L117.239 37.8178H112.892L111.938 39.6627H109.87L113.74 32.3359H116.391ZM116.55 36.3946L115.172 33.6536H115.066L113.634 36.3946H116.55ZM125.615 32.3359H131.182V39.6627H129.432V37.3434H126.517L124.767 39.6627H122.488L124.661 37.1325C123.813 36.9217 123.018 36.0783 123.018 34.9187C122.965 32.8103 124.078 32.3359 125.615 32.3359ZM125.721 33.7063C124.926 33.7063 124.714 34.0753 124.714 34.8133C124.714 35.6039 125.032 35.9202 125.774 35.9202H129.379V33.7063H125.721ZM140.565 36.7636C140.565 37.8178 140.406 38.1868 139.505 38.1868V39.6627H140.247C141.573 39.6627 142.315 38.872 142.315 37.0271V33.8118H146.45V39.6627H148.199V32.3359H140.565V36.7636ZM157.318 32.3359L161.188 39.6627H159.12L158.166 37.8178H153.819L152.865 39.6627H150.797L154.72 32.3359H157.318ZM157.477 36.3946L156.099 33.6536H155.993L154.561 36.3946H157.477ZM171.42 37.3434C171.42 39.1883 170.571 39.61 168.822 39.61H163.839V32.3359H170.73V33.7063H165.588V35.0768H168.822C170.518 35.0768 171.42 35.4985 171.42 37.3434ZM169.67 37.3434C169.67 36.7636 169.564 36.5 168.663 36.5H165.535V38.1868H168.557C169.564 38.1868 169.67 37.9759 169.67 37.3434ZM183.242 34.866V37.1853C183.242 39.0301 182.659 39.6627 180.591 39.6627H177.357C175.396 39.6627 174.654 38.9247 174.654 37.1853V34.866C174.654 32.863 175.343 32.2831 177.357 32.2831H180.591C182.394 32.2304 183.242 32.8103 183.242 34.866ZM181.492 35.0241C181.492 33.9699 181.121 33.7063 180.061 33.7063H177.781C176.668 33.7063 176.35 33.9699 176.35 35.0241V36.9744C176.35 37.9232 176.668 38.1868 177.728 38.1868H180.061C181.174 38.1868 181.439 37.9232 181.439 36.9744V35.0241H181.492ZM193.951 34.866C193.951 36.7109 193.208 37.4488 191.406 37.4488H188.119V39.61H186.37V32.3359H191.353C193.208 32.3359 193.951 33.0211 193.951 34.866ZM192.201 34.866C192.201 34.128 191.989 33.759 191.035 33.759H188.119V36.0256H191.035C191.936 36.0256 192.201 35.6566 192.201 34.866ZM202.274 32.3359L206.144 39.6627H204.076L203.122 37.8178H198.775L197.821 39.6627H195.753L199.676 32.3359H202.274ZM202.433 36.3946L201.055 33.6536H200.949L199.517 36.3946H202.433ZM207.681 33.759H210.756V39.61H212.506V33.759H215.58V32.2831H207.628V33.759H207.681ZM226.979 34.866V37.1853C226.979 39.0301 226.395 39.6627 224.328 39.6627H221.094C219.132 39.6627 218.39 38.9247 218.39 37.1853V34.866C218.39 32.863 219.079 32.2831 221.094 32.2831H224.328C226.13 32.2304 226.979 32.8103 226.979 34.866ZM225.176 35.0241C225.176 33.9699 224.805 33.7063 223.745 33.7063H221.465C220.352 33.7063 220.034 33.9699 220.034 35.0241V36.9744C220.034 37.9232 220.352 38.1868 221.412 38.1868H223.745C224.858 38.1868 225.123 37.9232 225.123 36.9744V35.0241H225.176ZM237.634 34.866C237.634 36.7109 236.892 37.4488 235.09 37.4488H231.803V39.61H230.053V32.3359H235.09C236.892 32.3359 237.634 33.0211 237.634 34.866ZM235.885 34.866C235.885 34.128 235.673 33.759 234.719 33.759H231.803V36.0256H234.719C235.62 36.0256 235.885 35.6566 235.885 34.866ZM242.618 38.1868H242.353V32.3359H240.603V39.6627H243.625L248.025 33.8118H248.29V39.6627H250.04V32.3359H247.071L242.618 38.1868ZM261.703 32.3359V39.6627H259.953V37.3434H257.038L255.288 39.6627H253.008L255.182 37.1325C254.334 36.9217 253.539 36.0783 253.539 34.9187C253.539 32.863 254.652 32.3359 256.136 32.3359H261.703ZM259.953 33.7063H256.295C255.5 33.7063 255.288 34.0753 255.288 34.8133C255.288 35.6039 255.606 35.9202 256.348 35.9202H259.953V33.7063Z" fill="#BFBFBF"/>
</svg>
