<svg width="189" height="34" viewBox="0 0 189 34" fill="none" xmlns="http://www.w3.org/2000/svg">
<path fill-rule="evenodd" clip-rule="evenodd" d="M88.4375 0.470917L81.8174 33.3032H89.3361L95.9562 0.470917H88.4375Z" fill="#BFBFBF"/>
<path fill-rule="evenodd" clip-rule="evenodd" d="M14.1389 0.470917H6.62016L0 33.3032H7.51869L14.1389 0.470917Z" fill="#BFBFBF"/>
<path fill-rule="evenodd" clip-rule="evenodd" d="M86.0002 0.470917H78.4815L64.4872 23.2583L60.0669 0.470917H52.5482L58.9102 33.3032H65.8299L86.0002 0.470917Z" fill="#BFBFBF"/>
<path fill-rule="evenodd" clip-rule="evenodd" d="M124.069 0.470917H99.5297L98.2284 7.36846H106.77L101.533 33.3032H109.052L114.278 7.36846H122.778L124.069 0.470917Z" fill="#BFBFBF"/>
<path fill-rule="evenodd" clip-rule="evenodd" d="M43.2015 0.470917L38.8225 22.1956L27.3172 0.470917H20.821L14.2112 33.3032H21.451L25.8404 11.5274L37.3146 33.3032H43.8315L50.4413 0.470917H43.2015Z" fill="#BFBFBF"/>
<path fill-rule="evenodd" clip-rule="evenodd" d="M141.946 0.470917H128.158L121.538 33.3032H129.098L134.262 7.36846H140.758C142.065 7.30813 143.34 7.77667 144.291 8.66622C145.019 9.44356 145.372 10.4938 145.261 11.5479C144.941 14.8485 142.318 16.371 138.92 16.371H133.436L140.5 33.3032H148.019L143.32 22.0628C148.754 21.3711 152.83 16.805 152.852 11.3844C153.162 5.01818 148.432 0.470917 141.915 0.470917" fill="#BFBFBF"/>
<path d="M154.278 16.8922C154.85 7.33823 162.896 -0.092151 172.568 0.000863765C182.576 0.000863765 189.33 7.51152 188.783 16.882C188.211 26.4359 180.165 33.8663 170.492 33.7733C160.485 33.7733 153.73 26.2626 154.288 16.8922H154.278ZM181.791 16.8922C182.037 14.2277 181.12 11.5863 179.271 9.63387C177.422 7.68144 174.817 6.60418 172.114 6.6736C166.316 6.6516 161.535 11.1615 161.28 16.8922C161.034 19.5567 161.952 22.1981 163.801 24.1505C165.65 26.1029 168.254 27.1802 170.957 27.1108C176.759 27.1383 181.546 22.6269 181.801 16.8922" fill="#BFBFBF"/>
</svg>
