<svg width="66" height="66" viewBox="0 0 66 66" fill="none" xmlns="http://www.w3.org/2000/svg">
<path d="M38.3226 59.6129H30.871V61.7419H38.3226V59.6129Z" fill="url(#paint0_linear)"/>
<path d="M59.6129 42.3624V27.6774H61.7419V25.5484H48.9677V27.6774H51.0968V42.3624L49.3467 46.447C47.4657 44.4872 45.0556 43.1044 42.3901 42.5125L34.0645 40.6624V38.032C37.2815 35.7103 39.3871 31.9397 39.3871 27.6774V24.8064L41.1042 22.2303C42.7669 19.7361 43.6452 16.8343 43.6452 13.8387C43.6452 10.0682 40.8295 6.94277 37.191 6.4531C36.7024 2.81564 33.577 0 29.8065 0H23.4194C15.7889 0 9.58065 6.20826 9.58065 13.8387C9.58065 16.8343 10.4589 19.7361 12.1216 22.2303L13.8387 24.8064V27.6774C13.8387 31.9397 15.9443 35.7103 19.1613 38.032V40.6624L10.8368 42.5115C4.45607 43.9305 0 49.484 0 56.0212V66H53.2258V61.7419H62.2859C64.334 61.7419 66 60.076 66 58.0278C66 57.5211 65.8989 57.0293 65.6998 56.5652L59.6129 42.3624ZM53.2258 42.7989V27.6774H57.4839V42.7989L58.3025 44.7097H52.4061L53.2258 42.7989ZM13.8387 20.9614C12.4474 18.8377 11.7097 16.3786 11.7097 13.8387C11.7097 7.38242 16.9631 2.12903 23.4194 2.12903H29.8065C32.7413 2.12903 35.129 4.51674 35.129 7.45161V8.51613H36.1936C39.1284 8.51613 41.5161 10.9038 41.5161 13.8387C41.5161 16.3786 40.7784 18.8377 39.3871 20.9614V18.0968H37.2581V18.6886C36.6289 18.3225 35.9083 18.0968 35.129 18.0968H18.0968C17.3175 18.0968 16.5969 18.3225 15.9677 18.6886V18.0968H13.8387V20.9614ZM15.9677 22.3548C15.9677 21.1807 16.9226 20.2258 18.0968 20.2258H35.129C36.3032 20.2258 37.2581 21.1807 37.2581 22.3548V25.2173C36.201 26.7577 34.4658 27.6774 32.5934 27.6774C31.0807 27.6774 29.6585 27.0887 28.5886 26.0189L28.1181 25.5484H25.1077L24.6372 26.0189C23.5673 27.0887 22.1451 27.6774 20.6325 27.6774C18.761 27.6774 17.0259 26.7577 15.9677 25.2173V22.3548ZM15.9975 28.2682C17.3207 29.2497 18.9335 29.8065 20.6325 29.8065C22.6412 29.8065 24.5328 29.0517 25.9848 27.6774H27.241C28.693 29.0517 30.5857 29.8065 32.5934 29.8065C34.2923 29.8065 35.9051 29.2497 37.2283 28.2682C36.9185 33.8623 32.2825 38.3226 26.6129 38.3226C20.9433 38.3226 16.3073 33.8623 15.9975 28.2682ZM26.6129 44.7097C24.0879 44.7097 22.5422 43.3822 22.1686 43.0203L21.2903 41.2649V39.2753C22.9126 40.0226 24.7117 40.4516 26.6129 40.4516C28.5141 40.4516 30.3132 40.0226 31.9355 39.2753V41.2649L31.0573 43.0214C30.6911 43.3748 29.1422 44.7097 26.6129 44.7097ZM29.3721 46.3927L26.6129 51.9101L23.8537 46.3927C24.6478 46.6535 25.5622 46.8387 26.6129 46.8387C27.6636 46.8387 28.578 46.6535 29.3721 46.3927ZM25.5484 63.871H12.7742V59.6129H10.6452V63.871H2.12903V56.0212C2.12903 50.4911 5.89955 45.7902 11.2977 44.5915L14.6275 43.8517L13.6588 48.691L17.4368 49.6352L15.6324 52.3423L25.5484 61.1543V63.871ZM18.431 51.9814L20.8847 48.3014L16.1466 47.1166L16.9003 43.346L19.6456 42.735L26.6129 56.6706L33.5802 42.735L36.3245 43.345L37.0782 47.1155L32.34 48.3003L34.7937 51.9803L26.6129 59.2542L18.431 51.9814ZM51.0968 63.871H42.5806V59.6129H40.4516V63.871H27.6774V61.1543L37.5923 52.3401L35.788 49.6331L39.5659 48.6888L38.5972 43.8496L41.927 44.5894C44.4787 45.1568 46.7589 46.5779 48.4206 48.6037L45.0099 56.562C44.8108 57.0283 44.7097 57.5211 44.7097 58.0278C44.7097 60.076 46.3756 61.7419 48.4238 61.7419H51.0968V63.871ZM62.2859 59.6129H48.4238C47.5498 59.6129 46.8387 58.9018 46.8387 58.0278C46.8387 57.8117 46.8813 57.602 46.9665 57.403L51.4938 46.8387H59.2148L63.7422 57.404C63.8284 57.601 63.871 57.8117 63.871 58.0278C63.871 58.9018 63.1599 59.6129 62.2859 59.6129Z" fill="url(#paint1_linear)"/>
<path d="M62.8066 24.4839C64.5673 24.4839 66.0001 23.0511 66.0001 21.2903C66.0001 19.5296 64.5673 18.0968 62.8066 18.0968C61.0459 18.0968 59.613 19.5296 59.613 21.2903C59.613 23.0511 61.0459 24.4839 62.8066 24.4839ZM62.8066 20.2258C63.3942 20.2258 63.8711 20.7027 63.8711 21.2903C63.8711 21.878 63.3942 22.3549 62.8066 22.3549C62.219 22.3549 61.7421 21.878 61.7421 21.2903C61.7421 20.7027 62.219 20.2258 62.8066 20.2258Z" fill="url(#paint2_linear)"/>
<path d="M52.1611 20.2258C54.5095 20.2258 56.4192 18.3161 56.4192 15.9678C56.4192 13.6195 54.5095 11.7097 52.1611 11.7097C49.8128 11.7097 47.9031 13.6195 47.9031 15.9678C47.9031 18.3161 49.8128 20.2258 52.1611 20.2258ZM52.1611 13.8387C53.3353 13.8387 54.2902 14.7936 54.2902 15.9678C54.2902 17.1419 53.3353 18.0968 52.1611 18.0968C50.987 18.0968 50.0321 17.1419 50.0321 15.9678C50.0321 14.7936 50.987 13.8387 52.1611 13.8387Z" fill="url(#paint3_linear)"/>
<defs>
<linearGradient id="paint0_linear" x1="34.5968" y1="59.6129" x2="34.5968" y2="61.7419" gradientUnits="userSpaceOnUse">
<stop stop-color="#5DDEEC"/>
<stop offset="1" stop-color="#56A3C9"/>
</linearGradient>
<linearGradient id="paint1_linear" x1="33" y1="0" x2="33" y2="66" gradientUnits="userSpaceOnUse">
<stop stop-color="#5DDEEC"/>
<stop offset="1" stop-color="#56A3C9"/>
</linearGradient>
<linearGradient id="paint2_linear" x1="62.8066" y1="18.0968" x2="62.8066" y2="24.4839" gradientUnits="userSpaceOnUse">
<stop stop-color="#5DDEEC"/>
<stop offset="1" stop-color="#56A3C9"/>
</linearGradient>
<linearGradient id="paint3_linear" x1="52.1611" y1="11.7097" x2="52.1611" y2="20.2258" gradientUnits="userSpaceOnUse">
<stop stop-color="#5DDEEC"/>
<stop offset="1" stop-color="#56A3C9"/>
</linearGradient>
</defs>
</svg>
