<svg width="68" height="68" viewBox="0 0 68 68" fill="none" xmlns="http://www.w3.org/2000/svg">
<path fill-rule="evenodd" clip-rule="evenodd" d="M62.9724 22.0983C63.3498 22.659 63.7077 23.2324 64.0456 23.8178C72.1781 37.9046 67.3511 55.917 53.2641 64.0497C39.1773 72.1823 21.1649 67.3552 13.0323 53.2684H6.79939C6.17355 53.2684 5.66614 52.7609 5.66614 52.1351C5.66614 51.5093 6.17355 51.0019 6.79939 51.0019H13.5989C13.6143 51.0019 13.6286 51.0062 13.6428 51.0105C13.6567 51.0147 13.6704 51.0189 13.685 51.0189C14.0937 51.0156 14.4719 51.2349 14.6721 51.5911C17.1672 56.1513 20.9168 59.901 25.477 62.3961C38.6546 69.6061 55.1819 64.7686 62.392 51.5911C69.602 38.4137 64.7648 21.8861 51.5872 14.6761C38.4097 7.46613 21.8824 12.3037 14.6722 25.4811C14.4701 25.8359 14.0913 26.053 13.6829 26.0477C13.6693 26.0488 13.6566 26.0525 13.644 26.0562C13.6294 26.0605 13.6149 26.0647 13.599 26.0647H6.79953C6.17369 26.0647 5.66628 25.5573 5.66628 24.9315C5.66628 24.3056 6.17369 23.7982 6.79953 23.7982H13.0324C18.0895 15.0391 27.2904 9.49039 37.3972 9.10452V2.2665H29.4645C28.8387 2.2665 28.3313 1.75909 28.3313 1.13325C28.3313 0.507412 28.8387 0 29.4645 0H47.5965C48.2223 0 48.7297 0.507412 48.7297 1.13325C48.7297 1.75909 48.2223 2.2665 47.5965 2.2665H39.6637V9.09432C45.1297 9.29788 50.4293 11.0279 54.9626 14.0885L57.7651 11.2951C58.2076 10.8527 58.925 10.8527 59.3675 11.2951L65.7704 17.6979C66.2128 18.1405 66.2128 18.8578 65.7704 19.3004L62.9724 22.0983ZM58.5662 13.6987L56.8145 15.4504C58.5917 16.8633 60.2015 18.4748 61.6124 20.2534L63.3666 18.4992L58.5662 13.6987ZM63.4619 38.5305C63.4619 52.2997 52.2997 63.4619 38.5305 63.4619C24.7676 63.4464 13.6146 52.2932 13.599 38.5305C13.599 24.7612 24.7612 13.599 38.5305 13.599C52.2997 13.599 63.4619 24.7612 63.4619 38.5305ZM15.9233 37.3972H19.2652C19.8911 37.3972 20.3985 37.9046 20.3985 38.5305C20.3985 39.1563 19.8911 39.6637 19.2652 39.6637H15.9233C16.514 51.27 25.7911 60.5469 37.3972 61.1376V57.7957C37.3972 57.1699 37.9046 56.6624 38.5305 56.6624C39.1563 56.6624 39.6637 57.1699 39.6637 57.7957V61.1376C51.27 60.5469 60.5469 51.2699 61.1376 39.6637H56.6624C56.0366 39.6637 55.5292 39.1563 55.5292 38.5305C55.5292 37.9046 56.0366 37.3972 56.6624 37.3972H61.1376C60.5469 25.7909 51.27 16.514 39.6637 15.9233V19.2652C39.6637 19.8911 39.1563 20.3985 38.5305 20.3985C37.9046 20.3985 37.3972 19.8911 37.3972 19.2652V15.9233C25.7909 16.514 16.514 25.7909 15.9233 37.3972ZM11.3328 38.5305C11.3328 37.9046 10.8253 37.3972 10.1995 37.3972H1.13328C0.507424 37.3972 0 37.9046 0 38.5305C0 39.1563 0.507424 39.6638 1.13328 39.6638H10.1995C10.8253 39.6638 11.3328 39.1563 11.3328 38.5305ZM11.3327 32.8643H3.39976C2.77376 32.8643 2.26648 32.3568 2.26648 31.731C2.26648 31.1051 2.7739 30.5977 3.39976 30.5977H11.3327C11.9585 30.5977 12.466 31.1051 12.466 31.731C12.466 32.3568 11.9585 32.8643 11.3327 32.8643ZM12.466 45.3299C12.466 44.7041 11.9585 44.1967 11.3327 44.1967H3.39976C2.7739 44.1967 2.26648 44.7041 2.26648 45.3299C2.26648 45.9558 2.7739 46.4632 3.39976 46.4632H11.3327C11.9585 46.4632 12.466 45.9558 12.466 45.3299ZM37.0653 46.1316C36.6228 46.574 35.9054 46.574 35.4629 46.1316L27.9187 38.5874C27.4946 38.1481 27.4946 37.4518 27.9187 37.0127C28.3534 36.5625 29.0709 36.5502 29.5211 36.9849L36.2641 43.7279L51.2154 28.7766C51.6547 28.3525 52.351 28.3525 52.7901 28.7766C53.2403 29.2115 53.2528 29.9289 52.8179 30.379L37.0653 46.1316Z" fill="url(#paint0_linear)"/>
<defs>
<linearGradient id="paint0_linear" x1="33.9979" y1="0" x2="33.9979" y2="68" gradientUnits="userSpaceOnUse">
<stop stop-color="#5DDEEC"/>
<stop offset="1" stop-color="#56A3C9"/>
</linearGradient>
</defs>
</svg>
