<svg width="66" height="73" viewBox="0 0 66 73" fill="none" xmlns="http://www.w3.org/2000/svg">
<path fill-rule="evenodd" clip-rule="evenodd" d="M65.3926 11.1089L56.4404 0.675479C56.4233 0.655693 56.4057 0.636589 56.3873 0.618304C55.6054 -0.163453 54.3378 -0.209712 53.5014 0.512687L46.3679 6.67218C45.9444 7.03761 45.6887 7.54631 45.6481 8.10401C45.6074 8.66184 45.7861 9.20207 46.1516 9.62536L46.4309 9.9489L45.9708 10.3463C44.7496 11.4009 42.9117 11.7164 41.0552 11.1898L40.8007 11.1176L40.7979 11.1168C39.7332 10.8147 35.7293 9.67865 35.696 9.67094C34.7331 9.44715 32.2417 9.09373 29.8623 10.6289L29.6188 10.7682L29.6122 10.772C27.7552 11.8349 16.188 18.4556 16.1539 18.4778C14.9095 19.2885 13.1763 21.3151 14.574 23.7686L14.5796 23.7782L14.5908 23.797C15.1897 24.7738 16.0532 25.3553 17.0609 25.5168C17.0984 26.5182 17.5444 27.478 18.3379 28.1648C19.8797 29.4994 22.2205 29.3308 23.5551 27.7888L28.608 21.9506C28.8128 21.714 28.9844 21.4545 29.1225 21.1761L29.331 21.0901C29.6034 22.1115 30.3481 23.1282 31.8697 23.5596C32.9216 23.8579 33.8353 24.1211 34.6358 24.3517L34.6358 24.3517C38.6599 25.5108 39.8236 25.8459 41.3041 25.6823C46.2526 25.1519 47.3866 24.9896 49.8789 23.5552C51.6715 22.5235 53.4162 21.3173 55.0779 19.964L55.3817 20.3159C56.1392 21.1929 57.4611 21.2872 58.3352 20.5322L65.1258 14.6688C66.1777 13.7605 66.2973 12.1636 65.3926 11.1089ZM22.0075 26.4488C20.9838 27.6314 19.0517 26.8473 19.1082 25.3133L25.1555 22.8117L22.0075 26.4488ZM48.8579 21.7809C46.7375 23.0013 46.0237 23.1173 41.1073 23.6444C40.0001 23.7632 39.0899 23.5014 35.3101 22.4144C34.4937 22.1797 33.5434 21.9064 32.4283 21.5901C31.6242 21.3621 31.4142 20.9321 31.3263 20.6286C31.2104 20.229 31.2775 19.8464 31.2822 19.8192L31.2823 19.8191C31.2824 19.8182 31.2825 19.8177 31.2825 19.8177C31.2828 19.8163 31.2831 19.8149 31.2833 19.8136C31.2834 19.8126 31.2835 19.8115 31.2837 19.8105C31.284 19.8081 31.2843 19.8057 31.2848 19.8033C31.2867 19.7945 31.2893 19.7859 31.291 19.777C31.2915 19.7744 31.3556 19.5008 31.5321 19.2627C31.6846 19.0569 31.9143 18.8565 32.4637 18.9323C34.2111 19.1728 38.1362 19.6983 38.9209 19.8033L38.9239 19.8037L39.0586 19.8218C39.6204 19.8967 40.134 19.5031 40.2088 18.9429C40.2837 18.3826 39.8903 17.8676 39.33 17.7927C39.2836 17.7865 34.6756 17.1704 32.7427 16.9045C30.9332 16.6552 29.8669 17.7726 29.4468 18.8282L27.9539 19.4438C24.5374 20.8525 22.3348 21.764 20.9082 22.3545C18.3786 23.4014 18.2884 23.4387 18.1955 23.4476C18.1921 23.448 18.1886 23.4483 18.185 23.4486C18.1518 23.4514 18.1076 23.4551 17.9529 23.4998C16.307 23.7308 15.1792 21.5889 17.249 20.2081L30.9022 12.3926L30.9051 12.3911C30.9216 12.3815 30.938 12.3715 30.9539 12.3612C32.6634 11.2482 34.4832 11.4944 35.2098 11.6599L40.4967 13.1596C43.0177 13.8743 45.5645 13.4019 47.3086 11.896L47.7687 11.4986L53.7403 18.4145C52.1775 19.6834 50.5391 20.8133 48.8579 21.7809ZM63.7881 13.1192L63.7418 13.1593C63.145 13.6753 56.9907 18.9971 56.9635 18.9939C56.9244 18.991 47.6444 8.27458 47.7055 8.22177L54.8391 2.06215H54.8392C54.853 2.05027 54.8702 2.04441 54.8874 2.04441C54.9013 2.04441 54.9151 2.04823 54.9271 2.05587L63.8387 12.4421C64.0109 12.6425 63.9883 12.9464 63.7881 13.1192ZM49.1375 47.4899C49.0141 44.1893 44.8491 42.6693 42.6434 45.2181L37.5901 51.0565C37.3853 51.2931 37.2138 51.5525 37.076 51.8307L36.8675 51.9167C36.5951 50.8953 35.8505 49.8786 34.3288 49.4472C33.2584 49.1436 32.3364 48.8787 31.5353 48.6486C27.3142 47.4358 26.4509 47.1877 24.9142 47.3226L24.8945 47.3245C19.9461 47.8551 18.8119 48.0173 16.3196 49.4516C14.5269 50.4835 12.7822 51.6896 11.1207 53.0431L10.8168 52.6912C10.0619 51.8172 8.73705 51.7202 7.86332 52.4749L0.70279 58.6573C-0.150061 59.3935 -0.239166 60.6811 0.503837 61.5282L9.94086 72.2826C10.6473 73.0876 11.8762 73.1884 12.6783 72.5101L12.6973 72.494L19.8308 66.3344C20.7067 65.578 20.8037 64.2571 20.0472 63.3811L19.7679 63.0575L20.228 62.6603C21.4493 61.6056 23.2874 61.2904 25.1436 61.8167L29.8899 63.163C30.4336 63.3168 30.9997 63.0014 31.1541 62.4576C31.3083 61.9137 30.9924 61.3479 30.4486 61.1937L25.7021 59.8474C23.1809 59.1325 20.6344 59.6049 18.8902 61.1108L18.4301 61.508L12.4585 54.5923C14.021 53.3234 15.6595 52.1934 17.3407 51.2257C19.4629 50.0043 20.1755 49.8891 25.1026 49.361C26.2526 49.2609 26.9722 49.4676 30.9037 50.597L30.9229 50.6025C31.4469 50.753 31.8997 50.8779 32.2916 50.9859C34.1878 51.5088 34.6582 51.6386 34.8723 52.3779C34.9882 52.7775 34.9212 53.16 34.9164 53.1873L34.9164 53.1875C34.9162 53.1884 34.9161 53.1889 34.9161 53.1889C34.8658 53.4088 34.7712 53.6029 34.6667 53.744C34.514 53.9496 34.2834 54.1499 33.7353 54.0743C31.9855 53.8336 28.0529 53.3071 27.275 53.203L27.1402 53.1849C26.5785 53.1104 26.0649 53.5034 25.99 54.0638C25.9151 54.6241 26.3085 55.1391 26.8688 55.214C26.9152 55.2202 31.5232 55.8363 33.4561 56.1022C35.0548 56.3224 36.24 55.4622 36.7513 54.1787C36.8024 54.1577 47.0586 49.9306 47.1078 49.906C48.1888 49.357 49.2101 49.2315 49.854 50.2653C50.5951 51.5896 49.2809 52.5778 48.9498 52.7986L35.2966 60.614L35.2784 60.6246C35.2737 60.6275 35.2686 60.6306 35.2635 60.6337C35.2572 60.6377 35.2508 60.6417 35.245 60.6455C35.0192 60.7925 34.7781 60.9236 34.5282 61.0351C34.0121 61.2656 33.7806 61.871 34.0112 62.3871C34.2416 62.9035 34.8475 63.1349 35.363 62.9041C35.7031 62.7523 36.0325 62.5739 36.3375 62.3767C36.378 62.3535 50.0055 54.554 50.0446 54.5285C53.7568 52.1114 51.9712 47.9434 49.1375 47.4899ZM18.4979 64.7189C18.5017 64.7232 18.5106 64.7335 18.5092 64.7528C18.507 64.781 12.303 70.1308 11.5158 70.8095L11.5151 70.8102L11.4341 70.88L2.0563 60.1933L9.20127 54.0238C9.20564 54.0202 9.21738 54.0105 9.23512 54.0127C9.25463 54.014 9.2635 54.0244 9.26718 54.0288L18.4979 64.7189ZM41.0433 50.1949L44.1913 46.5575C45.2022 45.3895 47.1475 46.1391 47.0905 47.6931L41.0433 50.1949ZM34.3143 34.878C34.6444 35.2081 35.0844 35.4281 35.5245 35.5382C36.1846 35.7582 36.7347 36.0882 37.2848 36.6383C37.8349 37.0784 38.0549 37.8485 38.0549 38.5086C38.0549 39.2788 37.7249 40.1589 37.1748 40.709C36.7347 41.1491 36.1846 41.4791 35.5245 41.5891V43.2394H34.3143V41.8092C33.6542 41.8092 32.9941 41.4791 32.444 41.1491C32.0039 40.819 31.6739 40.4889 31.3438 40.0489L32.444 38.8387C32.6641 39.1687 32.9941 39.4988 33.3242 39.7188C33.6542 40.0489 34.2043 40.1589 34.6444 40.1589C34.9744 40.1589 35.4145 40.0489 35.7445 39.7188C35.9646 39.3888 36.0746 39.0587 36.0746 38.7287C36.0746 38.3986 35.9646 38.0686 35.7445 37.8485C35.4145 37.6285 34.9744 37.4085 34.6444 37.2984C34.5513 37.2519 34.4561 37.2054 34.3596 37.1582C33.7715 36.8709 33.1366 36.5608 32.6641 36.0882C32.224 35.6482 32.0039 34.9881 32.0039 34.328C31.8939 33.6679 32.224 33.0077 32.6641 32.4577C33.1041 32.0176 33.6542 31.6875 34.2043 31.5775V30.0373H35.5245V31.5775C35.9646 31.5775 36.4047 31.6875 36.7347 31.9076C37.0648 32.1276 37.3948 32.3476 37.7249 32.6777L36.7347 33.9979C36.4047 33.5578 35.8546 33.2278 35.1945 33.2278C34.8644 33.1178 34.5344 33.3378 34.2043 33.5578C33.9843 33.6679 33.8742 33.9979 33.8742 34.2179C33.8742 34.438 33.9843 34.768 34.3143 34.878ZM26.063 36.6383C26.063 31.7976 30.0236 27.8369 34.8644 27.8369C39.7052 27.8369 43.6658 31.7976 43.6658 36.6383C43.6658 41.4791 39.7052 45.4397 34.8644 45.4397C30.0236 45.4397 26.063 41.4791 26.063 36.6383ZM27.2732 36.6383C27.2732 40.819 30.6837 44.2295 34.8644 44.2295C39.0451 44.2295 42.4556 40.819 42.4556 36.6383C42.4556 32.4577 39.0451 29.0471 34.8644 29.0471C30.6837 29.0471 27.2732 32.4577 27.2732 36.6383Z" fill="url(#paint0_linear)"/>
<defs>
<linearGradient id="paint0_linear" x1="33" y1="0" x2="33" y2="72.9595" gradientUnits="userSpaceOnUse">
<stop stop-color="#5DDEEC"/>
<stop offset="1" stop-color="#56A3C9"/>
</linearGradient>
</defs>
</svg>
