<svg width="55" height="74" viewBox="0 0 55 74" fill="none" xmlns="http://www.w3.org/2000/svg">
<path fill-rule="evenodd" clip-rule="evenodd" d="M29.8256 1.76588C36.1429 8.08334 44.5425 11.5624 53.4766 11.5624C54.2747 11.5624 54.9219 12.2094 54.9219 13.0077V27.4737C54.9219 34.5246 53.5313 41.4547 50.789 48.0715C50.4833 48.8089 49.6381 49.1587 48.9004 48.8533C48.1632 48.5478 47.8131 47.7023 48.1186 46.9647C50.7149 40.7006 52.0312 34.1428 52.0312 27.4737V14.4247C42.7075 14.0588 34.0984 10.1266 27.7817 3.80984L27.4609 3.48913L27.1402 3.80984C20.463 10.487 11.7088 14.0786 2.89062 14.4247V27.4737C2.89062 45.286 12.509 62.2352 27.4612 70.8932C33.0497 67.6611 37.9003 63.3113 41.8879 57.9541C42.3644 57.3139 43.2699 57.181 43.9102 57.6577C44.5506 58.1342 44.6833 59.0397 44.2066 59.68C39.8067 65.5913 34.4087 70.3481 28.1628 73.8179C27.9447 73.9391 27.7027 73.9999 27.4609 73.9999C27.2191 73.9999 26.9773 73.9391 26.7591 73.8179C10.2095 64.6241 0 46.3332 0 27.4738V13.0077C0 12.2096 0.647211 11.5624 1.44531 11.5624C10.3794 11.5624 18.7788 8.0832 25.0961 1.76588L26.4388 0.423187C27.0035 -0.141062 27.9184 -0.141062 28.4829 0.423187L29.8256 1.76588ZM46.4946 18.1957C47.1882 18.3148 47.6952 18.9163 47.6952 19.62V27.4737C47.6952 42.4895 40.204 57.0535 28.2798 65.2542C28.033 65.4239 27.7469 65.5087 27.4607 65.5087C27.1745 65.5087 26.8884 65.4239 26.6416 65.2542C14.7045 57.0447 7.22632 42.4734 7.22632 27.4738V19.62C7.22632 18.9163 7.73333 18.3148 8.42694 18.1957C15.0233 17.0624 21.2956 14.2673 26.5659 10.1123C27.0907 9.69881 27.8308 9.69881 28.3556 10.1123C33.626 14.2673 39.8982 17.0624 46.4946 18.1957ZM27.4608 62.2933C38.1832 54.4999 44.8046 41.2559 44.8046 27.4737V20.8203C38.5432 19.559 32.5907 16.8989 27.4608 13.0688C22.331 16.8989 16.3785 19.559 10.1171 20.8203V27.4737C10.1171 41.2559 16.7384 54.4999 27.4608 62.2933ZM23.125 32.6639V28.328C23.125 27.5298 23.7721 26.8827 24.5703 26.8827H30.3516C31.1497 26.8827 31.7969 27.5299 31.7969 28.328V32.6639H36.1328C36.9309 32.6639 37.5781 33.3112 37.5781 34.1093V39.8905C37.5781 40.6886 36.9309 41.3358 36.1328 41.3358H31.7969V45.6718C31.7969 46.4699 31.1497 47.1171 30.3516 47.1171H24.5703C23.7722 47.1171 23.125 46.4699 23.125 45.6718V41.3358H18.7891C17.991 41.3358 17.3438 40.6886 17.3438 39.8905V34.1093C17.3438 33.3112 17.991 32.6639 18.7891 32.6639H23.125ZM26.0156 29.7733V34.1093C26.0156 34.9074 25.3684 35.5546 24.5703 35.5546H20.2344V38.4452H24.5703C25.3684 38.4452 26.0156 39.0924 26.0156 39.8905V44.2264H28.9062V39.8905C28.9062 39.0924 29.5535 38.4452 30.3516 38.4452H34.6875V35.5546H30.3516C29.5535 35.5546 28.9062 34.9074 28.9062 34.1093V29.7733H26.0156ZM46.5391 54.7772C47.3373 54.7772 47.9844 54.1301 47.9844 53.3319C47.9844 52.5337 47.3373 51.8866 46.5391 51.8866C45.7408 51.8866 45.0938 52.5337 45.0938 53.3319C45.0938 54.1301 45.7408 54.7772 46.5391 54.7772Z" fill="url(#paint0_linear)"/>
<defs>
<linearGradient id="paint0_linear" x1="27.4609" y1="0" x2="27.4609" y2="73.9999" gradientUnits="userSpaceOnUse">
<stop stop-color="#5DDEEC"/>
<stop offset="1" stop-color="#56A3C9"/>
</linearGradient>
</defs>
</svg>
