<svg width="72" height="54" viewBox="0 0 72 54" fill="none" xmlns="http://www.w3.org/2000/svg">
<path fill-rule="evenodd" clip-rule="evenodd" d="M65.8895 39.4714L70.524 44.1059C73.3161 47.1105 71.4594 50.0868 70.524 51.008C69.6028 51.9293 66.669 53.7009 63.6219 51.008L56.5496 43.9358H43.1705L48.4428 50.7529C49.0805 51.5183 48.9813 53.5166 46.9688 53.7009H18.9491C16.894 53.5875 16.7665 51.5891 17.4751 50.7529L22.7474 43.9358H0V0H65.8895V39.4714ZM20.1679 51.249H45.7357L40.0666 43.9216H25.8371L20.1679 51.249ZM2.43773 41.4839V41.4981H54.1261L52.0427 39.4147L52.9072 38.5501L50.6679 36.3108C48.6128 37.2746 46.3452 37.8273 43.9358 37.8273C35.177 37.8273 28.0622 30.7267 28.0622 21.9679C28.0622 13.2091 35.177 6.09432 43.9216 6.09432C52.6663 6.09432 59.781 13.2091 59.781 21.9537C59.781 25.6245 58.5196 29.0118 56.4079 31.7046L58.0661 33.3629L58.9307 32.4983L63.4518 37.0195V2.43773H2.43773V41.4839ZM34.7801 23.1868V23.2009H30.5708C31.1944 30.0322 36.9486 35.4037 43.9358 35.4037C50.923 35.4037 56.6772 30.0322 57.3008 23.2009H53.0914L48.6128 29.1677L45.1547 22.2655L41.328 29.9047L37.473 19.601L34.7801 23.1868ZM43.9358 8.53205C36.9486 8.53205 31.1944 13.9036 30.5708 20.7349H33.5613L38.1958 14.5555L41.654 23.782L45.1547 16.7806L49.0238 24.519L51.8726 20.7349H57.3008C56.6772 13.9036 50.923 8.53205 43.9358 8.53205ZM54.7638 33.5188C54.1686 34.0715 53.545 34.5959 52.8647 35.0636L54.6221 36.821L56.337 35.0919L54.7638 33.5188ZM65.351 49.279C66.2864 50.2002 67.8879 50.2002 68.8091 49.279C69.2627 48.8113 70.1555 47.2522 68.8091 45.8208L58.9448 35.9423L55.4867 39.4005L65.351 49.279ZM17.0925 6.0943V9.75089H20.7491V17.0783H17.0925V20.7348H9.76511V17.0783H6.10852V9.75089H9.76511V6.0943H17.0925ZM14.6406 14.6405H18.2972V12.2028H14.6406V8.5462H12.2028V12.2028H8.54625V14.6405H12.2028V18.2971H14.6406V14.6405ZM25.6387 26.8434H6.10852V29.2811H25.6387V26.8434ZM6.10852 34.1707H17.0925V36.6084H6.10852V34.1707Z" fill="url(#paint0_linear)"/>
<defs>
<linearGradient id="paint0_linear" x1="36" y1="0" x2="36" y2="53.7009" gradientUnits="userSpaceOnUse">
<stop stop-color="#5DDEEC"/>
<stop offset="1" stop-color="#56A3C9"/>
</linearGradient>
</defs>
</svg>
