<svg width="53" height="70" viewBox="0 0 53 70" fill="none" xmlns="http://www.w3.org/2000/svg">
<path d="M26.4303 61.7969C25.864 61.7969 25.4049 62.256 25.4049 62.8223C25.4049 63.3886 25.864 63.8477 26.4303 63.8477C26.9966 63.8477 27.4557 63.3886 27.4557 62.8223C27.4557 62.256 26.9966 61.7969 26.4303 61.7969ZM26.4303 55.6445C25.864 55.6445 25.4049 56.1036 25.4049 56.6699C25.4049 57.2362 25.864 57.6953 26.4303 57.6953C26.9966 57.6953 27.4557 57.2362 27.4557 56.6699C27.4557 56.1036 26.9966 55.6445 26.4303 55.6445ZM26.4303 67.9492C25.864 67.9492 25.4049 68.4083 25.4049 68.9746C25.4049 69.5409 25.864 70 26.4303 70C26.9966 70 27.4557 69.5409 27.4557 68.9746C27.4557 68.4083 26.9966 67.9492 26.4303 67.9492ZM46.5747 46.9126L42.0105 45.3767C44.5337 43.5795 46.1151 40.6299 46.1151 37.446C46.1217 37.4329 46.1151 19.6849 46.1151 19.6849C46.1151 14.4286 44.0677 9.48555 40.3501 5.76652C36.6317 2.04791 31.6883 0 26.4303 0C23.0531 0 19.7211 0.869942 16.7944 2.5159C16.3008 2.79344 16.1257 3.41865 16.4032 3.91221C16.6808 4.4059 17.3061 4.58076 17.7995 4.30336C20.42 2.8298 23.4045 2.05078 26.4303 2.05078C31.1404 2.05078 35.5689 3.88527 38.8999 7.21629C42.2302 10.548 44.0643 14.976 44.0643 19.6848V19.6894C43.4688 19.3476 42.7797 19.151 42.0452 19.151H41.0599C38.3165 18.6799 35.6258 17.9024 33.0612 16.838C31.1094 16.0279 29.2127 15.0437 27.4239 13.9128C26.7974 13.5166 25.9801 13.5533 25.3902 14.0042C23.9947 15.0702 22.4878 15.9921 20.911 16.7441C18.078 18.0951 15.0296 18.9046 11.85 19.151H10.8155C10.0811 19.151 9.39203 19.3476 8.79648 19.6894V19.6848C8.79648 14.9136 10.6717 10.4446 14.0768 7.10131C14.481 6.70455 14.4869 6.05541 14.0901 5.65127C13.6935 5.24727 13.0442 5.24111 12.6401 5.63801C8.839 9.37002 6.7457 14.3587 6.7457 19.6848V37.4459C6.7457 40.6298 8.32713 43.5795 10.8503 45.3765L6.28592 46.9126C2.52615 48.178 0 51.6932 0 55.6596V68.9746C0 69.5409 0.459101 70 1.02539 70C1.59168 70 2.05078 69.5409 2.05078 68.9746V55.6596C2.05078 52.5746 4.0157 49.8405 6.94012 48.8563L8.72211 48.2567C8.45838 49.3404 8.34176 50.4576 8.38277 51.5635C8.4216 52.6135 8.59879 53.6456 8.90545 54.6465C6.91359 55.2445 5.45781 57.094 5.45781 59.2781V63.4512C5.45781 64.4835 6.29768 65.3233 7.3299 65.3233H8.47902C9.04531 65.3233 9.50441 64.8642 9.50441 64.2979C9.50441 63.7316 9.04531 63.2725 8.47902 63.2725H7.50846V59.278C7.50846 57.743 8.7567 56.4942 10.2914 56.4933C10.2922 56.4933 10.2929 56.4934 10.2937 56.4934C10.2945 56.4934 10.2953 56.4933 10.2962 56.4933C11.8304 56.4949 13.0781 57.7434 13.0781 59.278V63.2725H12.1077C11.5414 63.2725 11.0823 63.7316 11.0823 64.2979C11.0823 64.8642 11.5414 65.3233 12.1077 65.3233H13.2568C14.289 65.3233 15.1289 64.4834 15.1289 63.4512V59.2781C15.1289 56.8571 13.3405 54.8462 11.0154 54.4966C10.6675 53.5261 10.4701 52.517 10.4319 51.4876C10.3815 50.1226 10.6198 48.7359 11.1215 47.4492L18.1162 45.0953L25.4554 52.4344C26.0549 53.0396 27.0773 53.0425 27.679 52.4344L29.7045 50.4089C30.1049 50.0084 30.1049 49.3592 29.7045 48.9588C29.304 48.5584 28.6547 48.5584 28.2544 48.9588L26.567 50.6458L20.0673 44.1461C21.031 43.3083 21.4702 42.0312 21.3717 40.7426C22.9422 41.2903 24.6254 41.5909 26.3755 41.5971C28.1395 41.6032 29.8668 41.3154 31.4889 40.7594C31.3214 42.0671 31.9272 43.4902 32.9447 44.2682L31.631 45.5819C31.2305 45.9823 31.2305 46.6316 31.631 47.0319C32.0314 47.4324 32.6807 47.4324 33.081 47.0319L34.949 45.1639L41.1934 47.2653C41.6656 48.4663 41.9094 49.7652 41.8972 51.0506C41.8861 52.216 41.6635 53.3929 41.2531 54.4901C38.5875 54.839 36.5221 57.1234 36.5221 59.8827C36.5221 62.8826 38.9627 65.3231 41.9625 65.3231C44.9624 65.3231 47.403 62.8827 47.403 59.8828C47.403 57.3714 45.6921 55.253 43.375 54.6294C43.74 53.4788 43.9366 52.2694 43.948 51.0702C43.9575 50.0663 43.8375 49.0554 43.5976 48.0743L45.9207 48.856C48.8452 49.8404 50.81 52.5745 50.81 55.6594V68.9745C50.81 69.5408 51.2691 69.9999 51.8354 69.9999C52.4017 69.9999 52.8608 69.5408 52.8608 68.9745V55.6594C52.8608 51.6932 50.3346 48.1782 46.5747 46.9126ZM41.9926 21.2018H42.0452C43.1561 21.2018 44.0599 22.1036 44.0643 23.2133V23.2291C44.0594 24.3537 43.1223 25.2729 41.9926 25.2406V21.2018ZM8.79635 23.2135C8.79963 22.0881 9.73957 21.1702 10.868 21.2019V25.2409C9.73834 25.2721 8.80113 24.3566 8.79635 23.2293V23.2135ZM19.321 41.2986C19.321 42.0335 18.8537 42.684 18.1572 42.9177L13.4528 44.5009C10.6538 43.3027 8.79648 40.5118 8.79648 37.446V26.7534C9.43988 27.1253 10.151 27.3044 10.932 27.2918C11.4189 32.7645 14.7005 37.4456 19.321 39.8561V41.2986ZM26.3825 39.5463C18.9586 39.5206 12.9188 33.3886 12.9188 25.8772V21.1109C16.0228 20.77 19.004 19.9254 21.7938 18.5951C23.4428 17.8088 25.0208 16.8507 26.4871 15.7462C28.3273 16.8972 30.2738 17.9015 32.2751 18.7321C34.7397 19.7552 37.3149 20.5278 39.9417 21.0329V26.0349C39.9417 29.6528 38.5303 33.0516 35.9677 35.6055C33.3614 38.2029 30.1059 39.5593 26.3825 39.5463ZM39.4079 44.5007L34.7025 42.9172C34.007 42.684 33.5397 42.0335 33.5397 41.2986V39.8859C34.9515 39.1594 36.2582 38.2114 37.4154 37.0582C40.0683 34.4144 41.6492 30.9843 41.9422 27.2915C42.6962 27.3023 43.4468 27.112 44.0644 26.7531V37.4458C44.0643 40.5117 42.207 43.3027 39.4079 44.5007ZM45.3522 59.8828C45.3522 61.7519 43.8316 63.2725 41.9627 63.2725C40.0936 63.2725 38.573 61.7519 38.573 59.8828C38.573 58.0151 40.0915 56.4955 41.9587 56.4933C41.9598 56.4933 41.9609 56.4934 41.962 56.4934C41.9629 56.4934 41.9639 56.4933 41.9649 56.4933C43.8328 56.4944 45.3522 58.0144 45.3522 59.8828ZM33.0608 22.0382C32.4945 22.0382 32.0354 22.4973 32.0354 23.0636V25.4093C32.0354 25.9756 32.4945 26.4347 33.0608 26.4347C33.6271 26.4347 34.0862 25.9756 34.0862 25.4093V23.0636C34.0862 22.4973 33.6271 22.0382 33.0608 22.0382ZM27.8862 31.7805C27.6555 31.9445 27.1712 32.223 26.5206 32.2462C25.7867 32.2718 25.2353 31.9653 24.9735 31.7797C24.5115 31.4523 23.8714 31.5615 23.5439 32.0236C23.2165 32.4856 23.3257 33.1257 23.7878 33.4532C24.2416 33.7747 25.1742 34.2986 26.4312 34.2986C27.5324 34.2986 28.5551 33.8209 29.0738 33.4525C29.5355 33.1245 29.6439 32.4844 29.3159 32.0227C28.9881 31.561 28.3479 31.4526 27.8862 31.7805ZM19.7999 22.0382C19.2336 22.0382 18.7745 22.4973 18.7745 23.0636V25.4093C18.7745 25.9756 19.2336 26.4347 19.7999 26.4347C20.3662 26.4347 20.8253 25.9756 20.8253 25.4093V23.0636C20.8253 22.4973 20.3663 22.0382 19.7999 22.0382Z" fill="url(#paint0_linear)"/>
<defs>
<linearGradient id="paint0_linear" x1="26.4304" y1="0" x2="26.4304" y2="70" gradientUnits="userSpaceOnUse">
<stop stop-color="#5DDEEC"/>
<stop offset="1" stop-color="#56A3C9"/>
</linearGradient>
</defs>
</svg>
